{
.appVersion = "3133";
.formatVersion = 3;
DisplayStrings = (
"AAaaBBCCDDEEFFGGHHIIJJKKLLMMNNOOPPQQRRSSTTUUVVWWXXYYZZbbccddeeffgghhiijjkkllmmnnooppqqrrssttuuvvwwxxyyzz00112233445566778899''"
);
customParameters = (
{
name = vendorID;
value = "    ";
},
{
name = panose;
value = (
2,
0,
5,
3,
9,
0,
0,
2,
0,
3
);
},
{
name = unicodeRanges;
value = (
0,
1
);
},
{
name = codePageRanges;
value = (
"1252",
"1250",
"bit 29"
);
},
{
name = "Family Alignment Zones";
value = (
{
pos = 704;
size = 16;
},
{
pos = 444;
size = 0;
},
{
pos = 420;
size = 12;
},
{
pos = 278;
size = "-6";
},
{
pos = 0;
size = "-16";
},
{
pos = "-270";
size = "-10";
}
);
},
{
name = glyphOrder;
value = (
.notdef,
space,
exclam,
quotedbl,
numbersign,
dollar,
percent,
ampersand,
quotesingle,
parenleft,
parenright,
asterisk,
plus,
comma,
hyphen,
period,
slash,
zero,
one,
two,
three,
four,
five,
six,
seven,
eight,
nine,
colon,
semicolon,
less,
equal,
greater,
question,
at,
A,
B,
C,
D,
E,
F,
G,
H,
I,
J,
K,
L,
M,
N,
O,
P,
Q,
R,
S,
T,
U,
V,
W,
X,
Y,
Z,
bracketleft,
backslash,
bracketright,
asciicircum,
underscore,
grave,
a,
b,
c,
d,
e,
f,
g,
h,
i,
j,
k,
l,
m,
n,
o,
p,
q,
r,
s,
t,
u,
v,
w,
x,
y,
z,
braceleft,
bar,
braceright,
asciitilde,
uni007F,
uni00A0,
exclamdown,
cent,
sterling,
currency,
yen,
brokenbar,
section,
dieresis,
copyright,
ordfeminine,
guillemotleft,
logicalnot,
uni00AD,
registered,
macron,
degree,
plusminus,
twosuperior,
threesuperior,
acute,
mu,
paragraph,
periodcentered,
cedilla,
onesuperior,
ordmasculine,
guillemotright,
onequarter,
onehalf,
threequarters,
questiondown,
Agrave,
Aacute,
Acircumflex,
Atilde,
Adieresis,
Aring,
AE,
Ccedilla,
Egrave,
Eacute,
Ecircumflex,
Edieresis,
Igrave,
Iacute,
Icircumflex,
Idieresis,
Eth,
Ntilde,
Ograve,
Oacute,
Ocircumflex,
Otilde,
Odieresis,
multiply,
Oslash,
Ugrave,
Uacute,
Ucircumflex,
Udieresis,
Yacute,
Thorn,
germandbls,
agrave,
aacute,
acircumflex,
atilde,
adieresis,
aring,
ae,
ccedilla,
egrave,
eacute,
ecircumflex,
edieresis,
igrave,
iacute,

glyphs = (
{
glyphname = .notdef;
layers = (
{
hints = (
{
horizontal = 1;
place = (0, 50);
place = (0, 50);
type = Stem;
},
{
horizontal = 1;
place = (654, 50);
place = (654, 50);
type = Stem;
},
{
place = (-1, 50);
place = (-1, 50);
type = Stem;
},
{
place = (457, 50);
place = (457, 50);
type = Stem;
}
);
layerId = m01;
shapes = (
{
closed = 1;
nodes = (
(-1,704,l),
(-1,0,l),
(507,0,l),
(507,704,l)
);
},
{
closed = 1;
nodes = (
(223,352,l),
(49,85,l),
(49,620,l)
);
},
{
closed = 1;
nodes = (
(86,654,l),
(420,654,l),
(253,398,l)
);
},
{
closed = 1;
nodes = (
(253,307,l),
(420,50,l),
(86,50,l)
);
},
{
closed = 1;
nodes = (
(283,352,l),
(457,620,l),
(457,85,l)
);
}
);
width = 507;
}
);
note = ".notdef";
},
{
glyphname = exclam;
layers = (
{
hints = (
{
horizontal = 1;
place = (-9, 118);
place = (-9, 118);
type = Stem;
},
{
horizontal = 1;
place = (189, -20);
target = down;
type = TopGhost;
},
{
horizontal = 1;
place = (745, -20);
target = down;
type = TopGhost;
},
{
place = (88, 118);
place = (88, 118);
type = Stem;
}
);
layerId = m01;
shapes = (
{
closed = 1;
nodes = (
(172,189,l),
(195,745,l),
(102,745,l),
(124,189,l)
);
},
{
closed = 1;
nodes = (
(206,18,o),
(180,-9,o),
(147,-9,cs),
(115,-9,o),
(88,18,o),
(88,50,cs),
(88,83,o),
(115,109,o),
(147,109,cs),
(180,109,o),
(206,83,o),
(206,50,cs)
);
}
);
width = 294;
}
);
note = exclam;
unicode = 33;
},
{
glyphname = quotedbl;
layers = (
{
hints = (
{
horizontal = 1;
place = (376, 21);
target = up;
type = BottomGhost;
},
{
horizontal = 1;
place = (704, -20);
target = down;
type = TopGhost;
},
{
place = (114, 71);
place = (114, 71);
type = Stem;
},
{
place = (300, 72);
place = (300, 72);
type = Stem;
}
);
layerId = m01;
shapes = (
{
closed = 1;
nodes = (
(313,376,l),
(360,376,l),
(384,704,l),
(288,704,l)
);
},
{
closed = 1;
nodes = (
(127,376,l),
(173,376,l),
(197,704,l),
(101,704,l)
);
}
);
width = 474;
}
);
note = quotedbl;
unicode = 34;
},
{
glyphname = numbersign;
layers = (
{
hints = (
{
horizontal = 1;
place = (0, 21);
target = up;
type = BottomGhost;
},
{
horizontal = 1;
place = (241, 59);
place = (241, 59);
type = Stem;
},
{
horizontal = 1;
place = (478, 59);
place = (478, 59);
type = Stem;
},
{
horizontal = 1;
place = (746, -20);
target = down;
type = TopGhost;
}
);
layerId = m01;
shapes = (
{
closed = 1;
nodes = (
(447,478,l),
(406,300,l),
(247,300,l),
(287,478,l)
);
},
{
closed = 1;
nodes = (
(653,478,l),
(653,537,l),
(523,537,l),
(572,746,l),
(509,746,l),
(460,537,l),
(301,537,l),
(349,746,l),
(286,746,l),
(237,537,l),
(103,537,l),
(103,478,l),
(224,478,l),
(184,300,l),
(40,300,l),
(40,241,l),
(170,241,l),
(115,0,l),
(178,0,l),
(233,241,l),
(393,241,l),
(338,0,l),
(401,0,l),
(456,241,l),
(590,241,l),
(590,300,l),
(469,300,l),
(510,478,l)
);
}
);
width = 702;
}
);
note = numbersign;
unicode = 35;
},
{
glyphname = dollar;
layers = (
{
hints = (
{
horizontal = 1;
place = (-130, 21);
target = up;
type = BottomGhost;
},
{
horizontal = 1;
place = (239, -20);
target = down;
type = TopGhost;
},
{
horizontal = 1;
place = (836, -20);
target = down;
type = TopGhost;
},
{
place = (42, 234);
place = (42, 234);
type = Stem;
},
{
place = (248, 28);
place = (248, 28);
type = Stem;
},
{
place = (248, 229);
place = (248, 229);
type = Stem;
}
);
layerId = m01;
shapes = (
{
closed = 1;
nodes = (
(276,293,l),
(335,255,ls),
(441,180,o),
(445,10,o),
(276,4,c)
);
},
{
closed = 1;
nodes = (
(248,436,l),
(209,462,ls),
(59,560,o),
(140,698,o),
(248,700,c)
);
},
{
closed = 1;
nodes = (
(276,418,l),
(276,699,l),
(419,690,o),
(458,589,o),
(468,497,c),
(477,497,l),
(477,666,l),
(477,666,o),
(404,707,o),
(276,713,c),
(276,836,l),
(248,836,l),
(248,713,l),
(110,712,o),
(60,635,o),
(60,635,c),
(-17,516,o),
(74,426,o),
(169,363,cs),
(248,312,l),
(248,5,l),
(103,20,o),
(60,124,o),
(50,239,c),
(42,239,l),
(42,47,l),
(42,47,o),
(108,-2,o),
(248,-9,c),
(248,-130,l),
(276,-130,l),
(276,-9,l),
(414,-6,o),
(457,48,o),
(478,72,c),
(530,155,o),
(508,265,o),
(374,354,cs)
);
}
);
width = 538;
}
);
note = dollar;
unicode = 36;
},
{
glyphname = percent;
layers = (
{
hints = (
{
horizontal = 1;
place = (0, 21);
target = up;
type = BottomGhost;
},
{
horizontal = 1;
place = (332, -20);
target = down;
type = TopGhost;
},
{
horizontal = 1;
place = (370, -20);
target = down;
type = TopGhost;
},
{
horizontal = 1;
place = (704, -20);
target = down;
type = TopGhost;
},
{
place = (141, 64);
place = (141, 64);
type = Stem;
},
{
place = (346, 63);
place = (346, 63);
type = Stem;
},
{
place = (575, 63);
place = (575, 63);
type = Stem;
},
{
place = (779, 64);
place = (779, 64);
type = Stem;
},
{
horizontal = 1;
place = (383, -20);
target = down;
type = TopGhost;
},
{
horizontal = 1;
place = (319, -20);
target = down;
type = TopGhost;
}
);
layerId = m01;
shapes = (
{
closed = 1;
nodes = (
(665,37,o),
(638,61,o),
(638,200,cs),
(638,340,o),
(664,370,o),
(709,370,cs),
(752,370,o),
(779,340,o),
(779,200,cs),
(779,61,o),
(754,37,o),
(709,37,cs)
);
},
{
closed = 1;
nodes = (
(599,383,o),
(575,286,o),
(575,200,cs),
(575,115,o),
(599,24,o),
(709,24,cs),
(818,24,o),
(843,115,o),
(843,200,cs),
(843,286,o),
(818,383,o),
(709,383,cs)
);
},
{
closed = 1;
nodes = (
(205,635,o),
(231,665,o),
(275,665,cs),
(318,665,o),
(346,635,o),
(346,495,cs),
(346,356,o),
(321,332,o),
(275,332,cs),
(232,332,o),
(205,356,o),
(205,495,cs)
);
},
{
closed = 1;
nodes = (
(409,581,o),
(385,678,o),
(275,678,cs),
(165,678,o),
(141,581,o),
(141,495,cs),
(141,410,o),
(165,319,o),
(275,319,cs),
(385,319,o),
(409,410,o),
(409,495,cs)
);
},
{
closed = 1;
nodes = (
(746,704,l),
(693,704,l),
(237,0,l),
(290,0,l)
);
}
);
width = 975;
}
);
note = percent;
unicode = 37;
},
{
glyphname = ampersand;
layers = (
{
hints = (
{
horizontal = 1;
place = (101, -20);
target = down;
type = TopGhost;
}
);
layerId = m01;
shapes = (
{
closed = 1;
nodes = (
(338,735,o),
(384,721,o),
(413,691,c),
(462,630,o),
(477,520,o),
(344,436,c),
(273,539,ls),
(225,610,o),
(237,697,o),
(298,720,cs)
);
},
{
closed = 1;
nodes = (
(102,197,o),
(159,305,o),
(217,345,cs),
(273,380,l),
(439,140,l),
(388,23,o),
(250,21,o),
(188,95,cs)
);
},
{
closed = 1;
nodes = (
(721,101,l),
(716,66,o),
(684,54,o),
(653,54,c),
(653,54,o),
(605,55,o),
(573,101,cs),
(494,215,l),
(521,296,o),
(583,312,o),
(583,290,cs),
(584,276,o),
(588,266,o),
(600,256,cs),
(622,238,o),
(654,241,o),
(672,262,cs),
(693,285,o),
(686,318,o),
(667,333,cs),
(650,347,o),
(625,348,o),
(605,344,cs),
(579,338,o),
(524,320,o),
(486,226,c),
(352,424,l),
(506,528,o),
(468,651,o),
(425,700,cs),
(395,734,o),
(346,752,o),
(281,741,cs),
(169,721,o),
(116,599,o),
(215,465,c),
(265,391,l),
(209,357,ls),
(129,311,o),
(4,191,o),
(108,58,cs),
(213,-76,o),
(414,14,o),
(449,128,c),
(507,41,ls),
(546,-17,o),
(632,-9,o),
(632,-9,c),
(678,-5,o),
(733,28,o),
(734,101,c)
);
}
);
width = 788;
}
);
note = ampersand;
unicode = 38;
},
{
glyphname = quotesingle;
layers = (
{
hints = (
{
horizontal = 1;
place = (376, 21);
target = up;
type = BottomGhost;
},
{
horizontal = 1;
place = (704, -20);
target = down;
type = TopGhost;
},
{
place = (87, 72);
place = (87, 72);
type = Stem;
}
);
layerId = m01;
shapes = (
{
closed = 1;
nodes = (
(100,376,l),
(147,376,l),
(171,704,l),
(75,704,l)
);
}
);
width = 242;
}
);
note = quotesingle;
unicode = 39;
},
{
glyphname = parenleft;
layers = (
{
hints = (
{
horizontal = 1;
place = (-205, 21);
target = up;
type = BottomGhost;
},
{
horizontal = 1;
place = (746, -20);
target = down;
type = TopGhost;
},
{
place = (79, 89);
place = (79, 89);
type = Stem;
}
);
layerId = m01;
shapes = (
{
closed = 1;
nodes = (
(308,746,l),
(189,663,o),
(79,451,o),
(79,255,cs),
(79,58,o),
(188,-138,o),
(306,-205,c),
(318,-193,l),
(163,-53,o),
(168,198,o),
(168,252,cs),
(168,305,o),
(163,549,o),
(320,735,c)
);
}
);
width = 320;
}
);
note = parenleft;
unicode = 40;
},
{
glyphname = parenright;
layers = (
{
hints = (
{
horizontal = 1;
place = (-205, 21);
target = up;
type = BottomGhost;
},
{
horizontal = 1;
place = (746, -20);
target = down;
type = TopGhost;
},
{
place = (149, 89);
place = (149, 89);
type = Stem;
}
);
layerId = m01;
shapes = (
{
closed = 1;
nodes = (
(-3,735,l),
(154,549,o),
(149,305,o),
(149,252,cs),
(149,198,o),
(154,-53,o),
(-1,-193,c),
(11,-205,l),
(129,-138,o),
(238,58,o),
(238,255,cs),
(238,451,o),
(128,663,o),
(9,746,c)
);
}
);
width = 321;
}
);
note = parenright;
unicode = 41;
},
{
glyphname = asterisk;
layers = (
{
hints = (
{
horizontal = 1;
place = (310, 21);
target = up;
type = BottomGhost;
},
{
horizontal = 1;
place = (704, -20);
target = down;
type = TopGhost;
}
);
layerId = m01;
shapes = (
{
closed = 1;
nodes = (
(478,525,l),
(454,600,l),
(286,519,l),
(311,704,l),
(231,704,l),
(256,519,l),
(89,600,l),
(64,525,l),
(248,491,l),
(119,357,l),
(182,310,l),
(271,474,l),
(360,310,l),
(424,357,l),
(295,491,l)
);
}
);
width = 544;
}
);
note = asterisk;
unicode = 42;
},
{
glyphname = plus;
layers = (
{
hints = (
{
horizontal = 1;
place = (0, 21);
target = up;
type = BottomGhost;
},
{
horizontal = 1;
place = (276, 68);
place = (276, 68);
type = Stem;
},
{
horizontal = 1;
place = (619, -20);
target = down;
type = TopGhost;
},
{
place = (323, 67);
place = (323, 67);
type = Stem;
}
);
layerId = m01;
shapes = (
{
closed = 1;
nodes = (
(657,344,l),
(390,344,l),
(390,619,l),
(323,619,l),
(323,344,l),
(56,344,l),
(56,276,l),
(323,276,l),
(323,0,l),
(390,0,l),
(390,276,l),
(657,276,l)
);
}
);
width = 715;
}
);
note = plus;
unicode = 43;
},
{
glyphname = comma;
kernLeft = comma;
layers = (
{
hints = (
{
horizontal = 1;
place = (-126, 21);
target = up;
type = BottomGhost;
}
);
layerId = m01;
shapes = (
{
closed = 1;
nodes = (
(122,-103,o),
(138,-77,o),
(151,-57,cs),
(178,-13,o),
(195,58,o),
(160,93,cs),
(137,116,o),
(100,116,o),
(77,93,cs),
(54,70,o),
(55,33,o),
(78,10,cs),
(90,-1,o),
(103,-5,o),
(117,-7,cs),
(133,-9,o),
(139,-70,o),
(72,-118,c),
(78,-126,l)
);
}
);
width = 227;
}
);
note = comma;
unicode = 44;
},
{
glyphname = hyphen;
kernLeft = hyphen;
layers = (
{
hints = (
{
horizontal = 1;
place = (220, 68);
place = (220, 68);
type = Stem;
}
);
layerId = m01;
shapes = (
{
closed = 1;
nodes = (
(379,220,l),
(379,288,l),
(64,288,l),
(64,220,l)
);
}
);
width = 444;
}
);
note = hyphen;
unicode = 45;
},
{
glyphname = period;
kernLeft = period;
layers = (
{
hints = (
{
horizontal = 1;
place = (-5, 119);
place = (-5, 119);
type = Stem;
},
{
place = (55, 118);
place = (55, 118);
type = Stem;
}
);
layerId = m01;
shapes = (
{
closed = 1;
nodes = (
(146,-5,o),
(173,21,o),
(173,54,cs),
(173,87,o),
(146,114,o),
(114,114,cs),
(81,114,o),
(55,87,o),
(55,54,cs),
(55,21,o),
(81,-5,o),
(114,-5,cs)
);
}
);
width = 222;
}
);
note = period;
unicode = 46;
},
{
glyphname = slash;
layers = (
{
hints = (
{
horizontal = 1;
place = (-21, 21);
target = up;
type = BottomGhost;
},
{
horizontal = 1;
place = (725, -20);
target = down;
type = TopGhost;
}
);
layerId = m01;
shapes = (
{
closed = 1;
nodes = (
(393,725,l),
(322,725,l),
(14,-21,l),
(85,-21,l)
);
}
);
width = 412;
}
);
note = slash;
unicode = 47;
},
{
glyphname = zero;
lastChange = "2022-10-05 12:38:55 +0000";
layers = (
{
hints = (
{
horizontal = 1;
place = (-9, 21);
target = up;
type = BottomGhost;
},
{
horizontal = 1;
place = (713, -20);
target = down;
type = TopGhost;
},
{
place = (34, 108);
place = (34, 108);
type = Stem;
},
{
place = (465, 108);
place = (465, 108);
type = Stem;
}
);
layerId = m01;
shapes = (
{
closed = 1;
nodes = (
(465,65,o),
(395,4,o),
(304,4,cs),
(216,4,o),
(142,65,o),
(142,346,cs),
(142,593,o),
(196,679,o),
(270,696,c),
(270,713,l),
(330,713,l),
(330,698,l),
(405,683,o),
(465,599,o),
(465,346,cs)
);
},
{
closed = 1;
nodes = (
(573,511,o),
(527,697,o),
(330,713,c),
(270,713,l),
(77,695,o),
(34,509,o),
(34,346,cs),
(34,175,o),
(83,-9,o),
(304,-9,cs),
(524,-9,o),
(573,175,o),
(573,346,cs)
);
}
);
width = 609;
}
);
note = zero;
unicode = 48;
},
{
glyphname = one;
layers = (
{
hints = (
{
horizontal = 1;
place = (0, 21);
target = up;
type = BottomGhost;
},
{
horizontal = 1;
place = (713, -20);
target = down;
type = TopGhost;
},
{
place = (160, 87);
place = (160, 87);
type = Stem;
}
);
layerId = m01;
shapes = (
{
closed = 1;
nodes = (
(289,12,o),
(247,13,o),
(247,90,cs),
(247,713,l),
(214,713,l),
(60,587,l),
(68,576,l),
(105,605,o),
(160,640,o),
(160,567,cs),
(160,90,ls),
(160,16,o),
(119,12,o),
(78,12,c),
(78,0,l),
(324,0,l),
(324,12,l)
);
}
);
width = 385;
}
);
note = one;
unicode = 49;
},
{
glyphname = two;
lastChange = "2022-10-05 12:39:19 +0000";
layers = (
{
hints = (
{
horizontal = 1;
place = (0, 87);
place = (0, 87);
type = Stem;
},
{
horizontal = 1;
place = (144, -20);
target = down;
type = TopGhost;
},
{
horizontal = 1;
place = (713, -20);
target = down;
type = TopGhost;
}
);
layerId = m01;
shapes = (
{
closed = 1;
nodes = (
(427,144,l),
(405,104,o),
(368,87,o),
(334,87,cs),
(171,87,l),
(109,0,l),
(59,0,l),
(277,318,l),
(355,423,o),
(398,480,o),
(398,546,cs),
(398,637,o),
(326,713,o),
(226,713,c),
(226,713,o),
(51,718,o),
(40,525,c),
(55,522,l),
(95,726,o),
(460,635,o),
(259,332,cs),
(38,0,l),
(400,0,l),
(440,144,l)
);
}
);
width = 476;
}
);
note = two;
unicode = 50;
},
{
glyphname = three;
layers = (
{
hints = (
{
horizontal = 1;
place = (-9, 21);
target = up;
type = BottomGhost;
},
{
horizontal = 1;
place = (713, -20);
target = down;
type = TopGhost;
},
{
place = (361, 90);
place = (361, 90);
type = Stem;
}
);
layerId = m01;
shapes = (
{
closed = 1;
nodes = (
(83,18,o),
(138,-9,o),
(221,-9,cs),
(315,-9,o),
(457,36,o),
(451,210,cs),
(449,282,o),
(393,358,o),
(290,387,c),
(479,493,o),
(390,713,o),
(229,713,cs),
(213,713,o),
(56,713,o),
(45,551,c),
(60,549,l),
(77,641,o),
(201,674,o),
(264,619,cs),
(351,546,o),
(321,391,o),
(168,365,c),
(168,351,l),
(316,340,o),
(356,243,o),
(361,183,cs),
(370,69,o),
(322,4,o),
(220,4,cs),
(140,4,o),
(111,35,o),
(118,37,cs),
(131,41,o),
(140,51,o),
(146,65,cs),
(157,94,o),
(143,126,o),
(114,137,cs),
(86,148,o),
(54,134,o),
(43,105,cs),
(35,85,o),
(40,61,o),
(53,48,cs)
);
}
);
width = 501;
}
);
note = three;
unicode = 51;
},
{
glyphname = four;
lastChange = "2022-10-05 12:39:48 +0000";
layers = (
{
hints = (
{
horizontal = 1;
place = (0, 21);
target = up;
type = BottomGhost;
},
{
horizontal = 1;
place = (203, 53);
place = (203, 53);
type = Stem;
},
{
horizontal = 1;
place = (708, -20);
target = down;
type = TopGhost;
},
{
place = (294, 99);
place = (294, 99);
type = Stem;
}
);
layerId = m01;
shapes = (
{
closed = 1;
nodes = (
(393,704,l),
(393,685,l),
(294,538,l),
(294,256,l),
(111,256,ls),
(84,256,o),
(69,256,o),
(97,297,cs),
(372,704,l)
);
},
{
closed = 1;
nodes = (
(490,203,l),
(490,256,l),
(393,256,l),
(393,704,l),
(352,704,l),
(27,218,l),
(27,203,l),
(294,203,l),
(294,116,ls),
(294,17,o),
(261,13,o),
(219,13,c),
(219,0,l),
(468,0,l),
(468,13,l),
(426,13,o),
(393,15,o),
(393,121,cs),
(393,203,l)
);
}
);
width = 525;
}
);
note = four;
unicode = 52;
},
{
glyphname = five;
lastChange = "2022-10-05 12:40:12 +0000";
layers = (
{
hints = (
{
horizontal = 1;
place = (-9, 21);
target = up;
type = BottomGhost;
},
{
horizontal = 1;
place = (611, 93);
place = (611, 93);
type = Stem;
}
);
layerId = m01;
shapes = (
{
closed = 1;
nodes = (
(471,357,o),
(355,465,o),
(138,435,c),
(120,348,l),
(69,339,l),
(114,611,l),
(432,611,l),
(459,704,l),
(113,704,l),
(53,336,l),
(120,348,l),
(288,362,o),
(381,288,o),
(402,217,cs),
(438,100,o),
(352,4,o),
(227,4,cs),
(147,4,o),
(117,36,o),
(129,41,cs),
(141,45,o),
(153,55,o),
(158,70,cs),
(168,100,o),
(153,133,o),
(124,143,cs),
(94,153,o),
(61,138,o),
(51,108,cs),
(44,88,o),
(51,63,o),
(64,49,cs),
(78,34,o),
(127,-9,o),
(227,-9,cs),
(355,-9,o),
(499,64,o),
(482,243,cs)
);
}
);
width = 535;
}
);
note = five;
unicode = 53;
},
{
glyphname = six;
lastChange = "2022-10-05 12:40:27 +0000";
layers = (
{
hints = (
{
horizontal = 1;
place = (-9, 21);
target = up;
type = BottomGhost;
},
{
horizontal = 1;
place = (398, 35);
place = (398, 35);
type = Stem;
},
{
horizontal = 1;
place = (713, -20);
target = down;
type = TopGhost;
},
{
place = (42, 106);
place = (42, 106);
type = Stem;
},
{
place = (403, 100);
place = (403, 100);
type = Stem;
}
);
layerId = m01;
shapes = (
{
closed = 1;
nodes = (
(403,45,o),
(352,4,o),
(277,4,cs),
(188,4,o),
(148,88,o),
(148,279,c),
(203,375,l),
(222,383,o),
(265,398,o),
(288,398,cs),
(345,398,o),
(403,350,o),
(403,200,cs)
);
},
{
closed = 1;
nodes = (
(503,320,o),
(458,433,o),
(316,433,cs),
(283,433,o),
(231,416,o),
(205,403,c),
(203,375,l),
(148,279,l),
(148,560,o),
(225,705,o),
(326,699,cs),
(381,697,o),
(394,677,o),
(387,678,cs),
(373,680,o),
(360,670,o),
(351,659,cs),
(332,636,o),
(336,600,o),
(360,581,cs),
(384,562,o),
(419,566,o),
(438,590,cs),
(451,606,o),
(454,632,o),
(445,648,cs),
(438,663,o),
(412,713,o),
(311,713,cs),
(153,713,o),
(42,537,o),
(42,318,cs),
(42,119,o),
(108,-9,o),
(277,-9,cs),
(416,-9,o),
(503,63,o),
(503,218,cs)
);
}
);
width = 546;
}
);
note = six;
unicode = 54;
},
{
glyphname = seven;
lastChange = "2022-10-05 12:41:00 +0000";
layers = (
{
hints = (
{
horizontal = 1;
place = (0, 21);
target = up;
type = BottomGhost;
},
{
horizontal = 1;
place = (617, 87);
place = (617, 87);
type = Stem;
},
{
place = (195, 105);
place = (195, 105);
type = Stem;
}
);
layerId = m01;
shapes = (
{
closed = 1;
nodes = (
(492,704,l),
(64,704,l),
(45,559,l),
(58,559,l),
(76,600,o),
(100,617,o),
(148,617,cs),
(381,617,l),
(443,704,l),
(492,704,l),
(302,446,o),
(207,189,o),
(195,0,c),
(300,0,l),
(300,146,o),
(327,383,o),
(464,617,cs),
(515,704,l)
);
}
);
width = 551;
}
);
note = seven;
unicode = 55;
},
{
glyphname = eight;
lastChange = "2022-07-31 17:49:11 +0000";
layers = (
{
hints = (
{
horizontal = 1;
place = (-9, 21);
target = up;
type = BottomGhost;
},
{
horizontal = 1;
place = (713, -20);
target = down;
type = TopGhost;
},
{
place = (71, 43);
place = (71, 43);
type = Stem;
},
{
place = (419, 87);
place = (419, 87);
type = Stem;
},
{
place = (71, 79);
place = (71, 79);
type = Stem;
},
{
place = (394, 64);
place = (394, 64);
type = Stem;
},
{
place = (36, 78);
place = (36, 78);
type = Stem;
}
);
layerId = m01;
shapes = (
{
closed = 1;
nodes = (
(395,475,o),
(307,399,o),
(272,387,c),
(261,382,l),
(142,393,l),
(232,447,l),
(182,480,o),
(150,526,o),
(150,586,cs),
(150,659,o),
(207,700,o),
(266,700,cs),
(326,700,o),
(392,671,o),
(394,551,cs)
);
},
{
closed = 1;
nodes = (
(407,-9,o),
(506,48,o),
(506,189,cs),
(506,286,o),
(423,353,o),
(326,401,c),
(402,420,o),
(458,498,o),
(458,557,cs),
(458,652,o),
(386,713,o),
(266,713,cs),
(162,713,o),
(71,654,o),
(71,538,cs),
(71,480,o),
(91,436,o),
(142,393,c),
(261,382,l),
(253,378,l),
(167,350,o),
(36,245,o),
(36,159,cs),
(36,39,o),
(130,-9,o),
(278,-9,cs)
);
},
{
closed = 1;
nodes = (
(360,265,o),
(418,221,o),
(419,146,cs),
(420,36,o),
(335,4,o),
(278,4,cs),
(189,4,o),
(114,52,o),
(114,163,cs),
(114,277,o),
(186,324,o),
(220,340,c),
(235,331,o),
(239,329,o),
(256,320,cs)
);
}
);
width = 540;
}
);
note = eight;
unicode = 56;
},
{
glyphname = nine;
lastChange = "2022-10-05 12:42:21 +0000";
layers = (
{
hints = (
{
horizontal = 1;
place = (-9, 21);
target = up;
type = BottomGhost;
},
{
horizontal = 1;
place = (273, 35);
place = (273, 35);
type = Stem;
},
{
horizontal = 1;
place = (713, -20);
target = down;
type = TopGhost;
},
{
place = (37, 100);
place = (37, 100);
type = Stem;
},
{
place = (389, 106);
place = (389, 106);
type = Stem;
}
);
layerId = m01;
shapes = (
{
closed = 1;
nodes = (
(137,652,o),
(188,700,o),
(263,700,cs),
(352,700,o),
(389,623,o),
(389,427,c),
(337,327,l),
(316,315,o),
(280,308,o),
(252,308,cs),
(195,308,o),
(137,356,o),
(137,506,cs)
);
},
{
closed = 1;
nodes = (
(37,386,o),
(82,273,o),
(224,273,cs),
(263,273,o),
(307,281,o),
(335,299,c),
(337,327,l),
(389,427,l),
(389,126,o),
(346,-1,o),
(218,4,cs),
(164,7,o),
(141,31,o),
(149,31,cs),
(163,31,o),
(175,39,o),
(185,50,cs),
(204,74,o),
(200,110,o),
(176,128,cs),
(152,148,o),
(117,144,o),
(98,119,cs),
(84,103,o),
(82,78,o),
(91,61,cs),
(98,46,o),
(123,-9,o),
(233,-9,cs),
(413,-9,o),
(495,143,o),
(495,396,cs),
(495,595,o),
(432,713,o),
(263,713,cs),
(124,713,o),
(37,638,o),
(37,489,cs)
);
}
);
width = 539;
}
);
note = nine;
unicode = 57;
},
{
glyphname = colon;
kernLeft = colon;
layers = (
{
hints = (
{
horizontal = 1;
place = (36, 120);
place = (36, 120);
type = Stem;
},
{
horizontal = 1;
place = (309, 120);
place = (309, 120);
type = Stem;
},
{
place = (54, 120);
place = (54, 120);
type = Stem;
}
);
layerId = m01;
shapes = (
{
closed = 1;
nodes = (
(146,309,o),
(174,336,o),
(174,369,cs),
(174,402,o),
(146,429,o),
(114,429,cs),
(80,429,o),
(54,402,o),
(54,369,cs),
(54,336,o),
(80,309,o),
(114,309,cs)
);
},
{
closed = 1;
nodes = (
(146,36,o),
(174,62,o),
(174,95,cs),
(174,129,o),
(146,156,o),
(114,156,cs),
(80,156,o),
(54,129,o),
(54,95,cs),
(54,62,o),
(80,36,o),
(114,36,cs)
);
}
);
width = 226;
}
);
note = colon;
unicode = 58;
},
{
glyphname = semicolon;
kernLeft = semicolon;
layers = (
{
hints = (
{
horizontal = 1;
place = (-81, 21);
target = up;
type = BottomGhost;
},
{
horizontal = 1;
place = (309, 120);
place = (309, 120);
type = Stem;
},
{
place = (54, 120);
place = (54, 120);
type = Stem;
}
);
layerId = m01;
shapes = (
{
closed = 1;
nodes = (
(147,309,o),
(174,336,o),
(174,369,cs),
(174,402,o),
(147,429,o),
(114,429,cs),
(80,429,o),
(54,402,o),
(54,369,cs),
(54,336,o),
(80,309,o),
(114,309,cs)
);
},
{
closed = 1;
nodes = (
(68,-73,l),
(135,-25,o),
(129,36,o),
(113,38,cs),
(99,40,o),
(86,44,o),
(74,55,cs),
(51,78,o),
(50,115,o),
(73,138,cs),
(96,161,o),
(133,161,o),
(156,138,cs),
(191,103,o),
(174,32,o),
(147,-12,cs),
(134,-32,o),
(118,-58,o),
(74,-81,c)
);
}
);
width = 227;
}
);
note = semicolon;
unicode = 59;
},
{
glyphname = less;
layers = (
{
hints = (
{
horizontal = 1;
place = (-16, 21);
target = up;
type = BottomGhost;
},
{
horizontal = 1;
place = (547, -20);
target = down;
type = TopGhost;
}
);
layerId = m01;
shapes = (
{
closed = 1;
nodes = (
(144,266,l),
(553,477,l),
(553,547,l),
(46,287,l),
(46,244,l),
(553,-16,l),
(553,53,l)
);
}
);
width = 600;
}
);
note = less;
unicode = 60;
},
{
glyphname = equal;
layers = (
{
hints = (
{
horizontal = 1;
place = (124, 61);
place = (124, 61);
type = Stem;
},
{
horizontal = 1;
place = (349, 61);
place = (349, 61);
type = Stem;
}
);
layerId = m01;
shapes = (
{
closed = 1;
nodes = (
(567,349,l),
(567,410,l),
(56,410,l),
(56,349,l)
);
},
{
closed = 1;
nodes = (
(567,124,l),
(567,185,l),
(56,185,l),
(56,124,l)
);
}
);
width = 613;
}
);
note = equal;
unicode = 61;
},
{
glyphname = greater;
layers = (
{
hints = (
{
horizontal = 1;
place = (-16, 21);
target = up;
type = BottomGhost;
},
{
horizontal = 1;
place = (547, -20);
target = down;
type = TopGhost;
}
);
layerId = m01;
shapes = (
{
closed = 1;
nodes = (
(47,53,l),
(47,-16,l),
(554,244,l),
(554,287,l),
(47,547,l),
(47,477,l),
(456,266,l)
);
}
);
width = 600;
}
);
note = greater;
unicode = 62;
},
{
glyphname = question;
layers = (
{
hints = (
{
horizontal = 1;
place = (-5, 126);
place = (-5, 126);
type = Stem;
},
{
place = (202, 127);
place = (202, 127);
type = Stem;
}
);
layerId = m01;
shapes = (
{
closed = 1;
nodes = (
(329,93,o),
(300,121,o),
(265,121,cs),
(230,121,o),
(202,93,o),
(202,58,cs),
(202,23,o),
(230,-5,o),
(265,-5,cs),
(300,-5,o),
(329,23,o),
(329,58,cs)
);
},
{
closed = 1;
nodes = (
(391,356,o),
(494,417,o),
(487,562,cs),
(480,710,o),
(315,779,o),
(156,708,cs),
(108,687,o),
(84,644,o),
(79,624,cs),
(74,607,o),
(72,587,o),
(84,570,cs),
(101,547,o),
(135,539,o),
(158,556,cs),
(181,573,o),
(187,606,o),
(171,630,cs),
(162,642,o),
(152,649,o),
(138,651,cs),
(125,652,o),
(122,681,o),
(164,697,cs),
(249,730,o),
(367,710,o),
(380,558,cs),
(390,440,o),
(343,397,o),
(298,359,cs),
(234,305,o),
(240,241,o),
(246,202,c),
(266,205,l),
(261,265,o),
(284,313,o),
(335,334,cs)
);
}
);
width = 576;
}
);
note = question;
unicode = 63;
},
{
glyphname = at;
layers = (
{
hints = (
{
horizontal = 1;
place = (-208, 26);
place = (-208, 26);
type = Stem;
},
{
horizontal = 1;
place = (-9, 44);
place = (-9, 44);
type = Stem;
},
{
horizontal = 1;
place = (347, -20);
target = down;
type = TopGhost;
},
{
horizontal = 1;
place = (369, 235);
place = (369, 235);
type = Stem;
},
{
horizontal = 1;
place = (-9, 31);
place = (-9, 31);
type = Stem;
},
{
horizontal = 1;
place = (385, -20);
target = down;
type = TopGhost;
},
{
horizontal = 1;
place = (558, 46);
place = (558, 46);
type = Stem;
}
);
layerId = m01;
shapes = (
{
closed = 1;
nodes = (
(519,74,o),
(494,31,o),
(444,35,cs),
(396,40,o),
(347,81,o),
(368,200,cs),
(385,300,o),
(442,369,o),
(505,369,cs),
(571,369,o),
(563,273,o),
(559,257,cs),
(553,223,o),
(524,99,o),
(519,74,c)
);
},
{
closed = 1;
nodes = (
(288,613,o),
(54,458,o),
(40,178,cs),
(24,-127,o),
(269,-208,o),
(414,-208,cs),
(579,-208,o),
(650,-136,o),
(650,-136,c),
(642,-126,l),
(629,-137,o),
(543,-191,o),
(428,-182,cs),
(73,-153,o),
(133,197,o),
(133,197,c),
(158,400,o),
(301,576,o),
(534,558,cs),
(759,541,o),
(795,360,o),
(783,243,cs),
(766,70,o),
(664,22,o),
(622,22,cs),
(587,22,o),
(588,53,o),
(592,73,cs),
(600,109,o),
(655,372,o),
(655,372,c),
(585,373,l),
(585,373,o),
(580,355,o),
(579,347,c),
(578,347,o),
(559,385,o),
(491,385,cs),
(353,386,o),
(286,253,o),
(278,156,cs),
(271,74,o),
(310,-9,o),
(392,-9,cs),
(464,-9,o),
(505,35,o),
(515,50,c),
(510,15,o),
(531,-9,o),
(576,-9,cs),
(644,-9,o),
(792,25,o),
(817,240,cs),
(845,468,o),
(697,597,o),
(525,604,cs)
);
}
);
width = 875;
}
);
note = at;
unicode = 64;
},
{
glyphname = A;
kernLeft = A;
kernRight = A;
lastChange = "2022-10-06 06:46:29 +0000";
layers = (
{
hints = (
{
horizontal = 1;
place = (0, 226);
place = (0, 226);
type = Stem;
},
{
horizontal = 1;
place = (704, -20);
target = down;
type = TopGhost;
},
{
horizontal = 1;
place = (213, -20);
target = down;
type = TopGhost;
}
);
layerId = m01;
shapes = (
{
closed = 1;
nodes = (
(427,226,l),
(175,226,l),
(296,558,l),
(345,704,l),
(334,704,l),
(167,249,ls),
(82,17,o),
(55,14,o),
(17,13,c),
(17,0,l),
(240,0,l),
(240,13,l),
(101,9,o),
(145,133,o),
(172,213,c),
(431,213,l),
(466,126,ls),
(489,70,o),
(499,13,o),
(445,13,c),
(445,0,l),
(673,0,l),
(673,13,l),
(645,15,o),
(624,14,o),
(591,94,c),
(382,634,l),
(335,484,l)
);
}
);
width = 693;
}
);
note = A;
unicode = 65;
},
{
glyphname = B;
kernRight = B;
lastChange = "2022-10-05 12:03:36 +0000";
layers = (
{
hints = (
{
horizontal = 1;
place = (0, 21);
target = up;
type = BottomGhost;
},
{
horizontal = 1;
place = (350, -20);
target = down;
type = TopGhost;
},
{
horizontal = 1;
place = (704, -20);
target = down;
type = TopGhost;
},
{
place = (95, 103);
place = (95, 103);
type = Stem;
},
{
place = (429, 112);
place = (429, 112);
type = Stem;
},
{
horizontal = 1;
place = (361, -20);
target = down;
type = TopGhost;
},
{
place = (386, 108);
place = (386, 108);
type = Stem;
},
{
horizontal = 1;
place = (363, -20);
target = down;
type = TopGhost;
}
);
layerId = m01;
shapes = (
{
closed = 1;
nodes = (
(248,704,ls),
(248,704,o),
(248,688,o),
(248,687,cs),
(248,687,o),
(248,687,o),
(249,687,cs),
(308,671,o),
(386,677,o),
(386,534,cs),
(386,382,o),
(320,363,o),
(258,363,cs),
(198,363,l),
(198,704,l)
);
},
{
closed = 1;
nodes = (
(541,348,o),
(392,361,o),
(327,361,cs),
(347,361,o),
(494,377,o),
(494,533,cs),
(494,696,o),
(387,704,o),
(248,704,cs),
(37,704,l),
(37,695,l),
(81,695,o),
(95,648,o),
(95,586,cs),
(95,120,ls),
(95,52,o),
(80,9,o),
(37,9,c),
(37,0,l),
(237,0,ls),
(410,0,o),
(541,5,o),
(541,179,cs)
);
},
{
closed = 1;
nodes = (
(429,11,o),
(338,13,o),
(242,13,cs),
(198,13,l),
(198,350,l),
(258,350,ls),
(335,350,o),
(429,345,o),
(429,183,cs)
);
}
);
width = 595;
}
);
note = B;
unicode = 66;
},
{
glyphname = C;
kernLeft = C;
kernRight = C;
lastChange = "2022-10-05 12:06:04 +0000";
layers = (
{
hints = (
{
horizontal = 1;
place = (-9, 21);
target = up;
type = BottomGhost;
},
{
horizontal = 1;
place = (207, -20);
target = down;
type = TopGhost;
},
{
horizontal = 1;
place = (713, -20);
target = down;
type = TopGhost;
},
{
place = (40, 128);
place = (40, 128);
type = Stem;
}
);
layerId = m01;
shapes = (
{
closed = 1;
nodes = (
(603,207,l),
(590,55,o),
(468,0,o),
(387,0,cs),
(286,0,o),
(168,45,o),
(168,352,cs),
(168,635,o),
(259,697,o),
(357,703,c),
(357,713,l),
(407,713,l),
(407,704,l),
(486,700,o),
(576,654,o),
(603,497,c),
(616,497,l),
(628,652,l),
(567,701,o),
(504,712,o),
(407,713,c),
(357,713,l),
(161,704,o),
(40,570,o),
(40,352,cs),
(40,129,o),
(180,-9,o),
(387,-9,c),
(494,-9,o),
(554,4,o),
(628,53,c),
(616,207,l)
);
}
);
width = 671;
}
);
note = C;
unicode = 67;
},
{
glyphname = D;
kernRight = D;
lastChange = "2022-10-05 12:06:17 +0000";
layers = (
{
hints = (
{
horizontal = 1;
place = (0, 21);
target = up;
type = BottomGhost;
},
{
horizontal = 1;
place = (704, -20);
target = down;
type = TopGhost;
},
{
place = (112, 103);
place = (112, 103);
type = Stem;
},
{
place = (536, 120);
place = (536, 120);
type = Stem;
}
);
layerId = m01;
shapes = (
{
closed = 1;
nodes = (
(536,18,o),
(367,13,o),
(259,13,cs),
(215,13,l),
(215,704,l),
(265,704,l),
(265,684,l),
(267,684,ls),
(377,684,o),
(536,673,o),
(536,350,cs)
);
},
{
closed = 1;
nodes = (
(656,643,o),
(466,704,o),
(267,704,cs),
(44,704,l),
(44,691,l),
(88,691,o),
(112,648,o),
(112,586,cs),
(112,119,ls),
(112,51,o),
(87,13,o),
(44,13,c),
(44,0,l),
(259,0,ls),
(458,0,o),
(656,48,o),
(656,350,cs)
);
}
);
width = 716;
}
);
note = D;
unicode = 68;
},
{
glyphname = E;
lastChange = "2022-10-05 12:06:28 +0000";
layers = (
{
hints = (
{
horizontal = 1;
place = (0, 21);
target = up;
type = BottomGhost;
},
{
horizontal = 1;
place = (208, -20);
target = down;
type = TopGhost;
},
{
horizontal = 1;
place = (248, -20);
target = down;
type = TopGhost;
},
{
horizontal = 1;
place = (349, -20);
target = down;
type = TopGhost;
},
{
horizontal = 1;
place = (463, -20);
target = down;
type = TopGhost;
},
{
horizontal = 1;
place = (704, -20);
target = down;
type = TopGhost;
},
{
place = (85, 103);
place = (85, 103);
type = Stem;
},
{
horizontal = 1;
place = (362, -20);
target = down;
type = TopGhost;
}
);
layerId = m01;
shapes = (
{
closed = 1;
nodes = (
(521,208,l),
(500,8,o),
(323,13,o),
(234,13,cs),
(188,13,l),
(188,349,l),
(253,349,ls),
(278,349,o),
(386,348,o),
(391,248,c),
(404,248,l),
(404,463,l),
(391,463,l),
(386,362,o),
(280,362,o),
(253,362,cs),
(188,362,l),
(188,704,l),
(238,704,l),
(238,691,l),
(240,691,ls),
(321,691,o),
(496,689,o),
(508,524,c),
(521,524,l),
(521,704,l),
(31,704,l),
(31,691,l),
(75,691,o),
(85,659,o),
(85,597,cs),
(85,117,ls),
(85,49,o),
(73,13,o),
(31,13,c),
(31,0,l),
(534,0,l),
(534,208,l)
);
}
);
width = 596;
}
);
note = E;
unicode = 69;
},
{
glyphname = F;
kernRight = F;
lastChange = "2022-10-05 12:06:38 +0000";
layers = (
{
hints = (
{
horizontal = 1;
place = (0, 21);
target = up;
type = BottomGhost;
},
{
horizontal = 1;
place = (248, -20);
target = down;
type = TopGhost;
},
{
horizontal = 1;
place = (348, -20);
target = down;
type = TopGhost;
},
{
horizontal = 1;
place = (463, -20);
target = down;
type = TopGhost;
},
{
horizontal = 1;
place = (704, -20);
target = down;
type = TopGhost;
},
{
place = (83, 103);
place = (83, 103);
type = Stem;
},
{
horizontal = 1;
place = (362, -20);
target = down;
type = TopGhost;
}
);
layerId = m01;
shapes = (
{
closed = 1;
nodes = (
(29,704,l),
(29,691,l),
(73,691,o),
(83,659,o),
(83,597,cs),
(83,117,ls),
(83,49,o),
(72,13,o),
(29,13,c),
(29,0,l),
(262,0,l),
(262,13,l),
(217,13,o),
(186,23,o),
(186,121,cs),
(186,348,l),
(250,348,ls),
(276,348,o),
(384,350,o),
(393,248,c),
(406,248,l),
(406,463,l),
(393,463,l),
(384,361,o),
(277,362,o),
(250,362,cs),
(186,362,l),
(186,704,l),
(236,704,l),
(236,691,l),
(238,691,ls),
(317,691,o),
(493,696,o),
(511,524,c),
(524,524,l),
(524,704,l)
);
}
);
width = 539;
}
);
note = F;
unicode = 70;
},
{
glyphname = G;
kernLeft = G;
lastChange = "2022-10-05 12:07:27 +0000";
layers = (
{
hints = (
{
horizontal = 1;
place = (-9, 21);
target = up;
type = BottomGhost;
},
{
horizontal = 1;
place = (280, -20);
target = down;
type = TopGhost;
},
{
horizontal = 1;
place = (713, -20);
target = down;
type = TopGhost;
},
{
place = (39, 129);
place = (39, 129);
type = Stem;
},
{
place = (534, 89);
place = (534, 89);
type = Stem;
},
{
horizontal = 1;
place = (267, -20);
target = down;
type = TopGhost;
}
);
layerId = m01;
shapes = (
{
closed = 1;
nodes = (
(454,280,l),
(454,267,l),
(520,267,o),
(534,264,o),
(534,113,cs),
(534,30,o),
(486,4,o),
(369,4,cs),
(257,4,o),
(168,77,o),
(168,352,cs),
(168,627,o),
(225,704,o),
(339,704,c),
(339,704,o),
(339,713,o),
(339,713,c),
(389,713,l),
(389,704,l),
(497,698,o),
(578,651,o),
(592,494,c),
(613,494,l),
(622,656,l),
(563,695,o),
(499,711,o),
(390,713,c),
(339,713,l),
(123,713,o),
(39,551,o),
(39,352,cs),
(39,153,o),
(153,-9,o),
(369,-9,cs),
(476,-9,o),
(561,9,o),
(623,33,c),
(623,257,o),
(631,267,o),
(689,267,c),
(689,280,l)
);
}
);
width = 721;
}
);
note = G;
unicode = 71;
},
{
glyphname = H;
lastChange = "2022-10-05 12:07:41 +0000";
layers = (
{
hints = (
{
horizontal = 1;
place = (0, 21);
target = up;
type = BottomGhost;
},
{
horizontal = 1;
place = (346, -20);
target = down;
type = TopGhost;
},
{
horizontal = 1;
place = (704, -20);
target = down;
type = TopGhost;
},
{
place = (71, 99);
place = (71, 99);
type = Stem;
},
{
place = (444, 99);
place = (444, 99);
type = Stem;
},
{
horizontal = 1;
place = (329, -20);
target = down;
type = TopGhost;
}
);
layerId = m01;
shapes = (
{
closed = 1;
nodes = (
(543,662,o),
(545,682,o),
(592,691,c),
(592,704,l),
(415,704,l),
(415,691,l),
(443,682,o),
(444,662,o),
(444,565,cs),
(444,346,l),
(394,346,l),
(170,346,l),
(170,565,ls),
(170,662,o),
(171,682,o),
(199,691,c),
(199,704,l),
(21,704,l),
(21,691,l),
(69,682,o),
(71,655,o),
(71,565,cs),
(71,136,ls),
(71,40,o),
(74,27,o),
(21,13,c),
(21,0,l),
(199,0,l),
(199,13,l),
(171,23,o),
(170,34,o),
(170,136,cs),
(170,329,l),
(394,329,l),
(394,346,l),
(444,346,l),
(444,153,ls),
(444,64,o),
(442,23,o),
(415,13,c),
(415,0,l),
(592,0,l),
(592,13,l),
(540,27,o),
(543,54,o),
(543,136,cs),
(543,565,ls)
);
}
);
width = 601;
}
);
note = H;
unicode = 72;
},
{
glyphname = I;
lastChange = "2022-10-05 10:35:42 +0000";
layers = (
{
hints = (
{
horizontal = 1;
place = (0, 21);
target = up;
type = BottomGhost;
},
{
horizontal = 1;
place = (704, -20);
target = down;
type = TopGhost;
},
{
place = (122, 103);
place = (122, 103);
type = Stem;
}
);
layerId = m01;
shapes = (
{
closed = 1;
nodes = (
(52,704,l),
(52,691,l),
(72,691,o),
(88,687,o),
(100,678,c),
(100,678,o),
(121,704,o),
(121,704,c),
(121,704,o),
(148,704,o),
(148,704,c),
(148,704,o),
(113,660,o),
(113,660,c),
(119,648,o),
(122,633,o),
(122,612,cs),
(122,107,ls),
(122,39,o),
(95,13,o),
(52,13,c),
(52,0,l),
(295,0,l),
(295,13,l),
(253,13,o),
(225,39,o),
(225,107,cs),
(225,612,ls),
(225,674,o),
(252,691,o),
(295,691,c),
(295,704,l)
);
}
);
width = 344;
}
);
note = I;
unicode = 73;
},
{
glyphname = J;
kernRight = J;
lastChange = "2022-10-05 10:37:07 +0000";
layers = (
{
hints = (
{
horizontal = 1;
place = (-167, 21);
target = up;
type = BottomGhost;
},
{
horizontal = 1;
place = (704, -20);
target = down;
type = TopGhost;
},
{
place = (168, 103);
place = (168, 103);
type = Stem;
}
);
layerId = m01;
shapes = (
{
closed = 1;
nodes = (
(172,704,l),
(150,704,l),
(94,704,l),
(94,692,l),
(114,692,o),
(128,690,o),
(139,684,c),
(139,684,o),
(150,704,o),
(150,704,c),
(150,704,o),
(172,704,o),
(172,704,c),
(172,704,o),
(153,669,o),
(153,669,c),
(167,643,o),
(168,588,o),
(168,477,cs),
(168,169,ls),
(168,-48,o),
(86,-124,o),
(0,-155,c),
(4,-167,l),
(167,-143,o),
(271,-49,o),
(271,182,cs),
(271,599,ls),
(271,664,o),
(306,692,o),
(351,692,c),
(351,704,l)
);
}
);
width = 395;
}
);
note = J;
unicode = 74;
},
{
glyphname = K;
kernRight = K;
layers = (
{
hints = (
{
horizontal = 1;
place = (0, 21);
target = up;
type = BottomGhost;
},
{
horizontal = 1;
place = (704, -20);
target = down;
type = TopGhost;
},
{
place = (105, 102);
place = (105, 102);
type = Stem;
}
);
layerId = m01;
shapes = (
{
closed = 1;
nodes = (
(713,13,l),
(699,13,o),
(627,10,o),
(581,69,c),
(581,69,o),
(458,234,o),
(341,390,c),
(557,667,o),
(612,691,o),
(685,691,c),
(685,704,l),
(410,704,l),
(410,691,l),
(559,689,o),
(443,554,o),
(386,487,cs),
(260,334,l),
(260,334,o),
(314,263,o),
(371,181,cs),
(477,30,o),
(500,0,o),
(606,0,cs),
(713,0,l)
);
},
{
closed = 1;
nodes = (
(41,704,l),
(41,691,l),
(84,691,o),
(105,674,o),
(105,612,cs),
(105,105,ls),
(105,37,o),
(83,13,o),
(41,13,c),
(41,0,l),
(274,0,l),
(274,13,l),
(231,13,o),
(207,37,o),
(207,105,cs),
(207,612,ls),
(207,685,o),
(241,691,o),
(285,691,c),
(285,704,l)
);
}
);
width = 727;
}
);
note = K;
unicode = 75;
},
{
glyphname = L;
kernRight = L;
lastChange = "2022-10-05 12:08:02 +0000";
layers = (
{
hints = (
{
horizontal = 1;
place = (0, 21);
target = up;
type = BottomGhost;
},
{
horizontal = 1;
place = (217, -20);
target = down;
type = TopGhost;
},
{
horizontal = 1;
place = (704, -20);
target = down;
type = TopGhost;
},
{
place = (107, 101);
place = (107, 101);
type = Stem;
}
);
layerId = m01;
shapes = (
{
closed = 1;
nodes = (
(538,217,l),
(521,13,o),
(366,13,o),
(259,13,cs),
(258,13,l),
(258,0,l),
(208,0,l),
(208,602,ls),
(208,674,o),
(239,691,o),
(282,691,c),
(282,704,l),
(44,704,l),
(44,691,l),
(87,691,o),
(107,668,o),
(107,607,cs),
(107,119,ls),
(107,51,o),
(95,13,o),
(52,13,c),
(52,0,l),
(551,0,l),
(551,217,l)
);
}
);
width = 610;
}
);
note = L;
unicode = 76;
},
{
glyphname = M;
lastChange = "2022-10-06 06:29:42 +0000";
layers = (
{
hints = (
{
horizontal = 1;
place = (0, 21);
target = up;
type = BottomGhost;
},
{
horizontal = 1;
place = (704, -20);
target = down;
type = TopGhost;
},
{
place = (698, 100);
place = (698, 100);
type = Stem;
},
{
horizontal = 1;
place = (-9, 21);
target = up;
type = BottomGhost;
}
);
layerId = m01;
shapes = (
{
closed = 1;
nodes = (
(798,603,ls),
(798,671,o),
(832,691,o),
(875,691,c),
(875,704,l),
(698,704,l),
(448,-9,l),
(444,-9,l),
(421,41,l),
(475,191,l),
(239,704,l),
(40,704,l),
(40,691,l),
(64,689,o),
(114,690,o),
(152,625,c),
(152,249,ls),
(152,136,o),
(134,13,o),
(10,13,c),
(10,0,l),
(293,0,l),
(293,13,l),
(182,13,o),
(165,133,o),
(165,249,cs),
(165,603,l),
(399,89,l),
(444,-9,l),
(456,-9,l),
(698,666,l),
(698,117,ls),
(698,36,o),
(668,13,o),
(626,13,c),
(626,0,l),
(882,0,l),
(882,13,l),
(839,13,o),
(798,36,o),
(798,117,cs)
);
}
);
width = 902;
}
);
note = M;
unicode = 77;
},
{
glyphname = N;
kernRight = N;
lastChange = "2022-07-31 07:29:26 +0000";
layers = (
{
hints = (
{
horizontal = 1;
place = (0, 21);
target = up;
type = BottomGhost;
},
{
horizontal = 1;
place = (704, -20);
target = down;
type = TopGhost;
}
);
layerId = m01;
shapes = (
{
closed = 1;
nodes = (
(496,704,l),
(496,692,l),
(628,692,o),
(627,548,o),
(627,455,cs),
(627,146,l),
(580,207,l),
(195,704,l),
(10,704,l),
(10,692,l),
(36,690,o),
(66,697,o),
(129,616,cs),
(170,563,l),
(170,250,ls),
(170,160,o),
(170,13,o),
(25,13,c),
(25,0,l),
(314,0,l),
(314,13,l),
(183,13,o),
(183,162,o),
(183,250,cs),
(183,548,l),
(580,36,l),
(580,207,l),
(627,146,l),
(627,0,l),
(640,0,l),
(640,455,ls),
(640,548,o),
(637,692,o),
(782,692,c),
(782,704,l)
);
}
);
width = 807;
}
);
note = N;
unicode = 78;
},
{
glyphname = O;
kernLeft = O;
kernRight = O;
lastChange = "2022-10-05 12:08:23 +0000";
layers = (
{
hints = (
{
horizontal = 1;
place = (-9, 21);
target = up;
type = BottomGhost;
},
{
horizontal = 1;
place = (713, -20);
target = down;
type = TopGhost;
},
{
place = (41, 115);
place = (41, 115);
type = Stem;
},
{
place = (575, 116);
place = (575, 116);
type = Stem;
}
);
layerId = m01;
shapes = (
{
closed = 1;
nodes = (
(574,72,o),
(484,0,o),
(366,0,cs),
(247,0,o),
(156,72,o),
(156,347,cs),
(156,610,o),
(220,697,o),
(331,704,c),
(331,713,l),
(381,713,l),
(381,704,l),
(492,697,o),
(574,610,o),
(574,347,cs)
);
},
{
closed = 1;
nodes = (
(691,541,o),
(592,706,o),
(381,713,c),
(331,713,l),
(121,705,o),
(41,541,o),
(41,347,cs),
(41,148,o),
(146,-9,o),
(366,-9,cs),
(586,-9,o),
(691,148,o),
(691,347,cs)
);
}
);
width = 738;
}
);
note = O;
unicode = 79;
},
{
glyphname = P;
kernRight = P;
lastChange = "2022-10-05 12:08:38 +0000";
layers = (
{
hints = (
{
horizontal = 1;
place = (0, 21);
target = up;
type = BottomGhost;
},
{
horizontal = 1;
place = (301, -20);
target = down;
type = TopGhost;
},
{
horizontal = 1;
place = (704, -20);
target = down;
type = TopGhost;
},
{
place = (97, 99);
place = (97, 99);
type = Stem;
},
{
place = (436, 109);
place = (436, 109);
type = Stem;
},
{
horizontal = 1;
place = (314, -20);
target = down;
type = TopGhost;
}
);
layerId = m01;
shapes = (
{
closed = 1;
nodes = (
(196,314,l),
(196,704,l),
(246,704,l),
(246,691,l),
(247,691,ls),
(364,691,o),
(436,692,o),
(436,502,cs),
(436,317,o),
(336,314,o),
(214,314,cs)
);
},
{
closed = 1;
nodes = (
(196,301,l),
(214,301,ls),
(413,301,o),
(545,325,o),
(545,502,cs),
(545,680,o),
(446,704,o),
(247,704,cs),
(33,704,l),
(33,691,l),
(83,691,o),
(97,666,o),
(97,597,cs),
(97,134,ls),
(97,39,o),
(80,13,o),
(31,13,c),
(31,0,l),
(295,0,l),
(295,13,l),
(232,13,o),
(196,17,o),
(196,137,cs)
);
}
);
width = 580;
}
);
note = P;
unicode = 80;
},
{
glyphname = Q;
kernLeft = Q;
kernRight = Q;
lastChange = "2022-10-05 12:10:22 +0000";
layers = (
{
hints = (
{
horizontal = 1;
place = (-9, 21);
target = up;
type = BottomGhost;
},
{
horizontal = 1;
place = (713, -20);
target = down;
type = TopGhost;
},
{
place = (41, 115);
place = (41, 115);
type = Stem;
},
{
place = (575, 116);
place = (575, 116);
type = Stem;
}
);
layerId = m01;
shapes = (
{
closed = 1;
nodes = (
(575,72,o),
(484,4,o),
(366,4,cs),
(247,4,o),
(156,72,o),
(156,347,cs),
(156,607,o),
(228,696,o),
(338,704,c),
(338,713,l),
(388,713,l),
(388,704,l),
(498,697,o),
(575,608,o),
(575,347,cs)
);
},
{
closed = 1;
nodes = (
(691,540,o),
(596,704,o),
(388,713,c),
(338,713,l),
(130,704,o),
(41,540,o),
(41,347,cs),
(41,148,o),
(146,-9,o),
(366,-9,cs),
(586,-9,o),
(691,148,o),
(691,347,cs)
);
},
{
closed = 1;
nodes = (
(408,-75,l),
(408,-75,o),
(241,-4,o),
(95,-125,c),
(105,-136,l),
(128,-120,o),
(191,-84,o),
(254,-112,cs),
(331,-146,ls),
(492,-217,o),
(561,-237,o),
(636,-175,cs),
(711,-113,l),
(702,-103,l),
(677,-121,o),
(634,-154,o),
(559,-128,cs)
);
}
);
width = 734;
}
);
note = Q;
unicode = 81;
},
{
glyphname = R;
kernRight = R;
lastChange = "2022-10-05 12:10:41 +0000";
layers = (
{
hints = (
{
horizontal = 1;
place = (0, 21);
target = up;
type = BottomGhost;
},
{
horizontal = 1;
place = (323, -20);
target = down;
type = TopGhost;
},
{
horizontal = 1;
place = (704, -20);
target = down;
type = TopGhost;
},
{
place = (91, 98);
place = (91, 98);
type = Stem;
},
{
place = (419, 110);
place = (419, 110);
type = Stem;
},
{
horizontal = 1;
place = (336, -20);
target = down;
type = TopGhost;
}
);
layerId = m01;
shapes = (
{
closed = 1;
nodes = (
(419,335,o),
(333,336,o),
(220,336,cs),
(189,336,l),
(189,704,l),
(239,704,l),
(239,691,l),
(240,691,ls),
(313,691,o),
(419,695,o),
(419,513,cs)
);
},
{
closed = 1;
nodes = (
(637,13,l),
(611,15,o),
(548,25,o),
(530,101,cs),
(478,320,o),
(409,327,o),
(343,330,c),
(451,337,o),
(529,377,o),
(529,513,cs),
(529,680,o),
(438,704,o),
(239,704,cs),
(29,704,l),
(29,691,l),
(73,691,o),
(91,677,o),
(91,615,cs),
(91,117,ls),
(91,33,o),
(72,13,o),
(29,13,c),
(29,0,l),
(253,0,l),
(253,13,l),
(211,13,o),
(189,35,o),
(189,104,cs),
(189,323,l),
(236,323,ls),
(262,323,o),
(363,323,o),
(391,218,cs),
(448,1,o),
(433,0,o),
(561,0,cs),
(637,0,l)
);
}
);
width = 643;
}
);
note = R;
unicode = 82;
},
{
glyphname = S;
lastChange = "2022-10-05 12:12:22 +0000";
layers = (
{
hints = (
{
horizontal = 1;
place = (-9, 21);
target = up;
type = BottomGhost;
},
{
horizontal = 1;
place = (239, -20);
target = down;
type = TopGhost;
},
{
horizontal = 1;
place = (713, -20);
target = down;
type = TopGhost;
}
);
layerId = m01;
shapes = (
{
closed = 1;
nodes = (
(531,155,o),
(509,266,o),
(375,354,cs),
(210,463,ls),
(60,562,o),
(126,704,o),
(234,704,c),
(234,713,l),
(284,713,l),
(284,703,l),
(429,692,o),
(455,591,o),
(464,498,c),
(478,498,l),
(478,666,l),
(478,666,o),
(402,705,o),
(284,713,c),
(234,713,l),
(95,713,o),
(61,635,o),
(61,635,c),
(-16,517,o),
(74,425,o),
(170,363,cs),
(336,256,l),
(453,173,o),
(433,0,o),
(281,0,cs),
(111,0,o),
(66,117,o),
(55,239,c),
(43,239,l),
(43,47,l),
(43,47,o),
(118,-9,o),
(281,-9,cs),
(436,-9,o),
(479,73,o),
(479,73,c)
);
}
);
width = 564;
}
);
note = S;
unicode = 83;
},
{
glyphname = T;
kernLeft = T;
kernRight = T;
lastChange = "2022-10-05 12:12:33 +0000";
layers = (
{
hints = (
{
horizontal = 1;
place = (0, 21);
target = up;
type = BottomGhost;
},
{
horizontal = 1;
place = (704, -20);
target = down;
type = TopGhost;
},
{
place = (275, 99);
place = (275, 99);
type = Stem;
}
);
layerId = m01;
shapes = (
{
closed = 1;
nodes = (
(424,704,l),
(374,704,l),
(19,704,l),
(19,528,l),
(32,528,l),
(36,689,o),
(185,691,o),
(216,691,cs),
(275,691,l),
(275,97,ls),
(275,31,o),
(245,13,o),
(203,13,c),
(203,0,l),
(447,0,l),
(447,13,l),
(405,13,o),
(374,31,o),
(374,97,cs),
(374,704,l),
(424,704,l),
(424,691,l),
(429,691,ls),
(443,691,o),
(614,689,o),
(618,528,c),
(631,528,l),
(631,704,l)
);
}
);
width = 652;
}
);
note = T;
unicode = 84;
},
{
glyphname = U;
kernLeft = U;
kernRight = U;
lastChange = "2022-10-05 12:15:21 +0000";
layers = (
{
hints = (
{
horizontal = 1;
place = (-9, 45);
place = (-9, 45);
type = Stem;
},
{
horizontal = 1;
place = (704, -20);
target = down;
type = TopGhost;
},
{
place = (90, 99);
place = (90, 99);
type = Stem;
}
);
layerId = m01;
shapes = (
{
closed = 1;
nodes = (
(445,-9,o),
(565,57,o),
(565,236,cs),
(565,508,ls),
(565,602,o),
(562,691,o),
(693,691,c),
(693,704,l),
(433,704,l),
(433,691,l),
(550,691,o),
(552,602,o),
(552,508,cs),
(552,236,ls),
(552,107,o),
(473,36,o),
(371,36,cs),
(308,36,o),
(271,54,o),
(239,100,c),
(239,5,l),
(189,28,l),
(189,28,o),
(190,196,o),
(189,219,cs),
(189,223,o),
(189,227,o),
(189,231,cs),
(189,603,ls),
(189,682,o),
(225,691,o),
(268,691,c),
(268,704,l),
(19,704,l),
(19,691,l),
(63,691,o),
(90,672,o),
(90,604,cs),
(90,240,ls),
(90,139,o),
(129,68,o),
(189,28,c),
(239,5,l),
(260,-4,o),
(286,-9,o),
(322,-9,cs)
);
}
);
width = 716;
}
);
note = U;
unicode = 85;
},
{
glyphname = V;
kernLeft = V;
kernRight = V;
lastChange = "2022-10-06 06:32:28 +0000";
layers = (
{
hints = (
{
horizontal = 1;
place = (0, 21);
target = up;
type = BottomGhost;
},
{
horizontal = 1;
place = (704, -20);
target = down;
type = TopGhost;
}
);
layerId = m01;
shapes = (
{
closed = 1;
nodes = (
(471,704,l),
(471,691,l),
(615,691,o),
(556,547,o),
(525,454,c),
(354,0,l),
(351,0,l),
(328,59,l),
(380,185,l),
(223,602,ls),
(220,609,o),
(200,691,o),
(283,691,c),
(283,704,l),
(14,704,l),
(14,691,l),
(48,691,o),
(80,689,o),
(109,618,c),
(109,618,o),
(267,213,o),
(328,59,c),
(351,0,l),
(365,0,l),
(537,452,ls),
(628,691,o),
(653,691,o),
(719,691,c),
(719,704,l)
);
}
);
width = 743;
}
);
note = V;
unicode = 86;
},
{
glyphname = W;
kernLeft = W;
kernRight = W;
lastChange = "2022-10-06 06:45:03 +0000";
layers = (
{
hints = (
{
horizontal = 1;
place = (0, 21);
target = up;
type = BottomGhost;
},
{
horizontal = 1;
place = (704, -20);
target = down;
type = TopGhost;
}
);
layerId = m01;
shapes = (
{
closed = 1;
nodes = (
(785,704,l),
(785,691,l),
(925,691,o),
(870,551,o),
(841,455,c),
(681,0,l),
(676,0,l),
(649,70,l),
(702,205,l),
(564,605,ls),
(562,612,o),
(535,691,o),
(624,691,c),
(624,704,l),
(355,704,l),
(355,691,l),
(389,691,o),
(426,686,o),
(451,613,cs),
(503,464,l),
(347,0,l),
(344,0,l),
(317,70,l),
(369,204,l),
(221,605,ls),
(218,612,o),
(194,691,o),
(282,691,c),
(282,704,l),
(12,704,l),
(12,691,l),
(46,691,o),
(80,685,o),
(108,613,cs),
(175,439,l),
(317,70,l),
(344,0,l),
(359,0,l),
(510,445,l),
(649,70,l),
(676,0,l),
(690,0,l),
(854,452,ls),
(932,668,o),
(966,691,o),
(1039,691,c),
(1039,704,l)
);
}
);
width = 1056;
}
);
note = W;
unicode = 87;
},
{
glyphname = X;
kernLeft = X;
lastChange = "2022-10-06 06:46:01 +0000";
layers = (
{
hints = (
{
horizontal = 1;
place = (0, 21);
target = up;
type = BottomGhost;
},
{
horizontal = 1;
place = (704, -20);
target = down;
type = TopGhost;
}
);
layerId = m01;
shapes = (
{
closed = 1;
nodes = (
(593,101,o),
(448,328,o),
(400,397,c),
(453,476,ls),
(598,692,o),
(645,691,o),
(706,691,c),
(706,704,l),
(428,704,l),
(428,691,l),
(562,691,o),
(496,584,o),
(442,486,c),
(391,410,l),
(334,321,l),
(288,390,l),
(348,481,l),
(286,575,ls),
(228,662,o),
(258,691,o),
(297,691,c),
(297,704,l),
(22,704,l),
(22,691,l),
(58,691,o),
(86,687,o),
(145,601,c),
(145,601,o),
(204,513,o),
(266,420,cs),
(267,419,o),
(288,390,o),
(288,390,cs),
(288,390,o),
(334,321,o),
(334,321,c),
(277,237,ls),
(123,10,o),
(83,12,o),
(31,12,c),
(31,0,l),
(289,0,l),
(289,12,l),
(157,12,o),
(227,110,o),
(288,226,c),
(343,308,l),
(458,125,ls),
(475,98,o),
(524,21,o),
(456,12,c),
(456,0,l),
(713,0,l),
(713,12,l),
(673,14,o),
(647,18,o),
(593,101,c)
);
},
{
closed = 0;
nodes = (
(288,390,l)
);
}
);
width = 731;
}
);
note = X;
unicode = 88;
},
{
glyphname = Y;
kernLeft = Y;
kernRight = Y;
lastChange = "2022-07-31 07:32:25 +0000";
layers = (
{
hints = (
{
horizontal = 1;
place = (0, 21);
target = up;
type = BottomGhost;
},
{
horizontal = 1;
place = (704, -20);
target = down;
type = TopGhost;
},
{
place = (302, 94);
place = (302, 94);
type = Stem;
}
);
layerId = m01;
shapes = (
{
closed = 1;
nodes = (
(421,704,l),
(421,691,l),
(556,691,o),
(500,555,o),
(466,486,cs),
(418,387,l),
(425,373,l),
(396,314,l),
(243,579,ls),
(176,694,o),
(238,692,o),
(266,692,c),
(266,704,l),
(9,704,l),
(9,692,l),
(42,690,o),
(69,690,o),
(114,614,c),
(114,614,o),
(155,548,o),
(302,288,c),
(302,112,ls),
(302,31,o),
(269,13,o),
(227,13,c),
(227,0,l),
(471,0,l),
(471,13,l),
(429,13,o),
(396,31,o),
(396,112,cs),
(396,314,l),
(425,373,l),
(472,471,ls),
(579,693,o),
(635,691,o),
(678,691,c),
(678,704,l)
);
}
);
width = 692;
}
);
note = Y;
unicode = 89;
},
{
glyphname = Z;
lastChange = "2022-10-05 12:15:49 +0000";
layers = (
{
hints = (
{
horizontal = 1;
place = (0, 21);
target = up;
type = BottomGhost;
},
{
horizontal = 1;
place = (233, -20);
target = down;
type = TopGhost;
},
{
horizontal = 1;
place = (704, -20);
target = down;
type = TopGhost;
}
);
layerId = m01;
shapes = (
{
closed = 1;
nodes = (
(159,13,l),
(515,704,l),
(361,704,l),
(58,704,l),
(40,502,l),
(58,502,l),
(86,645,o),
(152,691,o),
(338,691,cs),
(354,691,l),
(361,704,l),
(411,704,l),
(24,0,l),
(486,0,l),
(511,233,l),
(494,233,l),
(468,93,o),
(392,13,o),
(182,13,cs)
);
}
);
width = 550;
}
);
note = Z;
unicode = 90;
},
{
glyphname = bracketleft;
layers = (
{
hints = (
{
horizontal = 1;
place = (-146, 21);
target = up;
type = BottomGhost;
},
{
horizontal = 1;
place = (735, -20);
target = down;
type = TopGhost;
},
{
place = (113, 74);
place = (113, 74);
type = Stem;
}
);
layerId = m01;
shapes = (
{
closed = 1;
nodes = (
(113,735,l),
(113,-146,l),
(293,-146,l),
(293,-133,l),
(241,-133,o),
(187,-130,o),
(187,-57,cs),
(187,636,ls),
(187,721,o),
(239,722,o),
(293,722,c),
(293,735,l)
);
}
);
width = 308;
}
);
note = bracketleft;
unicode = 91;
},
{
glyphname = backslash;
layers = (
{
hints = (
{
horizontal = 1;
place = (-17, 21);
target = up;
type = BottomGhost;
},
{
horizontal = 1;
place = (733, -20);
target = down;
type = TopGhost;
}
);
layerId = m01;
shapes = (
{
closed = 1;
nodes = (
(324,-17,l),
(393,-17,l),
(84,733,l),
(15,733,l)
);
}
);
width = 415;
}
);
note = backslash;
unicode = 92;
},
{
glyphname = bracketright;
layers = (
{
hints = (
{
horizontal = 1;
place = (-146, 21);
target = up;
type = BottomGhost;
},
{
horizontal = 1;
place = (735, -20);
target = down;
type = TopGhost;
},
{
place = (117, 74);
place = (117, 74);
type = Stem;
}
);
layerId = m01;
shapes = (
{
closed = 1;
nodes = (
(11,735,l),
(11,722,l),
(65,722,o),
(117,721,o),
(117,636,cs),
(117,-57,ls),
(117,-130,o),
(63,-133,o),
(11,-133,c),
(11,-146,l),
(191,-146,l),
(191,735,l)
);
}
);
width = 309;
}
);
note = bracketright;
unicode = 93;
},
{
glyphname = asciicircum;
layers = (
{
hints = (
{
horizontal = 1;
place = (376, 21);
target = up;
type = BottomGhost;
},
{
horizontal = 1;
place = (704, -20);
target = down;
type = TopGhost;
}
);
layerId = m01;
shapes = (
{
closed = 1;
nodes = (
(290,704,l),
(267,704,l),
(89,376,l),
(119,376,l),
(278,582,l),
(440,376,l),
(470,376,l)
);
}
);
width = 564;
}
);
note = asciicircum;
unicode = 94;
},
{
glyphname = underscore;
layers = (
{
hints = (
{
horizontal = 1;
place = (-122, 46);
place = (-122, 46);
type = Stem;
}
);
layerId = m01;
shapes = (
{
closed = 1;
nodes = (
(0,-76,l),
(0,-122,l),
(560,-122,l),
(560,-76,l)
);
}
);
width = 560;
}
);
note = underscore;
unicode = 95;
},
{
glyphname = grave;
layers = (
{
hints = (
{
horizontal = 1;
place = (557, 21);
target = up;
type = BottomGhost;
},
{
horizontal = 1;
place = (720, -20);
target = down;
type = TopGhost;
}
);
layerId = m01;
shapes = (
{
closed = 1;
nodes = (
(85,720,l),
(4,695,l),
(239,557,l),
(262,557,l)
);
}
);
width = 326;
}
);
note = grave;
unicode = 96;
},
{
glyphname = a;
kernLeft = a;
kernRight = a;
lastChange = "2022-10-05 12:03:24 +0000";
layers = (
{
hints = (
{
horizontal = 1;
place = (-9, 45);
place = (-9, 45);
type = Stem;
},
{
horizontal = 1;
place = (471, -20);
target = down;
type = TopGhost;
},
{
place = (41, 89);
place = (41, 89);
type = Stem;
},
{
place = (297, 90);
place = (297, 90);
type = Stem;
}
);
layerId = m01;
shapes = (
{
closed = 1;
nodes = (
(297,264,o),
(297,99,o),
(297,98,c),
(287,74,o),
(262,36,o),
(209,36,cs),
(148,36,o),
(130,86,o),
(130,115,cs),
(130,138,o),
(138,153,o),
(154,163,cs),
(173,175,o),
(204,182,o),
(248,192,cs),
(249,192,o),
(266,197,o),
(267,197,cs),
(267,197,o),
(267,256,o),
(267,256,cs),
(267,256,o),
(289,262,o),
(297,264,c)
);
},
{
closed = 1;
nodes = (
(386,38,o),
(387,101,o),
(387,101,c),
(387,271,ls),
(387,390,o),
(357,471,o),
(248,471,c),
(248,471,o),
(199,474,o),
(156,452,cs),
(102,423,o),
(85,393,o),
(78,378,cs),
(70,364,o),
(72,344,o),
(83,329,cs),
(98,308,o),
(127,304,o),
(147,320,cs),
(168,335,o),
(172,365,o),
(157,385,cs),
(149,396,o),
(138,401,o),
(126,403,cs),
(120,404,o),
(126,423,o),
(165,442,cs),
(245,479,o),
(297,421,o),
(297,318,cs),
(297,264,l),
(267,256,l),
(220,243,o),
(164,228,o),
(133,214,cs),
(72,187,o),
(41,154,o),
(41,94,cs),
(41,-9,o),
(155,-9,o),
(155,-9,c),
(225,-9,o),
(283,50,o),
(297,98,c),
(303,12,o),
(382,-9,o),
(382,-9,c),
(434,-9,o),
(468,29,o),
(474,59,c),
(462,64,l),
(455,38,o),
(432,38,o),
(432,38,c)
);
}
);
width = 485;
}
);
note = a;
unicode = 97;
},
{
glyphname = b;
kernRight = b;
lastChange = "2022-10-05 12:17:11 +0000";
layers = (
{
hints = (
{
horizontal = 1;
place = (-9, 21);
target = up;
type = BottomGhost;
},
{
horizontal = 1;
place = (438, 33);
place = (438, 33);
type = Stem;
},
{
horizontal = 1;
place = (738, -20);
target = down;
type = TopGhost;
},
{
place = (65, 87);
place = (65, 87);
type = Stem;
},
{
place = (406, 105);
place = (406, 105);
type = Stem;
}
);
layerId = m01;
shapes = (
{
closed = 1;
nodes = (
(406,54,o),
(341,4,o),
(274,4,cs),
(207,4,o),
(152,53,o),
(152,157,cs),
(152,308,ls),
(152,323,o),
(152,391,o),
(152,391,c),
(152,391,o),
(192,443,o),
(192,443,c),
(192,420,l),
(197,423,o),
(201,425,o),
(206,427,cs),
(220,434,o),
(239,438,o),
(267,438,cs),
(354,438,o),
(406,370,o),
(406,213,cs)
);
},
{
closed = 1;
nodes = (
(511,364,o),
(434,471,o),
(301,471,cs),
(276,471,o),
(234,464,o),
(208,451,cs),
(201,448,o),
(199,447,o),
(192,443,c),
(152,391,l),
(152,738,l),
(14,711,l),
(14,698,l),
(56,690,o),
(65,676,o),
(65,642,cs),
(65,5,ls),
(65,-11,o),
(110,13,o),
(137,41,c),
(170,10,o),
(218,-9,o),
(277,-9,cs),
(410,-9,o),
(511,73,o),
(511,227,cs)
);
}
);
width = 550;
}
);
note = b;
unicode = 98;
},
{
glyphname = c;
kernLeft = c;
kernRight = c;
lastChange = "2022-10-05 12:17:30 +0000";
layers = (
{
hints = (
{
horizontal = 1;
place = (-9, 21);
target = up;
type = BottomGhost;
},
{
horizontal = 1;
place = (471, -20);
target = down;
type = TopGhost;
},
{
place = (45, 93);
place = (45, 93);
type = Stem;
}
);
layerId = m01;
shapes = (
{
closed = 1;
nodes = (
(437,128,l),
(419,87,o),
(357,40,o),
(284,46,cs),
(213,53,o),
(138,108,o),
(138,241,cs),
(138,398,o),
(199,445,o),
(248,456,c),
(248,471,l),
(288,471,l),
(288,458,l),
(355,458,o),
(382,430,o),
(373,428,cs),
(363,427,o),
(352,419,o),
(345,407,cs),
(332,386,o),
(339,357,o),
(362,344,cs),
(383,331,o),
(413,340,o),
(426,361,cs),
(435,377,o),
(433,396,o),
(425,410,cs),
(416,426,o),
(386,471,o),
(288,471,c),
(248,471,l),
(110,460,o),
(45,347,o),
(45,230,cs),
(45,83,o),
(151,-9,o),
(263,-9,cs),
(386,-9,o),
(437,73,o),
(448,123,c)
);
}
);
width = 481;
}
);
note = c;
unicode = 99;
},
{
glyphname = d;
kernLeft = d;
kernRight = d;
lastChange = "2022-10-05 12:17:41 +0000";
layers = (
{
hints = (
{
horizontal = 1;
place = (-9, 29);
place = (-9, 29);
type = Stem;
},
{
horizontal = 1;
place = (471, -20);
target = down;
type = TopGhost;
},
{
horizontal = 1;
place = (738, -20);
target = down;
type = TopGhost;
},
{
place = (37, 104);
place = (37, 104);
type = Stem;
},
{
place = (395, 86);
place = (395, 86);
type = Stem;
}
);
layerId = m01;
shapes = (
{
closed = 1;
nodes = (
(395,138,ls),
(395,68,o),
(345,20,o),
(279,20,cs),
(192,20,o),
(141,92,o),
(141,251,cs),
(141,411,o),
(208,460,o),
(274,458,cs),
(309,457,o),
(338,452,o),
(355,443,c),
(395,313,l)
);
},
{
closed = 1;
nodes = (
(532,23,l),
(492,23,o),
(481,29,o),
(481,78,cs),
(481,738,l),
(344,711,l),
(344,698,l),
(385,690,o),
(395,677,o),
(395,642,cs),
(395,313,l),
(355,443,l),
(355,463,l),
(338,468,o),
(308,470,o),
(272,471,cs),
(138,475,o),
(37,392,o),
(37,237,cs),
(37,97,o),
(114,-9,o),
(248,-9,cs),
(297,-9,o),
(364,14,o),
(395,65,c),
(395,10,l),
(395,10,o),
(395,-13,o),
(423,-8,cs),
(532,10,l)
);
}
);
width = 545;
}
);
note = d;
unicode = 100;
},
{
glyphname = e;
kernLeft = e;
kernRight = e;
lastChange = "2022-10-05 12:17:53 +0000";
layers = (
{
hints = (
{
horizontal = 1;
place = (-9, 21);
target = up;
type = BottomGhost;
},
{
horizontal = 1;
place = (240, 231);
place = (240, 231);
type = Stem;
},
{
place = (36, 94);
place = (36, 94);
type = Stem;
},
{
place = (364, 86);
place = (364, 86);
type = Stem;
},
{
horizontal = 1;
place = (253, -20);
target = down;
type = TopGhost;
}
);
layerId = m01;
shapes = (
{
closed = 1;
nodes = (
(130,253,l),
(130,379,o),
(194,458,o),
(251,458,cs),
(299,458,o),
(364,399,o),
(364,253,c)
);
},
{
closed = 1;
nodes = (
(422,123,l),
(404,74,o),
(333,37,o),
(273,43,cs),
(194,51,o),
(134,105,o),
(130,240,c),
(130,253,l),
(170,253,l),
(170,240,l),
(450,240,l),
(450,397,o),
(370,471,o),
(254,471,cs),
(130,471,o),
(36,375,o),
(36,227,cs),
(36,95,o),
(125,-9,o),
(250,-9,cs),
(368,-9,o),
(423,71,o),
(434,118,c)
);
}
);
width = 491;
}
);
note = e;
unicode = 101;
},
{
glyphname = f;
kernRight = f;
lastChange = "2022-10-05 12:18:03 +0000";
layers = (
{
hints = (
{
horizontal = 1;
place = (0, 21);
target = up;
type = BottomGhost;
},
{
horizontal = 1;
place = (462, -20);
target = down;
type = TopGhost;
},
{
horizontal = 1;
place = (744, -20);
target = down;
type = TopGhost;
},
{
place = (77, 88);
place = (77, 88);
type = Stem;
}
);
layerId = m01;
shapes = (
{
closed = 1;
nodes = (
(344,668,o),
(340,692,o),
(330,706,cs),
(320,719,o),
(284,744,o),
(238,744,cs),
(124,744,o),
(77,680,o),
(77,462,c),
(12,462,l),
(13,449,l),
(77,449,l),
(77,85,ls),
(77,37,o),
(76,20,o),
(38,12,c),
(38,0,l),
(213,0,l),
(213,12,l),
(177,19,o),
(165,33,o),
(165,85,cs),
(165,449,l),
(165,462,l),
(205,462,l),
(205,449,l),
(274,449,l),
(277,462,l),
(205,462,l),
(165,462,l),
(165,682,o),
(191,731,o),
(239,731,cs),
(268,731,o),
(284,715,o),
(274,712,cs),
(263,710,o),
(253,701,o),
(248,688,cs),
(237,663,o),
(249,635,o),
(274,625,cs),
(298,615,o),
(327,626,o),
(337,651,cs)
);
}
);
width = 301;
}
);
note = f;
unicode = 102;
},
{
glyphname = g;
lastChange = "2022-10-05 12:18:31 +0000";
layers = (
{
hints = (
{
horizontal = 1;
place = (-21, 91);
place = (-21, 91);
type = Stem;
},
{
horizontal = 1;
place = (164, -20);
target = down;
type = TopGhost;
},
{
horizontal = 1;
place = (471, -20);
target = down;
type = TopGhost;
},
{
place = (65, 87);
place = (65, 87);
type = Stem;
},
{
place = (353, 87);
place = (353, 87);
type = Stem;
},
{
horizontal = 1;
place = (-21, 198);
place = (-21, 198);
type = Stem;
}
);
layerId = m01;
shapes = (
{
closed = 1;
nodes = (
(353,206,o),
(298,177,o),
(252,177,cs),
(208,177,o),
(152,206,o),
(152,318,cs),
(152,430,o),
(193,458,o),
(243,458,c),
(243,471,l),
(283,470,l),
(283,455,l),
(322,447,o),
(353,412,o),
(353,318,cs)
);
},
{
closed = 1;
nodes = (
(542,415,o),
(545,443,o),
(530,463,cs),
(519,476,o),
(500,481,o),
(484,480,cs),
(460,477,o),
(420,463,o),
(394,424,c),
(365,449,o),
(334,466,o),
(283,470,c),
(243,471,l),
(128,471,o),
(65,399,o),
(65,318,cs),
(65,265,o),
(91,210,o),
(144,187,c),
(51,160,o),
(55,76,o),
(55,76,c),
(55,40,o),
(71,13,o),
(100,-1,c),
(34,-38,o),
(-10,-112,o),
(27,-180,cs),
(68,-256,o),
(225,-271,o),
(362,-194,cs),
(467,-135,o),
(470,-57,o),
(470,-57,c),
(488,74,o),
(367,70,o),
(298,70,cs),
(178,70,ls),
(60,70,o),
(110,173,o),
(157,181,c),
(183,170,o),
(213,164,o),
(252,164,cs),
(369,164,o),
(440,237,o),
(440,318,cs),
(440,354,o),
(428,391,o),
(403,416,c),
(421,442,o),
(452,446,o),
(450,438,cs),
(447,427,o),
(451,415,o),
(459,405,cs),
(474,385,o),
(503,383,o),
(523,399,cs)
);
},
{
closed = 1;
nodes = (
(96,-158,o),
(5,-64,o),
(100,-1,c),
(135,-15,o),
(187,-21,o),
(198,-21,cs),
(336,-21,ls),
(422,-21,o),
(426,-72,o),
(426,-72,c),
(426,-72,o),
(433,-135,o),
(355,-183,cs),
(266,-238,o),
(141,-212,o),
(94,-156,cs)
);
}
);
width = 542;
}
);
note = g;
unicode = 103;
},
{
glyphname = h;
kernLeft = h;
kernRight = h;
lastChange = "2022-10-05 12:18:58 +0000";
layers = (
{
hints = (
{
horizontal = 1;
place = (0, 21);
target = up;
type = BottomGhost;
},
{
horizontal = 1;
place = (420, 51);
place = (420, 51);
type = Stem;
},
{
horizontal = 1;
place = (738, -20);
target = down;
type = TopGhost;
},
{
place = (66, 88);
place = (66, 88);
type = Stem;
},
{
place = (361, 86);
place = (361, 86);
type = Stem;
}
);
layerId = m01;
shapes = (
{
closed = 1;
nodes = (
(453,21,o),
(447,38,o),
(447,93,cs),
(447,310,ls),
(447,430,o),
(391,471,o),
(309,471,cs),
(274,471,o),
(224,453,o),
(194,429,c),
(194,401,l),
(154,340,l),
(154,738,l),
(16,708,l),
(16,695,l),
(57,688,o),
(66,676,o),
(66,641,cs),
(66,93,ls),
(66,42,o),
(64,24,o),
(26,13,c),
(26,0,l),
(195,0,l),
(195,13,l),
(159,22,o),
(154,38,o),
(154,93,cs),
(154,340,l),
(194,401,l),
(208,411,o),
(238,419,o),
(256,419,cs),
(326,419,o),
(361,378,o),
(361,306,cs),
(361,93,ls),
(361,42,o),
(359,23,o),
(321,12,c),
(321,0,l),
(488,0,l),
(488,12,l)
);
}
);
width = 507;
}
);
note = h;
unicode = 104;
},
{
glyphname = i;
kernLeft = i;
kernRight = i;
layers = (
{
hints = (
{
horizontal = 1;
place = (0, 21);
target = up;
type = BottomGhost;
},
{
horizontal = 1;
place = (554, 102);
place = (554, 102);
type = Stem;
},
{
place = (62, 104);
place = (62, 104);
type = Stem;
},
{
place = (79, 87);
place = (79, 87);
type = Stem;
}
);
layerId = m01;
shapes = (
{
closed = 1;
nodes = (
(141,554,o),
(164,577,o),
(164,605,cs),
(164,634,o),
(141,656,o),
(113,656,cs),
(84,656,o),
(62,634,o),
(62,605,cs),
(62,577,o),
(84,554,o),
(113,554,cs)
);
},
{
closed = 1;
nodes = (
(207,13,l),
(171,22,o),
(166,37,o),
(166,93,cs),
(166,471,l),
(29,442,l),
(29,430,l),
(71,419,o),
(79,405,o),
(79,370,cs),
(79,93,ls),
(79,42,o),
(77,24,o),
(39,13,c),
(39,0,l),
(207,0,l)
);
}
);
width = 245;
}
);
note = i;
unicode = 105;
},
{
glyphname = j;
layers = (
{
hints = (
{
horizontal = 1;
place = (-228, 21);
target = up;
type = BottomGhost;
},
{
horizontal = 1;
place = (554, 103);
place = (554, 103);
type = Stem;
},
{
place = (62, 104);
place = (62, 104);
type = Stem;
},
{
place = (79, 87);
place = (79, 87);
type = Stem;
}
);
layerId = m01;
shapes = (
{
closed = 1;
nodes = (
(141,554,o),
(164,577,o),
(164,605,cs),
(164,634,o),
(141,657,o),
(113,657,cs),
(85,657,o),
(62,634,o),
(62,605,cs),
(62,577,o),
(85,554,o),
(113,554,cs)
);
},
{
closed = 1;
nodes = (
(79,27,ls),
(79,-8,o),
(79,-191,o),
(-2,-216,c),
(-2,-228,l),
(97,-203,o),
(166,-139,o),
(166,50,cs),
(166,471,l),
(29,442,l),
(29,430,l),
(72,419,o),
(79,400,o),
(79,366,cs)
);
}
);
width = 241;
}
);
note = j;
unicode = 106;
},
{
glyphname = k;
kernLeft = k;
kernRight = k;
layers = (
{
hints = (
{
horizontal = 1;
place = (0, 21);
target = up;
type = BottomGhost;
},
{
horizontal = 1;
place = (462, -20);
target = down;
type = TopGhost;
},
{
horizontal = 1;
place = (738, -20);
target = down;
type = TopGhost;
},
{
place = (59, 88);
place = (59, 88);
type = Stem;
}
);
layerId = m01;
shapes = (
{
closed = 1;
nodes = (
(499,13,l),
(476,13,o),
(445,16,o),
(415,53,c),
(415,53,o),
(317,156,o),
(243,261,c),
(405,438,o),
(462,448,o),
(508,449,c),
(508,462,l),
(283,462,l),
(283,449,l),
(416,451,o),
(268,312,o),
(268,312,c),
(174,215,l),
(174,215,o),
(234,139,o),
(250,118,cs),
(322,19,o),
(341,0,o),
(410,0,cs),
(499,0,l)
);
},
{
closed = 1;
nodes = (
(188,13,l),
(152,22,o),
(147,37,o),
(147,92,cs),
(147,738,l),
(9,711,l),
(9,698,l),
(50,690,o),
(59,676,o),
(59,641,cs),
(59,92,ls),
(59,41,o),
(57,24,o),
(19,13,c),
(19,0,l),
(188,0,l)
);
}
);
width = 511;
}
);
note = k;
unicode = 107;
},
{
glyphname = l;
kernRight = l;
layers = (
{
hints = (
{
horizontal = 1;
place = (0, 21);
target = up;
type = BottomGhost;
},
{
horizontal = 1;
place = (738, -20);
target = down;
type = TopGhost;
},
{
place = (73, 88);
place = (73, 88);
type = Stem;
}
);
layerId = m01;
shapes = (
{
closed = 1;
nodes = (
(166,22,o),
(161,37,o),
(161,92,cs),
(161,738,l),
(23,711,l),
(23,698,l),
(64,690,o),
(73,676,o),
(73,641,cs),
(73,92,ls),
(73,41,o),
(71,24,o),
(33,13,c),
(33,0,l),
(201,0,l),
(201,13,l)
);
}
);
width = 230;
}
);
note = l;
unicode = 108;
},
{
glyphname = m;
kernRight = m;
lastChange = "2022-10-05 12:20:05 +0000";
layers = (
{
hints = (
{
horizontal = 1;
place = (0, 21);
target = up;
type = BottomGhost;
},
{
horizontal = 1;
place = (421, 50);
place = (421, 50);
type = Stem;
},
{
place = (59, 88);
place = (59, 88);
type = Stem;
},
{
place = (332, 87);
place = (332, 87);
type = Stem;
},
{
place = (602, 87);
place = (602, 87);
type = Stem;
}
);
layerId = m01;
shapes = (
{
closed = 1;
nodes = (
(695,21,o),
(689,38,o),
(689,93,cs),
(689,311,ls),
(689,432,o),
(640,471,o),
(558,471,cs),
(515,471,o),
(473,449,o),
(445,417,c),
(416,364,l),
(403,439,o),
(358,471,o),
(288,471,cs),
(238,471,o),
(205,442,o),
(177,401,c),
(147,368,l),
(147,471,l),
(9,442,l),
(9,430,l),
(51,419,o),
(59,402,o),
(59,367,cs),
(59,92,ls),
(59,41,o),
(58,24,o),
(20,13,c),
(20,0,l),
(188,0,l),
(188,13,l),
(152,22,o),
(147,37,o),
(147,92,cs),
(147,335,l),
(147,368,l),
(177,401,l),
(177,374,l),
(194,398,o),
(209,421,o),
(241,421,cs),
(305,421,o),
(332,380,o),
(332,308,cs),
(332,93,ls),
(332,42,o),
(330,23,o),
(292,12,c),
(292,0,l),
(460,0,l),
(460,12,l),
(424,21,o),
(419,38,o),
(419,93,cs),
(419,309,ls),
(419,318,o),
(419,326,o),
(419,333,c),
(416,364,l),
(445,417,l),
(449,394,l),
(466,410,o),
(487,421,o),
(511,421,cs),
(575,421,o),
(602,380,o),
(602,308,cs),
(602,93,ls),
(602,42,o),
(600,23,o),
(562,12,c),
(562,0,l),
(730,0,l),
(730,12,l)
);
}
);
width = 747;
}
);
note = m;
unicode = 109;
},
{
glyphname = n;
kernRight = n;
lastChange = "2022-10-05 12:20:35 +0000";
layers = (
{
hints = (
{
horizontal = 1;
place = (0, 21);
target = up;
type = BottomGhost;
},
{
horizontal = 1;
place = (421, 50);
place = (421, 50);
type = Stem;
},
{
place = (60, 88);
place = (60, 88);
type = Stem;
},
{
place = (352, 87);
place = (352, 87);
type = Stem;
}
);
layerId = m01;
shapes = (
{
closed = 1;
nodes = (
(445,21,o),
(439,38,o),
(439,93,cs),
(439,311,ls),
(439,432,o),
(382,471,o),
(301,471,cs),
(250,471,o),
(208,441,o),
(178,398,c),
(178,373,l),
(148,335,l),
(148,366,l),
(148,471,l),
(10,442,l),
(10,430,l),
(52,419,o),
(60,406,o),
(60,371,cs),
(60,92,ls),
(60,41,o),
(59,24,o),
(21,13,c),
(21,0,l),
(189,0,l),
(189,13,l),
(153,22,o),
(148,37,o),
(148,92,cs),
(148,335,l),
(178,373,l),
(197,399,o),
(215,421,o),
(250,421,cs),
(316,421,o),
(352,376,o),
(352,308,cs),
(352,93,ls),
(352,42,o),
(350,23,o),
(312,12,c),
(312,0,l),
(480,0,l),
(480,12,l)
);
}
);
width = 506;
}
);
note = n;
unicode = 110;
},
{
glyphname = o;
kernLeft = o;
kernRight = o;
lastChange = "2022-10-05 12:24:54 +0000";
layers = (
{
hints = (
{
horizontal = 1;
place = (-9, 21);
target = up;
type = BottomGhost;
},
{
horizontal = 1;
place = (471, -20);
target = down;
type = TopGhost;
},
{
place = (40, 102);
place = (40, 102);
type = Stem;
},
{
place = (398, 103);
place = (398, 103);
type = Stem;
}
);
layerId = m01;
shapes = (
{
closed = 1;
nodes = (
(398,50,o),
(347,4,o),
(271,4,cs),
(194,4,o),
(142,50,o),
(142,231,cs),
(142,384,o),
(183,436,o),
(241,448,c),
(241,471,l),
(281,471,l),
(281,449,l),
(343,439,o),
(398,390,o),
(398,231,cs)
);
},
{
closed = 1;
nodes = (
(501,356,o),
(417,460,o),
(281,471,c),
(241,471,l),
(112,456,o),
(40,352,o),
(40,231,cs),
(40,100,o),
(119,-9,o),
(271,-9,cs),
(424,-9,o),
(501,100,o),
(501,231,cs)
);
}
);
width = 542;
}
);
note = o;
unicode = 111;
},
{
glyphname = p;
kernLeft = p;
kernRight = p;
lastChange = "2022-10-05 12:26:18 +0000";
layers = (
{
hints = (
{
horizontal = 1;
place = (-265, 21);
target = up;
type = BottomGhost;
},
{
horizontal = 1;
place = (-9, 21);
target = up;
type = BottomGhost;
},
{
horizontal = 1;
place = (441, 30);
place = (441, 30);
type = Stem;
},
{
place = (67, 87);
place = (67, 87);
type = Stem;
},
{
place = (408, 105);
place = (408, 105);
type = Stem;
}
);
layerId = m01;
shapes = (
{
closed = 1;
nodes = (
(408,52,o),
(342,4,o),
(276,4,cs),
(213,4,o),
(160,47,o),
(154,136,c),
(154,447,l),
(194,447,l),
(194,427,l),
(210,436,o),
(248,441,o),
(269,441,cs),
(355,441,o),
(408,371,o),
(408,213,cs)
);
},
{
closed = 1;
nodes = (
(513,365,o),
(436,471,o),
(303,471,cs),
(274,471,o),
(224,463,o),
(194,447,c),
(154,447,l),
(154,471,l),
(17,442,l),
(17,430,l),
(58,422,o),
(67,411,o),
(67,377,cs),
(67,-176,ls),
(67,-227,o),
(65,-241,o),
(27,-252,c),
(27,-265,l),
(195,-265,l),
(195,-252,l),
(160,-243,o),
(154,-232,o),
(154,-176,cs),
(154,29,l),
(186,5,o),
(228,-9,o),
(279,-9,cs),
(412,-9,o),
(513,71,o),
(513,227,cs)
);
}
);
width = 561;
}
);
note = p;
unicode = 112;
},
{
glyphname = q;
kernLeft = q;
lastChange = "2022-10-05 12:33:05 +0000";
layers = (
{
hints = (
{
horizontal = 1;
place = (-265, 21);
target = up;
type = BottomGhost;
},
{
horizontal = 1;
place = (-9, 24);
place = (-9, 24);
type = Stem;
},
{
horizontal = 1;
place = (471, -20);
target = down;
type = TopGhost;
},
{
place = (46, 99);
place = (46, 99);
type = Stem;
},
{
place = (392, 88);
place = (392, 88);
type = Stem;
}
);
layerId = m01;
shapes = (
{
closed = 1;
nodes = (
(392,127,l),
(392,50,l),
(352,4,l),
(352,24,l),
(339,18,o),
(297,15,o),
(281,15,cs),
(194,15,o),
(145,93,o),
(145,251,cs),
(145,412,o),
(210,458,o),
(277,458,cs),
(336,458,o),
(392,414,o),
(392,320,cs)
);
},
{
closed = 1;
nodes = (
(521,-252,l),
(485,-243,o),
(480,-232,o),
(480,-177,cs),
(480,460,ls),
(480,475,o),
(434,458,o),
(409,430,c),
(376,456,o),
(332,471,o),
(280,471,cs),
(147,471,o),
(46,393,o),
(46,237,cs),
(46,98,o),
(123,-9,o),
(256,-9,cs),
(277,-9,o),
(329,-5,o),
(352,4,c),
(392,50,l),
(392,-177,ls),
(392,-228,o),
(390,-241,o),
(353,-252,c),
(353,-265,l),
(521,-265,l)
);
}
);
width = 550;
}
);
note = q;
unicode = 113;
},
{
glyphname = r;
kernLeft = r;
kernRight = r;
lastChange = "2022-10-05 12:33:22 +0000";
layers = (
{
hints = (
{
horizontal = 1;
place = (0, 21);
target = up;
type = BottomGhost;
},
{
horizontal = 1;
place = (471, -20);
target = down;
type = TopGhost;
},
{
place = (64, 88);
place = (64, 88);
type = Stem;
}
);
layerId = m01;
shapes = (
{
closed = 1;
nodes = (
(257,464,o),
(226,450,o),
(193,416,c),
(152,366,l),
(152,471,l),
(14,442,l),
(14,430,l),
(55,419,o),
(64,405,o),
(64,370,cs),
(64,93,ls),
(64,41,o),
(62,24,o),
(24,13,c),
(24,0,l),
(193,0,l),
(193,13,l),
(157,22,o),
(152,37,o),
(152,93,cs),
(152,342,l),
(152,366,l),
(193,416,l),
(192,392,l),
(221,420,o),
(249,428,o),
(247,416,cs),
(244,403,o),
(249,389,o),
(258,378,cs),
(279,354,o),
(313,352,o),
(336,371,cs),
(360,391,o),
(363,425,o),
(343,449,cs),
(329,465,o),
(304,470,o),
(286,468,cs)
);
}
);
width = 364;
}
);
note = r;
unicode = 114;
},
{
glyphname = s;
kernLeft = s;
kernRight = s;
lastChange = "2022-10-05 12:34:45 +0000";
layers = (
{
hints = (
{
horizontal = 1;
place = (-9, 21);
target = up;
type = BottomGhost;
},
{
horizontal = 1;
place = (167, -20);
target = down;
type = TopGhost;
},
{
horizontal = 1;
place = (317, -20);
target = down;
type = TopGhost;
},
{
horizontal = 1;
place = (471, -20);
target = down;
type = TopGhost;
}
);
layerId = m01;
shapes = (
{
closed = 1;
nodes = (
(398,109,o),
(369,190,o),
(279,246,cs),
(178,309,ls),
(102,357,o),
(121,435,o),
(184,454,c),
(184,471,l),
(224,471,l),
(224,456,l),
(314,442,o),
(338,370,o),
(344,317,c),
(356,317,l),
(356,439,l),
(356,439,o),
(317,468,o),
(224,471,c),
(184,471,l),
(82,455,o),
(61,414,o),
(61,414,cs),
(21,345,o),
(40,281,o),
(139,221,cs),
(240,160,ls),
(318,113,o),
(329,4,o),
(223,4,cs),
(93,4,o),
(68,101,o),
(61,167,c),
(48,167,l),
(48,31,l),
(48,31,o),
(102,-9,o),
(223,-9,cs),
(316,-9,o),
(350,40,o),
(350,40,c)
);
}
);
width = 417;
}
);
note = s;
unicode = 115;
},
{
glyphname = t;
kernLeft = t;
lastChange = "2022-10-05 12:35:18 +0000";
layers = (
{
hints = (
{
horizontal = 1;
place = (-9, 49);
place = (-9, 49);
type = Stem;
},
{
horizontal = 1;
place = (462, -20);
target = down;
type = TopGhost;
},
{
horizontal = 1;
place = (618, -20);
target = down;
type = TopGhost;
},
{
place = (70, 87);
place = (70, 87);
type = Stem;
}
);
layerId = m01;
shapes = (
{
closed = 1;
nodes = (
(286,61,o),
(262,40,o),
(233,40,cs),
(186,40,o),
(157,67,o),
(157,147,cs),
(157,449,l),
(157,462,l),
(197,462,l),
(197,449,l),
(273,449,l),
(276,462,l),
(197,462,l),
(157,462,l),
(157,618,l),
(70,604,l),
(70,462,l),
(17,462,l),
(19,449,l),
(70,449,l),
(70,144,ls),
(70,23,o),
(114,-9,o),
(187,-9,cs),
(245,-9,o),
(290,33,o),
(304,77,c),
(294,82,l)
);
}
);
width = 316;
}
);
note = t;
unicode = 116;
},
{
glyphname = u;
kernLeft = u;
lastChange = "2022-10-05 12:36:35 +0000";
layers = (
{
hints = (
{
horizontal = 1;
place = (-9, 49);
place = (-9, 49);
type = Stem;
},
{
horizontal = 1;
place = (471, -20);
target = down;
type = TopGhost;
},
{
place = (73, 86);
place = (73, 86);
type = Stem;
},
{
place = (366, 87);
place = (366, 87);
type = Stem;
}
);
layerId = m01;
shapes = (
{
closed = 1;
nodes = (
(462,29,o),
(453,35,o),
(453,83,cs),
(453,471,l),
(319,452,l),
(319,440,l),
(368,437,o),
(366,430,o),
(366,369,cs),
(366,117,l),
(366,92,l),
(326,18,l),
(326,51,l),
(316,48,o),
(306,46,o),
(262,40,cs),
(204,32,o),
(159,69,o),
(159,145,cs),
(159,471,l),
(17,452,l),
(17,440,l),
(74,436,o),
(73,431,o),
(73,367,cs),
(73,142,ls),
(73,17,o),
(144,-9,o),
(216,-9,cs),
(243,-9,o),
(302,5,o),
(326,18,c),
(366,92,l),
(366,7,l),
(366,7,o),
(366,-12,o),
(390,-8,cs),
(504,11,l),
(504,24,l)
);
}
);
width = 522;
}
);
note = u;
unicode = 117;
},
{
glyphname = v;
kernLeft = v;
kernRight = v;
lastChange = "2022-10-06 06:47:18 +0000";
layers = (
{
hints = (
{
horizontal = 1;
place = (-9, 21);
target = up;
type = BottomGhost;
},
{
horizontal = 1;
place = (462, -20);
target = down;
type = TopGhost;
}
);
layerId = m01;
shapes = (
{
closed = 1;
nodes = (
(321,462,l),
(321,449,l),
(430,449,o),
(377,316,o),
(377,316,c),
(300,109,l),
(259,-9,l),
(230,51,l),
(274,163,l),
(176,380,l),
(176,380,o),
(140,449,o),
(207,449,c),
(207,462,l),
(-1,462,l),
(-1,449,l),
(16,448,o),
(44,449,o),
(69,399,c),
(69,399,o),
(87,361,o),
(230,51,c),
(259,-9,l),
(269,-9,l),
(393,321,l),
(446,448,o),
(476,449,o),
(514,449,c),
(514,462,l)
);
}
);
width = 514;
}
);
note = v;
unicode = 118;
},
{
glyphname = w;
kernLeft = w;
kernRight = w;
lastChange = "2022-10-06 06:47:58 +0000";
layers = (
{
hints = (
{
horizontal = 1;
place = (-9, 21);
target = up;
type = BottomGhost;
},
{
horizontal = 1;
place = (462, -20);
target = down;
type = TopGhost;
}
);
layerId = m01;
shapes = (
{
closed = 1;
nodes = (
(564,462,l),
(564,449,l),
(664,449,o),
(622,331,o),
(622,331,c),
(549,114,l),
(509,-9,l),
(483,51,l),
(522,179,l),
(433,387,l),
(433,387,o),
(401,449,o),
(465,449,c),
(465,462,l),
(273,462,l),
(273,449,l),
(288,448,o),
(312,444,o),
(334,397,c),
(334,397,o),
(338,389,o),
(368,317,c),
(297,114,l),
(256,-9,l),
(231,52,l),
(273,175,l),
(180,389,l),
(180,389,o),
(152,449,o),
(208,449,c),
(208,462,l),
(16,462,l),
(16,449,l),
(31,448,o),
(60,444,o),
(81,397,c),
(81,397,o),
(104,348,o),
(231,52,c),
(256,-9,l),
(267,-9,l),
(376,300,l),
(483,51,l),
(509,-9,l),
(519,-9,l),
(635,326,ls),
(676,445,o),
(716,449,o),
(741,449,c),
(741,462,l)
);
}
);
width = 749;
}
);
note = w;
unicode = 119;
},
{
glyphname = x;
kernLeft = x;
kernRight = x;
lastChange = "2022-10-06 06:48:31 +0000";
layers = (
{
hints = (
{
horizontal = 1;
place = (0, 21);
target = up;
type = BottomGhost;
},
{
horizontal = 1;
place = (462, -20);
target = down;
type = TopGhost;
}
);
layerId = m01;
shapes = (
{
closed = 1;
nodes = (
(284,265,l),
(318,312,ls),
(421,454,o),
(466,449,o),
(501,450,c),
(501,462,l),
(288,462,l),
(288,450,l),
(394,450,o),
(345,372,o),
(309,322,cs),
(277,277,l),
(227,203,l),
(190,258,l),
(241,331,l),
(207,380,ls),
(169,434,o),
(191,450,o),
(215,450,c),
(215,462,l),
(12,462,l),
(12,450,l),
(38,449,o),
(54,448,o),
(92,401,c),
(190,258,l),
(227,203,l),
(189,150,ls),
(88,9,o),
(42,13,o),
(13,13,c),
(13,0,l),
(216,0,l),
(216,13,l),
(117,13,o),
(154,75,o),
(199,140,cs),
(235,192,l),
(309,83,l),
(309,83,o),
(361,13,o),
(309,13,c),
(309,0,l),
(511,0,l),
(511,13,l),
(494,14,o),
(453,13,o),
(419,64,cs)
);
}
);
width = 518;
}
);
note = x;
unicode = 120;
},
{
glyphname = y;
kernLeft = y;
kernRight = y;
lastChange = "2022-10-06 06:49:11 +0000";
layers = (
{
hints = (
{
horizontal = 1;
place = (462, -20);
target = down;
type = TopGhost;
}
);
layerId = m01;
shapes = (
{
closed = 1;
nodes = (
(320,462,l),
(320,450,l),
(436,451,o),
(373,293,o),
(373,293,c),
(307,111,l),
(263,-4,l),
(234,56,l),
(279,167,l),
(183,377,l),
(183,377,o),
(148,450,o),
(213,450,c),
(213,462,l),
(6,462,l),
(6,450,l),
(21,449,o),
(56,445,o),
(76,399,c),
(76,399,o),
(141,260,o),
(234,56,c),
(263,-4,l),
(218,-131,ls),
(205,-168,o),
(183,-182,o),
(179,-168,cs),
(175,-155,o),
(166,-142,o),
(152,-136,cs),
(126,-124,o),
(95,-136,o),
(82,-163,cs),
(71,-190,o),
(82,-221,o),
(109,-233,cs),
(128,-242,o),
(155,-237,o),
(169,-226,cs),
(183,-214,o),
(209,-191,o),
(230,-133,cs),
(385,290,ls),
(441,442,o),
(478,450,o),
(513,450,c),
(513,462,l)
);
}
);
width = 532;
}
);
note = y;
unicode = 121;
},
{
glyphname = z;
lastChange = "2022-10-05 12:36:53 +0000";
layers = (
{
hints = (
{
horizontal = 1;
place = (0, 21);
target = up;
type = BottomGhost;
},
{
horizontal = 1;
place = (152, -20);
target = down;
type = TopGhost;
},
{
horizontal = 1;
place = (330, -20);
target = down;
type = TopGhost;
},
{
horizontal = 1;
place = (462, -20);
target = down;
type = TopGhost;
}
);
layerId = m01;
shapes = (
{
closed = 1;
nodes = (
(389,462,l),
(49,462,l),
(44,330,l),
(57,330,l),
(71,410,o),
(146,440,o),
(245,447,c),
(255,462,l),
(295,462,l),
(29,0,l),
(369,0,l),
(378,152,l),
(365,152,l),
(351,62,o),
(291,12,o),
(141,12,c)
);
}
);
width = 432;
}
);
note = z;
unicode = 122;
},
{
glyphname = braceleft;
layers = (
{
hints = (
{
horizontal = 1;
place = (-164, 21);
target = up;
type = BottomGhost;
},
{
horizontal = 1;
place = (280, -20);
target = down;
type = TopGhost;
},
{
horizontal = 1;
place = (735, -20);
target = down;
type = TopGhost;
},
{
place = (128, 70);
place = (128, 70);
type = Stem;
}
);
layerId = m01;
shapes = (
{
closed = 1;
nodes = (
(227,-140,o),
(198,-101,o),
(198,3,cs),
(198,147,ls),
(198,256,o),
(132,280,o),
(86,280,c),
(132,280,o),
(198,314,o),
(198,424,cs),
(198,568,ls),
(198,672,o),
(227,710,o),
(268,725,c),
(267,735,l),
(188,724,o),
(128,683,o),
(128,568,cs),
(128,451,ls),
(128,293,o),
(88,297,o),
(49,285,c),
(49,274,l),
(88,263,o),
(128,268,o),
(128,120,cs),
(128,3,ls),
(128,-112,o),
(188,-153,o),
(267,-164,c),
(268,-154,l)
);
}
);
width = 313;
}
);
note = braceleft;
unicode = 123;
},
{
glyphname = bar;
layers = (
{
hints = (
{
horizontal = 1;
place = (-164, 21);
target = up;
type = BottomGhost;
},
{
horizontal = 1;
place = (735, -20);
target = down;
type = TopGhost;
},
{
place = (73, 58);
place = (73, 58);
type = Stem;
}
);
layerId = m01;
shapes = (
{
closed = 1;
nodes = (
(73,-164,l),
(131,-164,l),
(131,735,l),
(73,735,l)
);
}
);
width = 202;
}
);
note = bar;
unicode = 124;
},
{
glyphname = braceright;
layers = (
{
hints = (
{
horizontal = 1;
place = (-164, 21);
target = up;
type = BottomGhost;
},
{
horizontal = 1;
place = (280, -20);
target = down;
type = TopGhost;
},
{
horizontal = 1;
place = (735, -20);
target = down;
type = TopGhost;
},
{
place = (118, 70);
place = (118, 70);
type = Stem;
}
);
layerId = m01;
shapes = (
{
closed = 1;
nodes = (
(49,-164,l),
(128,-153,o),
(188,-112,o),
(188,3,cs),
(188,120,ls),
(188,268,o),
(228,263,o),
(267,274,c),
(267,285,l),
(228,297,o),
(188,293,o),
(188,451,cs),
(188,568,ls),
(188,683,o),
(128,724,o),
(49,735,c),
(48,725,l),
(89,710,o),
(118,672,o),
(118,568,cs),
(118,424,ls),
(118,314,o),
(184,280,o),
(230,280,c),
(184,280,o),
(118,256,o),
(118,147,cs),
(118,3,ls),
(118,-101,o),
(89,-140,o),
(48,-154,c)
);
}
);
width = 319;
}
);
note = braceright;
unicode = 125;
},
{
glyphname = asciitilde;
layers = (
{
hints = (
{
horizontal = 1;
place = (261, 67);
place = (261, 67);
type = Stem;
},
{
place = (62, 459);
place = (62, 459);
type = Stem;
},
{
horizontal = 1;
place = (206, 67);
place = (206, 67);
type = Stem;
}
);
layerId = m01;
shapes = (
{
closed = 1;
nodes = (
(337,212,l),
(337,212,o),
(460,168,o),
(521,321,c),
(511,325,l),
(487,270,o),
(395,266,o),
(363,279,cs),
(248,322,l),
(248,322,o),
(123,366,o),
(62,214,c),
(72,210,l),
(99,268,o),
(189,267,o),
(222,255,cs)
);
}
);
width = 578;
}
);
note = asciitilde;
unicode = 126;
},
{
glyphname = exclamdown;
layers = (
{
hints = (
{
horizontal = 1;
place = (-175, 21);
target = up;
type = BottomGhost;
},
{
horizontal = 1;
place = (373, -20);
target = down;
type = TopGhost;
},
{
horizontal = 1;
place = (453, 116);
place = (453, 116);
type = Stem;
},
{
place = (110, 70);
place = (110, 70);
type = Stem;
},
{
place = (88, 117);
place = (88, 117);
type = Stem;
}
);
layerId = m01;
shapes = (
{
closed = 1;
nodes = (
(122,373,l),
(99,-175,l),
(191,-175,l),
(169,373,l)
);
},
{
closed = 1;
nodes = (
(114,569,o),
(88,543,o),
(88,511,cs),
(88,478,o),
(114,453,o),
(146,453,cs),
(179,453,o),
(205,478,o),
(205,511,cs),
(205,543,o),
(179,569,o),
(146,569,cs)
);
}
);
width = 286;
}
);
note = exclamdown;
unicode = 161;
},
{
glyphname = cent;
layers = (
{
hints = (
{
horizontal = 1;
place = (-118, 21);
target = up;
type = BottomGhost;
},
{
horizontal = 1;
place = (471, -20);
target = down;
type = TopGhost;
},
{
horizontal = 1;
place = (593, -20);
target = down;
type = TopGhost;
},
{
place = (75, 93);
place = (75, 93);
type = Stem;
},
{
place = (75, 243);
place = (75, 243);
type = Stem;
}
);
layerId = m01;
shapes = (
{
closed = 1;
nodes = (
(168,404,o),
(251,449,o),
(299,457,c),
(299,48,l),
(233,62,o),
(168,117,o),
(168,242,cs)
);
},
{
closed = 1;
nodes = (
(467,128,l),
(450,88,o),
(390,42,o),
(318,46,c),
(318,458,l),
(384,458,o),
(413,429,o),
(403,429,c),
(393,426,o),
(382,419,o),
(375,408,cs),
(362,386,o),
(369,358,o),
(392,344,cs),
(413,331,o),
(443,341,o),
(456,362,cs),
(465,377,o),
(463,397,o),
(455,411,cs),
(446,427,o),
(416,471,o),
(318,471,c),
(318,593,l),
(299,593,l),
(299,471,l),
(157,462,o),
(75,348,o),
(75,231,cs),
(75,86,o),
(169,-7,o),
(299,-9,c),
(299,-118,l),
(318,-118,l),
(318,-9,l),
(423,0,o),
(467,76,o),
(478,123,c)
);
}
);
width = 504;
}
);
note = cent;
unicode = 162;
},
{
glyphname = sterling;
layers = (
{
hints = (
{
horizontal = 1;
place = (-9, 21);
target = up;
type = BottomGhost;
},
{
horizontal = 1;
place = (362, -20);
target = down;
type = TopGhost;
},
{
horizontal = 1;
place = (376, -20);
target = down;
type = TopGhost;
}
);
layerId = m01;
shapes = (
{
closed = 1;
nodes = (
(260,34,o),
(206,4,o),
(139,4,cs),
(126,4,o),
(65,5,o),
(48,67,cs),
(36,112,o),
(94,183,o),
(193,141,cs),
(222,129,o),
(253,110,o),
(288,86,c)
);
},
{
closed = 1;
nodes = (
(66,237,o),
(20,111,o),
(35,65,cs),
(57,-5,o),
(130,-9,o),
(140,-9,cs),
(210,-9,o),
(273,4,o),
(319,67,c),
(385,22,o),
(440,-12,o),
(491,-8,cs),
(511,-6,o),
(600,21,o),
(599,128,c),
(585,130,l),
(580,77,o),
(511,56,o),
(451,78,c),
(451,78,o),
(391,100,o),
(358,122,c),
(383,174,o),
(392,248,o),
(348,317,cs),
(317,362,l),
(486,362,l),
(486,376,l),
(308,376,l),
(144,653,o),
(263,765,o),
(413,716,cs),
(444,706,o),
(462,679,o),
(448,680,cs),
(434,681,o),
(420,679,o),
(409,668,cs),
(386,647,o),
(383,612,o),
(405,588,cs),
(426,566,o),
(461,564,o),
(484,584,cs),
(500,599,o),
(507,623,o),
(501,641,cs),
(494,664,o),
(477,702,o),
(418,728,cs),
(279,789,o),
(48,671,o),
(195,376,c),
(105,376,l),
(105,362,l),
(201,362,l),
(219,334,o),
(239,303,o),
(255,278,cs),
(290,225,o),
(304,187,o),
(300,145,c),
(287,155,o),
(248,170,o),
(248,170,c)
);
}
);
width = 645;
}
);
note = sterling;
unicode = 163;
},
{
glyphname = currency;
layers = (
{
hints = (
{
horizontal = 1;
place = (87, 21);
target = up;
type = BottomGhost;
},
{
horizontal = 1;
place = (115, 60);
place = (115, 60);
type = Stem;
},
{
horizontal = 1;
place = (515, 61);
place = (515, 61);
type = Stem;
},
{
horizontal = 1;
place = (603, -20);
target = down;
type = TopGhost;
},
{
place = (46, 60);
place = (46, 60);
type = Stem;
},
{
place = (446, 60);
place = (446, 60);
type = Stem;
}
);
layerId = m01;
shapes = (
{
closed = 1;
nodes = (
(188,497,o),
(230,515,o),
(276,515,cs),
(322,515,o),
(365,497,o),
(396,465,cs),
(427,433,o),
(446,391,o),
(446,345,cs),
(446,299,o),
(427,256,o),
(396,225,cs),
(365,194,o),
(322,175,o),
(276,175,cs),
(230,175,o),
(188,194,o),
(156,225,cs),
(124,257,o),
(106,300,o),
(106,345,cs),
(106,390,o),
(124,433,o),
(156,465,cs)
);
},
{
closed = 1;
nodes = (
(458,205,l),
(489,244,o),
(506,293,o),
(506,345,cs),
(506,397,o),
(489,447,o),
(458,486,c),
(534,562,l),
(493,603,l),
(417,528,l),
(378,559,o),
(328,576,o),
(276,576,cs),
(224,576,o),
(175,559,o),
(135,528,c),
(60,603,l),
(18,562,l),
(94,486,l),
(63,447,o),
(46,397,o),
(46,345,cs),
(46,293,o),
(63,244,o),
(94,205,c),
(18,129,l),
(60,87,l),
(135,163,l),
(175,132,o),
(224,115,o),
(276,115,cs),
(328,115,o),
(378,132,o),
(417,163,c),
(493,87,l),
(534,129,l)
);
}
);
width = 573;
}
);
note = currency;
unicode = 164;
},
{
glyphname = yen;
layers = (
{
hints = (
{
horizontal = 1;
place = (221, 98);
place = (221, 98);
type = Stem;
},
{
horizontal = 1;
place = (704, -20);
target = down;
type = TopGhost;
},
{
place = (268, 94);
place = (268, 94);
type = Stem;
},
{
horizontal = 1;
place = (0, 236);
place = (0, 236);
type = Stem;
},
{
horizontal = 1;
place = (304, -20);
target = down;
type = TopGhost;
}
);
layerId = m01;
shapes = (
{
closed = 1;
nodes = (
(387,691,l),
(522,691,o),
(465,554,o),
(431,485,cs),
(355,331,l),
(209,578,ls),
(141,693,o),
(204,692,o),
(232,692,c),
(232,704,l),
(-25,704,l),
(-25,692,l),
(8,690,o),
(35,690,o),
(80,613,c),
(80,613,o),
(117,553,o),
(250,319,c),
(76,319,l),
(76,304,l),
(258,304,l),
(268,287,l),
(268,236,l),
(76,236,l),
(76,221,l),
(268,221,l),
(268,112,ls),
(268,31,o),
(235,13,o),
(193,13,c),
(193,0,l),
(437,0,l),
(437,13,l),
(395,13,o),
(362,31,o),
(362,112,cs),
(362,221,l),
(534,221,l),
(534,236,l),
(362,236,l),
(362,304,l),
(534,304,l),
(534,319,l),
(364,319,l),
(438,472,ls),
(549,691,o),
(601,691,o),
(644,691,c),
(644,704,l),
(387,704,l)
);
}
);
width = 620;
}
);
note = yen;
unicode = 165;
},
{
glyphname = brokenbar;
layers = (
{
hints = (
{
horizontal = 1;
place = (-192, 21);
target = up;
type = BottomGhost;
},
{
horizontal = 1;
place = (185, -20);
target = down;
type = TopGhost;
},
{
horizontal = 1;
place = (359, -20);
target = down;
type = TopGhost;
},
{
horizontal = 1;
place = (735, -20);
target = down;
type = TopGhost;
},
{
place = (71, 59);
place = (71, 59);
type = Stem;
}
);
layerId = m01;
shapes = (
{
closed = 1;
nodes = (
(130,735,l),
(71,735,l),
(71,359,l),
(130,359,l)
);
},
{
closed = 1;
nodes = (
(130,185,l),
(71,185,l),
(71,-192,l),
(130,-192,l)
);
}
);
width = 200;
}
);
note = brokenbar;
unicode = 166;
},
{
glyphname = section;
layers = (
{
hints = (
{
horizontal = 1;
place = (-254, 13);
place = (-254, 13);
type = Stem;
},
{
horizontal = 1;
place = (414, 21);
target = up;
type = BottomGhost;
},
{
horizontal = 1;
place = (705, 14);
place = (705, 14);
type = Stem;
},
{
place = (56, 49);
place = (56, 49);
type = Stem;
},
{
place = (433, 49);
place = (433, 49);
type = Stem;
},
{
place = (105, 59);
place = (105, 59);
type = Stem;
},
{
place = (322, 99);
place = (322, 99);
type = Stem;
},
{
horizontal = 1;
place = (579, 96);
place = (579, 96);
type = Stem;
},
{
place = (368, 67);
place = (368, 67);
type = Stem;
},
{
place = (114, 100);
place = (114, 100);
type = Stem;
},
{
horizontal = 1;
place = (-212, 98);
place = (-212, 98);
type = Stem;
}
);
layerId = m01;
shapes = (
{
closed = 1;
nodes = (
(191,401,o),
(201,394,o),
(214,385,cs),
(231,373,o),
(297,330,o),
(337,302,cs),
(416,248,o),
(499,158,o),
(353,58,c),
(348,62,o),
(335,72,o),
(318,83,cs),
(301,95,o),
(237,135,o),
(199,162,cs),
(120,216,o),
(40,307,o),
(188,404,c)
);
},
{
closed = 1;
nodes = (
(544,163,o),
(493,306,o),
(377,384,cs),
(250,469,ls),
(177,522,o),
(157,559,o),
(164,613,cs),
(172,683,o),
(234,712,o),
(311,705,cs),
(347,701,o),
(370,676,o),
(360,675,cs),
(347,675,o),
(339,668,o),
(331,657,cs),
(315,635,o),
(321,604,o),
(343,588,cs),
(367,572,o),
(398,577,o),
(414,600,cs),
(424,615,o),
(423,637,o),
(416,652,cs),
(403,680,o),
(358,715,o),
(305,719,cs),
(245,723,o),
(121,719,o),
(105,580,cs),
(97,508,o),
(123,461,o),
(176,414,c),
(-6,296,o),
(44,159,o),
(159,80,cs),
(286,-6,ls),
(359,-58,o),
(375,-94,o),
(368,-149,cs),
(360,-218,o),
(295,-249,o),
(228,-241,cs),
(192,-236,o),
(160,-215,o),
(171,-212,cs),
(183,-210,o),
(196,-204,o),
(205,-193,cs),
(221,-171,o),
(215,-139,o),
(192,-123,cs),
(169,-108,o),
(138,-113,o),
(123,-136,cs),
(112,-151,o),
(112,-173,o),
(119,-188,cs),
(132,-215,o),
(177,-250,o),
(230,-254,cs),
(288,-259,o),
(419,-255,o),
(435,-116,cs),
(444,-44,o),
(412,5,o),
(364,48,c)
);
}
);
width = 532;
}
);
note = section;
unicode = 167;
},
{
glyphname = dieresis;
layers = (
{
hints = (
{
horizontal = 1;
place = (600, 93);
place = (600, 93);
type = Stem;
},
{
place = (-9, 93);
place = (-9, 93);
type = Stem;
},
{
place = (151, 93);
place = (151, 93);
type = Stem;
}
);
layerId = m01;
shapes = (
{
closed = 1;
nodes = (
(151,620,o),
(171,600,o),
(197,600,cs),
(222,600,o),
(244,620,o),
(244,646,cs),
(244,672,o),
(222,693,o),
(197,693,cs),
(171,693,o),
(151,672,o),
(151,646,cs)
);
},
{
closed = 1;
nodes = (
(-9,620,o),
(12,600,o),
(37,600,cs),
(63,600,o),
(84,620,o),
(84,646,cs),
(84,672,o),
(63,693,o),
(37,693,cs),
(12,693,o),
(-9,672,o),
(-9,646,cs)
);
}
);
width = 234;
}
);
note = dieresis;
unicode = 168;
},
{
glyphname = copyright;
layers = (
{
hints = (
{
horizontal = 1;
place = (1, 167);
place = (1, 167);
type = Stem;
},
{
horizontal = 1;
place = (275, -20);
target = down;
type = TopGhost;
},
{
horizontal = 1;
place = (548, 187);
place = (548, 187);
type = Stem;
},
{
place = (30, 51);
place = (30, 51);
type = Stem;
},
{
place = (205, 73);
place = (205, 73);
type = Stem;
},
{
place = (714, 52);
place = (714, 52);
type = Stem;
},
{
horizontal = 1;
place = (1, 50);
place = (1, 50);
type = Stem;
},
{
horizontal = 1;
place = (155, -20);
target = down;
type = TopGhost;
},
{
horizontal = 1;
place = (686, 49);
place = (686, 49);
type = Stem;
}
);
layerId = m01;
shapes = (
{
closed = 1;
nodes = (
(519,275,l),
(511,176,o),
(439,168,o),
(401,168,cs),
(354,168,o),
(278,185,o),
(278,358,cs),
(278,528,o),
(349,548,o),
(401,548,cs),
(439,548,o),
(511,540,o),
(519,441,c),
(530,441,l),
(535,527,l),
(500,556,o),
(459,561,o),
(401,561,cs),
(284,561,o),
(205,485,o),
(205,358,cs),
(205,233,o),
(284,155,o),
(401,155,cs),
(461,155,o),
(493,162,o),
(535,190,c),
(530,275,l)
);
},
{
closed = 1;
nodes = (
(224,51,o),
(81,193,o),
(81,368,cs),
(81,542,o),
(224,686,o),
(398,686,cs),
(571,686,o),
(714,542,o),
(714,368,cs),
(714,193,o),
(571,51,o),
(398,51,cs)
);
},
{
closed = 1;
nodes = (
(194,735,o),
(30,571,o),
(30,368,cs),
(30,165,o),
(194,1,o),
(398,1,cs),
(601,1,o),
(766,165,o),
(766,368,cs),
(766,571,o),
(601,735,o),
(398,735,cs)
);
}
);
width = 797;
}
);
note = copyright;
unicode = 169;
},
{
glyphname = ordfeminine;
layers = (
{
hints = (
{
horizontal = 1;
place = (453, 24);
place = (453, 24);
type = Stem;
},
{
horizontal = 1;
place = (704, -20);
target = down;
type = TopGhost;
},
{
place = (20, 46);
place = (20, 46);
type = Stem;
},
{
place = (154, 47);
place = (154, 47);
type = Stem;
}
);
layerId = m01;
shapes = (
{
closed = 1;
nodes = (
(154,582,o),
(154,523,o),
(154,523,c),
(154,507,o),
(136,477,o),
(108,477,cs),
(76,477,o),
(66,502,o),
(66,517,cs),
(66,549,o),
(93,568,o),
(154,582,c)
);
},
{
closed = 1;
nodes = (
(238,491,l),
(235,477,o),
(224,478,o),
(224,478,c),
(201,477,o),
(201,510,o),
(201,510,c),
(201,599,ls),
(201,661,o),
(186,704,o),
(129,704,c),
(129,704,o),
(99,704,o),
(79,694,cs),
(53,681,o),
(43,664,o),
(39,655,cs),
(36,647,o),
(36,637,o),
(42,630,cs),
(50,619,o),
(65,617,o),
(75,625,cs),
(85,633,o),
(88,648,o),
(81,659,cs),
(77,664,o),
(71,668,o),
(64,668,cs),
(61,668,o),
(65,676,o),
(84,685,cs),
(125,704,o),
(154,678,o),
(154,624,cs),
(154,595,l),
(64,572,o),
(20,559,o),
(20,506,cs),
(20,452,o),
(80,453,o),
(80,453,c),
(116,453,o),
(148,468,o),
(154,492,c),
(154,453,o),
(199,453,o),
(199,453,c),
(228,453,o),
(246,471,o),
(249,487,c)
);
}
);
width = 297;
}
);
note = ordfeminine;
unicode = 170;
},
{
glyphname = guillemotleft;
layers = (
{
hints = (
{
horizontal = 1;
place = (33, 21);
target = up;
type = BottomGhost;
},
{
horizontal = 1;
place = (505, -20);
target = down;
type = TopGhost;
}
);
layerId = m01;
shapes = (
{
closed = 1;
nodes = (
(522,505,l),
(291,266,l),
(522,33,l),
(522,59,l),
(374,266,l),
(522,479,l)
);
},
{
closed = 1;
nodes = (
(318,505,l),
(87,266,l),
(318,33,l),
(318,59,l),
(169,266,l),
(318,479,l)
);
}
);
width = 610;
}
);
note = guillemotleft;
unicode = 171;
},
{
glyphname = logicalnot;
layers = (
{
hints = (
{
horizontal = 1;
place = (84, 21);
target = up;
type = BottomGhost;
},
{
horizontal = 1;
place = (332, 61);
place = (332, 61);
type = Stem;
},
{
place = (534, 62);
place = (534, 62);
type = Stem;
}
);
layerId = m01;
shapes = (
{
closed = 1;
nodes = (
(41,393,l),
(41,332,l),
(534,332,l),
(534,84,l),
(596,84,l),
(596,393,l)
);
}
);
width = 644;
}
);
note = logicalnot;
unicode = 172;
},
{
glyphname = uni00AD;
layers = (
{
hints = (
{
horizontal = 1;
place = (220, 68);
place = (220, 68);
type = Stem;
}
);
layerId = m01;
shapes = (
{
closed = 1;
nodes = (
(379,220,l),
(379,288,l),
(64,288,l),
(64,220,l)
);
}
);
width = 444;
}
);
note = uni00AD;
unicode = 173;
},
{
glyphname = registered;
layers = (
{
hints = (
{
horizontal = 1;
place = (1, 51);
place = (1, 51);
type = Stem;
},
{
horizontal = 1;
place = (175, 187);
place = (175, 187);
type = Stem;
},
{
horizontal = 1;
place = (548, 187);
place = (548, 187);
type = Stem;
},
{
place = (31, 51);
place = (31, 51);
type = Stem;
},
{
place = (291, 53);
place = (291, 53);
type = Stem;
},
{
place = (470, 60);
place = (470, 60);
type = Stem;
},
{
place = (715, 52);
place = (715, 52);
type = Stem;
},
{
horizontal = 1;
place = (349, -20);
target = down;
type = TopGhost;
},
{
horizontal = 1;
place = (355, 206);
place = (355, 206);
type = Stem;
},
{
horizontal = 1;
place = (685, 50);
place = (685, 50);
type = Stem;
},
{
horizontal = 1;
place = (1, 187);
place = (1, 187);
type = Stem;
}
);
layerId = m01;
shapes = (
{
closed = 1;
nodes = (
(344,362,l),
(344,548,l),
(361,548,ls),
(420,548,o),
(470,548,o),
(470,457,cs),
(470,361,o),
(423,362,o),
(361,362,cs)
);
},
{
closed = 1;
nodes = (
(510,344,o),
(462,356,o),
(433,355,c),
(486,359,o),
(530,382,o),
(530,457,cs),
(530,548,o),
(470,561,o),
(361,561,cs),
(257,561,l),
(257,548,l),
(281,548,o),
(291,545,o),
(291,510,cs),
(291,245,ls),
(291,199,o),
(281,188,o),
(257,188,c),
(257,175,l),
(379,175,l),
(379,188,l),
(356,188,o),
(344,200,o),
(344,238,cs),
(344,349,l),
(370,349,l),
(370,349,o),
(441,349,o),
(455,295,cs),
(487,176,o),
(475,176,o),
(545,175,cs),
(589,175,l),
(589,188,l),
(575,188,o),
(538,189,o),
(530,230,cs)
);
},
{
closed = 1;
nodes = (
(195,735,o),
(31,571,o),
(31,368,cs),
(31,165,o),
(195,1,o),
(399,1,cs),
(602,1,o),
(767,165,o),
(767,368,cs),
(767,571,o),
(602,735,o),
(399,735,cs)
);
},
{
closed = 1;
nodes = (
(224,52,o),
(82,194,o),
(82,368,cs),
(82,543,o),
(224,685,o),
(399,685,cs),
(572,685,o),
(715,543,o),
(715,368,cs),
(715,194,o),
(572,52,o),
(399,52,cs)
);
}
);
width = 800;
}
);
note = registered;
unicode = 174;
},
{
glyphname = macron;
layers = (
{
hints = (
{
horizontal = 1;
place = (597, 51);
place = (597, 51);
type = Stem;
}
);
layerId = m01;
shapes = (
{
closed = 1;
nodes = (
(377,597,l),
(377,648,l),
(-16,648,l),
(-16,597,l)
);
}
);
width = 360;
}
);
note = macron;
unicode = 175;
},
{
glyphname = degree;
layers = (
{
hints = (
{
horizontal = 1;
place = (478, 32);
place = (478, 32);
type = Stem;
},
{
horizontal = 1;
place = (704, 33);
place = (704, 33);
type = Stem;
},
{
place = (57, 32);
place = (57, 32);
type = Stem;
},
{
place = (285, 32);
place = (285, 32);
type = Stem;
}
);
layerId = m01;
shapes = (
{
closed = 1;
nodes = (
(89,660,o),
(133,704,o),
(188,704,cs),
(241,704,o),
(285,660,o),
(285,607,cs),
(285,553,o),
(241,510,o),
(188,510,cs),
(133,510,o),
(89,553,o),
(89,607,cs)
);
},
{
closed = 1;
nodes = (
(57,536,o),
(116,478,o),
(187,478,cs),
(258,478,o),
(317,536,o),
(317,607,cs),
(317,679,o),
(258,737,o),
(187,737,cs),
(116,737,o),
(57,679,o),
(57,607,cs)
);
}
);
width = 381;
}
);
note = degree;
unicode = 176;
},
{
glyphname = plusminus;
layers = (
{
hints = (
{
horizontal = 1;
place = (0, 61);
place = (0, 61);
type = Stem;
},
{
horizontal = 1;
place = (140, -20);
target = down;
type = TopGhost;
},
{
horizontal = 1;
place = (306, 62);
place = (306, 62);
type = Stem;
},
{
horizontal = 1;
place = (535, -20);
target = down;
type = TopGhost;
},
{
place = (269, 62);
place = (269, 62);
type = Stem;
}
);
layerId = m01;
shapes = (
{
closed = 1;
nodes = (
(331,368,l),
(331,535,l),
(269,535,l),
(269,368,l),
(41,368,l),
(41,306,l),
(269,306,l),
(269,140,l),
(331,140,l),
(331,306,l),
(560,306,l),
(560,368,l)
);
},
{
closed = 1;
nodes = (
(41,0,l),
(560,0,l),
(560,61,l),
(41,61,l)
);
}
);
width = 608;
}
);
note = plusminus;
unicode = 177;
},
{
glyphname = twosuperior;
layers = (
{
hints = (
{
horizontal = 1;
place = (379, 41);
place = (379, 41);
type = Stem;
},
{
horizontal = 1;
place = (704, -20);
target = down;
type = TopGhost;
},
{
place = (30, 165);
place = (30, 165);
type = Stem;
}
);
layerId = m01;
shapes = (
{
closed = 1;
nodes = (
(201,445,l),
(191,428,o),
(176,420,o),
(161,420,cs),
(72,420,l),
(72,420,o),
(121,495,o),
(143,525,cs),
(179,572,o),
(195,599,o),
(195,629,cs),
(195,670,o),
(162,704,o),
(116,704,c),
(116,704,o),
(34,707,o),
(30,619,c),
(43,618,l),
(61,709,o),
(223,670,o),
(131,531,cs),
(30,379,l),
(196,379,l),
(214,445,l)
);
}
);
width = 259;
}
);
note = twosuperior;
unicode = 178;
},
{
glyphname = threesuperior;
layers = (
{
hints = (
{
horizontal = 1;
place = (385, -20);
target = down;
type = TopGhost;
},
{
horizontal = 1;
place = (535, 169);
place = (535, 169);
type = Stem;
},
{
horizontal = 1;
place = (373, 21);
target = up;
type = BottomGhost;
}
);
layerId = m01;
shapes = (
{
closed = 1;
nodes = (
(222,507,o),
(199,542,o),
(151,553,c),
(237,601,o),
(195,704,o),
(121,704,cs),
(116,704,o),
(40,704,o),
(35,630,c),
(49,629,l),
(57,670,o),
(107,686,o),
(137,661,cs),
(177,627,o),
(163,559,o),
(94,548,c),
(94,535,l),
(161,531,o),
(177,490,o),
(180,463,cs),
(185,413,o),
(160,385,o),
(117,385,cs),
(80,385,o),
(67,395,o),
(71,396,cs),
(77,398,o),
(80,402,o),
(83,408,cs),
(88,421,o),
(81,436,o),
(68,441,cs),
(55,446,o),
(41,439,o),
(36,426,cs),
(32,418,o),
(34,406,o),
(41,400,cs),
(54,387,o),
(80,373,o),
(117,373,cs),
(157,373,o),
(225,394,o),
(223,474,cs)
);
}
);
width = 263;
}
);
note = threesuperior;
unicode = 179;
},
{
glyphname = acute;
layers = (
{
hints = (
{
horizontal = 1;
place = (557, 21);
target = up;
type = BottomGhost;
},
{
horizontal = 1;
place = (720, -20);
target = down;
type = TopGhost;
}
);
layerId = m01;
shapes = (
{
closed = 1;
nodes = (
(87,557,l),
(110,557,l),
(345,695,l),
(264,720,l)
);
}
);
width = 349;
}
);
note = acute;
unicode = 180;
},
{
glyphname = mu;
layers = (
{
hints = (
{
horizontal = 1;
place = (471, -20);
target = down;
type = TopGhost;
},
{
place = (67, 86);
place = (67, 86);
type = Stem;
},
{
place = (360, 87);
place = (360, 87);
type = Stem;
}
);
layerId = m01;
shapes = (
{
closed = 1;
nodes = (
(456,29,o),
(447,35,o),
(447,83,cs),
(447,471,l),
(313,452,l),
(313,440,l),
(362,437,o),
(360,430,o),
(360,369,cs),
(360,117,l),
(342,75,o),
(306,40,o),
(256,40,cs),
(200,40,o),
(156,68,o),
(153,138,c),
(153,471,l),
(11,452,l),
(11,440,l),
(68,436,o),
(67,431,o),
(67,367,cs),
(67,-249,l),
(67,-249,o),
(66,-269,o),
(92,-264,cs),
(205,-245,l),
(205,-232,l),
(163,-228,o),
(153,-218,o),
(153,-169,cs),
(153,6,l),
(241,-39,o),
(341,23,o),
(360,92,c),
(360,7,l),
(360,7,o),
(360,-13,o),
(384,-8,cs),
(498,11,l),
(498,24,l)
);
}
);
width = 518;
}
);
note = mu;
unicode = 181;
},
{
glyphname = paragraph;
layers = (
{
hints = (
{
horizontal = 1;
place = (-265, 21);
target = up;
type = BottomGhost;
},
{
horizontal = 1;
place = (300, -20);
target = down;
type = TopGhost;
},
{
horizontal = 1;
place = (704, -20);
target = down;
type = TopGhost;
},
{
place = (286, 59);
place = (286, 59);
type = Stem;
},
{
place = (406, 59);
place = (406, 59);
type = Stem;
}
);
layerId = m01;
shapes = (
{
closed = 1;
nodes = (
(465,574,ls),
(465,644,o),
(497,691,o),
(547,691,c),
(547,704,l),
(406,704,l),
(406,-265,l),
(540,-265,l),
(540,-252,l),
(492,-252,o),
(465,-204,o),
(465,-126,cs)
);
},
{
closed = 1;
nodes = (
(287,704,l),
(286,704,ls),
(166,703,o),
(36,665,o),
(36,500,cs),
(36,334,o),
(150,300,o),
(286,300,c),
(286,-145,ls),
(286,-235,o),
(220,-252,o),
(172,-252,c),
(172,-265,l),
(345,-265,l),
(345,704,l)
);
}
);
width = 624;
}
);
note = paragraph;
unicode = 182;
},
{
glyphname = periodcentered;
layers = (
{
hints = (
{
horizontal = 1;
place = (253, 93);
place = (253, 93);
type = Stem;
},
{
place = (78, 94);
place = (78, 94);
type = Stem;
}
);
layerId = m01;
shapes = (
{
closed = 1;
nodes = (
(151,253,o),
(172,274,o),
(172,299,cs),
(172,325,o),
(151,346,o),
(125,346,cs),
(99,346,o),
(78,325,o),
(78,299,cs),
(78,274,o),
(99,253,o),
(125,253,cs)
);
}
);
width = 252;
}
);
note = periodcentered;
unicode = 183;
},
{
glyphname = cedilla;
layers = (
{
hints = (
{
horizontal = 1;
place = (-229, 21);
target = up;
type = BottomGhost;
},
{
horizontal = 1;
place = (-4, -20);
target = down;
type = TopGhost;
}
);
layerId = m01;
shapes = (
{
closed = 1;
nodes = (
(111,-4,l),
(81,-91,l),
(165,-73,o),
(186,-134,o),
(186,-160,cs),
(187,-198,o),
(161,-220,o),
(127,-220,cs),
(98,-219,o),
(90,-211,o),
(92,-210,cs),
(96,-208,o),
(100,-205,o),
(102,-199,cs),
(107,-186,o),
(100,-173,o),
(87,-169,cs),
(75,-164,o),
(61,-169,o),
(56,-182,cs),
(53,-191,o),
(56,-201,o),
(61,-207,cs),
(67,-213,o),
(87,-229,o),
(127,-229,cs),
(160,-229,o),
(221,-218,o),
(229,-149,cs),
(236,-98,o),
(195,-46,o),
(102,-67,c),
(124,-4,l)
);
}
);
width = 266;
}
);
note = cedilla;
unicode = 184;
},
{
glyphname = onesuperior;
layers = (
{
hints = (
{
horizontal = 1;
place = (393, -20);
target = down;
type = TopGhost;
},
{
horizontal = 1;
place = (705, -20);
target = down;
type = TopGhost;
},
{
place = (89, 42);
place = (89, 42);
type = Stem;
},
{
horizontal = 1;
place = (380, 21);
target = up;
type = BottomGhost;
}
);
layerId = m01;
shapes = (
{
closed = 1;
nodes = (
(131,705,l),
(115,705,l),
(42,648,l),
(50,636,l),
(65,647,o),
(89,660,o),
(89,629,cs),
(89,430,ls),
(89,396,o),
(69,393,o),
(50,393,c),
(50,380,l),
(167,380,l),
(167,393,l),
(150,393,o),
(131,395,o),
(131,430,cs)
);
}
);
width = 209;
}
);
note = onesuperior;
unicode = 185;
},
{
glyphname = ordmasculine;
layers = (
{
hints = (
{
horizontal = 1;
place = (386, -20);
target = down;
type = TopGhost;
},
{
horizontal = 1;
place = (707, -20);
target = down;
type = TopGhost;
},
{
place = (34, 51);
place = (34, 51);
type = Stem;
},
{
place = (238, 51);
place = (238, 51);
type = Stem;
},
{
horizontal = 1;
place = (373, 21);
target = up;
type = BottomGhost;
}
);
layerId = m01;
shapes = (
{
closed = 1;
nodes = (
(123,386,o),
(85,408,o),
(85,537,cs),
(85,668,o),
(122,694,o),
(162,694,cs),
(200,694,o),
(238,668,o),
(238,537,cs),
(238,408,o),
(202,386,o),
(162,386,cs)
);
},
{
closed = 1;
nodes = (
(57,707,o),
(34,619,o),
(34,537,cs),
(34,457,o),
(57,373,o),
(162,373,cs),
(265,373,o),
(289,457,o),
(289,537,cs),
(289,619,o),
(265,707,o),
(162,707,cs)
);
}
);
width = 326;
}
);
note = ordmasculine;
unicode = 186;
},
{
glyphname = guillemotright;
layers = (
{
hints = (
{
horizontal = 1;
place = (33, 21);
target = up;
type = BottomGhost;
},
{
horizontal = 1;
place = (505, -20);
target = down;
type = TopGhost;
}
);
layerId = m01;
shapes = (
{
closed = 1;
nodes = (
(83,479,l),
(231,266,l),
(83,59,l),
(83,33,l),
(314,266,l),
(83,505,l)
);
},
{
closed = 1;
nodes = (
(287,479,l),
(436,266,l),
(287,59,l),
(287,33,l),
(518,266,l),
(287,505,l)
);
}
);
width = 609;
}
);
note = guillemotright;
unicode = 187;
},
{
glyphname = onequarter;
layers = (
{
hints = (
{
horizontal = 1;
place = (0, 133);
place = (0, 133);
type = Stem;
},
{
horizontal = 1;
place = (388, -20);
target = down;
type = TopGhost;
},
{
horizontal = 1;
place = (709, -20);
target = down;
type = TopGhost;
},
{
horizontal = 1;
place = (746, -20);
target = down;
type = TopGhost;
},
{
place = (138, 44);
place = (138, 44);
type = Stem;
},
{
place = (452, 52);
place = (452, 52);
type = Stem;
},
{
horizontal = 1;
place = (375, -20);
target = down;
type = TopGhost;
},
{
horizontal = 1;
place = (106, 27);
place = (106, 27);
type = Stem;
}
);
layerId = m01;
shapes = (
{
closed = 1;
nodes = (
(14,36,l),
(63,36,l),
(620,709,l),
(570,709,l)
);
},
{
closed = 1;
nodes = (
(138,428,ls),
(138,390,o),
(117,388,o),
(96,388,c),
(96,375,l),
(221,375,l),
(221,388,l),
(203,388,o),
(182,388,o),
(182,428,cs),
(182,746,l),
(165,746,l),
(87,681,l),
(95,669,l),
(112,682,o),
(138,698,o),
(138,664,cs)
);
},
{
closed = 1;
nodes = (
(452,133,l),
(366,133,ls),
(352,133,o),
(345,133,o),
(358,155,c),
(452,295,l)
);
},
{
closed = 1;
nodes = (
(504,365,l),
(483,366,l),
(313,114,l),
(313,106,l),
(452,106,l),
(452,66,ls),
(452,15,o),
(435,13,o),
(414,13,c),
(414,0,l),
(543,0,l),
(543,13,l),
(521,13,o),
(504,14,o),
(504,68,cs),
(504,106,l),
(554,106,l),
(554,133,l),
(504,133,l)
);
}
);
width = 624;
}
);
note = onequarter;
unicode = 188;
},
{
glyphname = onehalf;
layers = (
{
hints = (
{
horizontal = 1;
place = (0, 47);
place = (0, 47);
type = Stem;
},
{
horizontal = 1;
place = (373, -20);
target = down;
type = TopGhost;
},
{
horizontal = 1;
place = (709, -20);
target = down;
type = TopGhost;
},
{
horizontal = 1;
place = (746, -20);
target = down;
type = TopGhost;
},
{
place = (138, 44);
place = (138, 44);
type = Stem;
},
{
place = (391, 187);
place = (391, 187);
type = Stem;
},
{
horizontal = 1;
place = (388, -20);
target = down;
type = TopGhost;
},
{
horizontal = 1;
place = (375, -20);
target = down;
type = TopGhost;
}
);
layerId = m01;
shapes = (
{
closed = 1;
nodes = (
(589,76,l),
(578,56,o),
(556,47,o),
(539,47,cs),
(436,47,l),
(436,47,o),
(492,133,o),
(517,167,cs),
(558,221,o),
(578,252,o),
(578,286,cs),
(578,333,o),
(541,373,o),
(488,373,c),
(488,373,o),
(396,376,o),
(391,275,c),
(403,272,l),
(423,378,o),
(610,333,o),
(505,174,cs),
(390,0,l),
(579,0,l),
(600,76,l)
);
},
{
closed = 1;
nodes = (
(138,428,ls),
(138,390,o),
(117,388,o),
(96,388,c),
(96,375,l),
(221,375,l),
(221,388,l),
(203,388,o),
(182,388,o),
(182,428,cs),
(182,746,l),
(165,746,l),
(87,681,l),
(95,670,l),
(112,683,o),
(138,698,o),
(138,664,cs)
);
},
{
closed = 1;
nodes = (
(14,36,l),
(63,36,l),
(620,709,l),
(570,709,l)
);
}
);
width = 642;
}
);
note = onehalf;
unicode = 189;
},
{
glyphname = threequarters;
layers = (
{
hints = (
{
horizontal = 1;
place = (0, 133);
place = (0, 133);
type = Stem;
},
{
horizontal = 1;
place = (386, -20);
target = down;
type = TopGhost;
},
{
horizontal = 1;
place = (559, 187);
place = (559, 187);
type = Stem;
},
{
place = (452, 52);
place = (452, 52);
type = Stem;
},
{
horizontal = 1;
place = (106, 27);
place = (106, 27);
type = Stem;
},
{
horizontal = 1;
place = (373, -20);
target = down;
type = TopGhost;
},
{
horizontal = 1;
place = (709, -20);
target = down;
type = TopGhost;
}
);
layerId = m01;
shapes = (
{
closed = 1;
nodes = (
(452,133,l),
(366,133,ls),
(352,133,o),
(345,133,o),
(358,155,c),
(452,295,l)
);
},
{
closed = 1;
nodes = (
(554,106,l),
(554,133,l),
(504,133,l),
(504,365,l),
(483,366,l),
(313,114,l),
(313,106,l),
(452,106,l),
(452,66,ls),
(452,15,o),
(435,13,o),
(414,13,c),
(414,0,l),
(543,0,l),
(543,13,l),
(521,13,o),
(504,14,o),
(504,68,cs),
(504,106,l)
);
},
{
closed = 1;
nodes = (
(262,524,o),
(236,565,o),
(182,576,c),
(279,630,o),
(232,746,o),
(148,746,cs),
(143,746,o),
(58,746,o),
(53,663,c),
(67,660,l),
(77,706,o),
(133,724,o),
(167,697,cs),
(212,660,o),
(196,583,o),
(117,570,c),
(117,559,l),
(194,554,o),
(212,505,o),
(215,475,cs),
(221,416,o),
(197,386,o),
(144,386,cs),
(103,386,o),
(91,397,o),
(95,399,cs),
(99,400,o),
(102,404,o),
(106,411,c),
(111,426,o),
(104,442,o),
(89,449,cs),
(74,454,o),
(58,447,o),
(52,432,cs),
(49,423,o),
(50,409,o),
(58,402,cs),
(73,387,o),
(102,373,o),
(144,373,cs),
(190,373,o),
(264,394,o),
(264,487,cs)
);
},
{
closed = 1;
nodes = (
(14,36,l),
(63,36,l),
(620,709,l),
(570,709,l)
);
}
);
width = 641;
}
);
note = threequarters;
unicode = 190;
},
{
glyphname = questiondown;
layers = (
{
hints = (
{
horizontal = 1;
place = (346, 127);
place = (346, 127);
type = Stem;
},
{
place = (260, 127);
place = (260, 127);
type = Stem;
}
);
layerId = m01;
shapes = (
{
closed = 1;
nodes = (
(260,374,o),
(288,346,o),
(324,346,cs),
(359,346,o),
(387,374,o),
(387,409,cs),
(387,445,o),
(359,473,o),
(324,473,cs),
(288,473,o),
(260,445,o),
(260,409,cs)
);
},
{
closed = 1;
nodes = (
(198,113,o),
(94,53,o),
(101,-92,cs),
(108,-236,o),
(271,-309,o),
(431,-237,cs),
(479,-216,o),
(505,-175,o),
(510,-155,cs),
(514,-138,o),
(516,-117,o),
(504,-101,cs),
(487,-77,o),
(454,-69,o),
(430,-86,cs),
(407,-103,o),
(401,-136,o),
(418,-160,cs),
(426,-172,o),
(437,-180,o),
(450,-181,cs),
(462,-182,o),
(468,-210,o),
(426,-226,cs),
(342,-259,o),
(222,-241,o),
(208,-88,cs),
(198,29,o),
(246,73,o),
(290,111,cs),
(354,164,o),
(348,229,o),
(342,268,c),
(322,265,l),
(327,205,o),
(304,156,o),
(253,136,cs)
);
}
);
width = 588;
}
);
note = questiondown;
unicode = 191;
},
{
glyphname = Agrave;
kernLeft = A;
kernRight = A;
layers = (
{
hints = (
{
horizontal = 1;
place = (0, 226);
place = (0, 226);
type = Stem;
},
{
horizontal = 1;
place = (704, -20);
target = down;
type = TopGhost;
},
{
horizontal = 1;
place = (213, -20);
target = down;
type = TopGhost;
},
{
horizontal = 1;
place = (734, 21);
target = up;
type = BottomGhost;
},
{
horizontal = 1;
place = (897, -20);
target = down;
type = TopGhost;
}
);
layerId = m01;
shapes = (
{
closed = 1;
nodes = (
(427,226,l),
(296,558,l),
(175,226,l)
);
},
{
closed = 1;
nodes = (
(673,0,l),
(445,0,l),
(445,13,l),
(499,13,o),
(489,70,o),
(466,126,cs),
(431,213,l),
(172,213,l),
(145,133,o),
(101,9,o),
(240,13,c),
(240,0,l),
(17,0,l),
(17,13,l),
(55,14,o),
(80,18,o),
(167,249,cs),
(334,704,l),
(345,704,l),
(467,410,o),
(591,94,o),
(591,94,c),
(624,14,o),
(645,15,o),
(673,13,c)
);
},
{
closed = 1;
nodes = (
(285,897,l),
(204,872,l),
(439,734,l),
(462,734,l)
);
}
);
width = 693;
}
);
note = Agrave;
unicode = 192;
},
{
glyphname = Aacute;
kernLeft = A;
kernRight = A;
layers = (
{
hints = (
{
horizontal = 1;
place = (0, 226);
place = (0, 226);
type = Stem;
},
{
horizontal = 1;
place = (704, -20);
target = down;
type = TopGhost;
},
{
horizontal = 1;
place = (213, -20);
target = down;
type = TopGhost;
},
{
horizontal = 1;
place = (734, 21);
target = up;
type = BottomGhost;
},
{
horizontal = 1;
place = (897, -20);
target = down;
type = TopGhost;
}
);
layerId = m01;
shapes = (
{
closed = 1;
nodes = (
(175,226,l),
(296,558,l),
(427,226,l)
);
},
{
closed = 1;
nodes = (
(673,13,l),
(645,15,o),
(624,14,o),
(591,94,c),
(591,94,o),
(467,410,o),
(345,704,c),
(334,704,l),
(167,249,ls),
(80,18,o),
(55,14,o),
(17,13,c),
(17,0,l),
(240,0,l),
(240,13,l),
(101,9,o),
(145,133,o),
(172,213,c),
(431,213,l),
(466,126,ls),
(489,70,o),
(499,13,o),
(445,13,c),
(445,0,l),
(673,0,l)
);
},
{
closed = 1;
nodes = (
(220,734,l),
(243,734,l),
(478,872,l),
(397,897,l)
);
}
);
width = 693;
}
);
note = Aacute;
unicode = 193;
},
{
glyphname = Acircumflex;
kernLeft = A;
kernRight = A;
layers = (
{
hints = (
{
horizontal = 1;
place = (0, 226);
place = (0, 226);
type = Stem;
},
{
horizontal = 1;
place = (704, -20);
target = down;
type = TopGhost;
},
{
horizontal = 1;
place = (213, -20);
target = down;
type = TopGhost;
},
{
horizontal = 1;
place = (735, 20);
place = (735, 20);
type = Stem;
},
{
horizontal = 1;
place = (902, 21);
place = (902, 21);
type = Stem;
}
);
layerId = m01;
shapes = (
{
closed = 1;
nodes = (
(427,226,l),
(296,558,l),
(175,226,l)
);
},
{
closed = 1;
nodes = (
(673,0,l),
(445,0,l),
(445,13,l),
(499,13,o),
(489,70,o),
(466,126,cs),
(431,213,l),
(172,213,l),
(145,133,o),
(101,9,o),
(240,13,c),
(240,0,l),
(17,0,l),
(17,13,l),
(55,14,o),
(80,18,o),
(167,249,cs),
(334,704,l),
(345,704,l),
(467,410,o),
(591,94,o),
(591,94,c),
(624,14,o),
(645,15,o),
(673,13,c)
);
},
{
closed = 1;
nodes = (
(460,735,l),
(484,735,l),
(341,923,l),
(199,735,l),
(222,735,l),
(341,837,l)
);
}
);
width = 693;
}
);
note = Acircumflex;
unicode = 194;
},
{
glyphname = Atilde;
kernLeft = A;
kernRight = A;
layers = (
{
hints = (
{
horizontal = 1;
place = (0, 226);
place = (0, 226);
type = Stem;
},
{
horizontal = 1;
place = (704, -20);
target = down;
type = TopGhost;
},
{
horizontal = 1;
place = (213, -20);
target = down;
type = TopGhost;
}
);
layerId = m01;
shapes = (
{
closed = 1;
nodes = (
(385,767,l),
(385,767,o),
(508,723,o),
(569,877,c),
(560,881,l),
(535,827,o),
(444,822,o),
(411,834,cs),
(296,878,l),
(296,878,o),
(173,920,o),
(113,768,c),
(122,764,l),
(149,823,o),
(238,822,o),
(271,810,cs)
);
},
{
closed = 1;
nodes = (
(175,226,l),
(296,558,l),
(427,226,l)
);
},
{
closed = 1;
nodes = (
(673,13,l),
(645,15,o),
(624,14,o),
(591,94,c),
(591,94,o),
(467,410,o),
(345,704,c),
(334,704,l),
(167,249,ls),
(80,18,o),
(55,14,o),
(17,13,c),
(17,0,l),
(240,0,l),
(240,13,l),
(101,9,o),
(145,133,o),
(172,213,c),
(431,213,l),
(466,126,ls),
(489,70,o),
(499,13,o),
(445,13,c),
(445,0,l),
(673,0,l)
);
}
);
width = 693;
}
);
note = Atilde;
unicode = 195;
},
{
glyphname = Adieresis;
kernLeft = A;
kernRight = A;
layers = (
{
hints = (
{
horizontal = 1;
place = (781, 93);
place = (781, 93);
type = Stem;
},
{
place = (215, 92);
place = (215, 92);
type = Stem;
},
{
place = (374, 93);
place = (374, 93);
type = Stem;
},
{
horizontal = 1;
place = (0, 226);
place = (0, 226);
type = Stem;
},
{
horizontal = 1;
place = (704, -20);
target = down;
type = TopGhost;
},
{
horizontal = 1;
place = (213, -20);
target = down;
type = TopGhost;
}
);
layerId = m01;
shapes = (
{
closed = 1;
nodes = (
(374,802,o),
(395,781,o),
(420,781,cs),
(446,781,o),
(467,802,o),
(467,827,cs),
(467,853,o),
(446,874,o),
(420,874,cs),
(395,874,o),
(374,853,o),
(374,827,cs)
);
},
{
closed = 1;
nodes = (
(215,802,o),
(235,781,o),
(261,781,cs),
(286,781,o),
(307,802,o),
(307,827,cs),
(307,853,o),
(286,874,o),
(261,874,cs),
(235,874,o),
(215,853,o),
(215,827,cs)
);
},
{
closed = 1;
nodes = (
(175,226,l),
(296,558,l),
(427,226,l)
);
},
{
closed = 1;
nodes = (
(673,13,l),
(645,15,o),
(624,14,o),
(591,94,c),
(591,94,o),
(467,410,o),
(345,704,c),
(334,704,l),
(167,249,ls),
(80,18,o),
(55,14,o),
(17,13,c),
(17,0,l),
(240,0,l),
(240,13,l),
(101,9,o),
(145,133,o),
(172,213,c),
(431,213,l),
(466,126,ls),
(489,70,o),
(499,13,o),
(445,13,c),
(445,0,l),
(673,0,l)
);
}
);
width = 693;
}
);
note = Adieresis;
unicode = 196;
},
{
glyphname = Aring;
kernLeft = A;
kernRight = A;
layers = (
{
hints = (
{
horizontal = 1;
place = (781, 34);
place = (781, 34);
type = Stem;
},
{
horizontal = 1;
place = (944, 35);
place = (944, 35);
type = Stem;
},
{
place = (242, 34);
place = (242, 34);
type = Stem;
},
{
place = (405, 35);
place = (405, 35);
type = Stem;
},
{
horizontal = 1;
place = (0, 226);
place = (0, 226);
type = Stem;
},
{
horizontal = 1;
place = (704, -20);
target = down;
type = TopGhost;
},
{
horizontal = 1;
place = (213, -20);
target = down;
type = TopGhost;
}
);
layerId = m01;
shapes = (
{
closed = 1;
nodes = (
(276,915,o),
(305,944,o),
(341,944,cs),
(377,944,o),
(405,915,o),
(405,879,cs),
(405,844,o),
(377,815,o),
(341,815,cs),
(305,815,o),
(276,844,o),
(276,879,cs)
);
},
{
closed = 1;
nodes = (
(242,825,o),
(286,781,o),
(341,781,cs),
(395,781,o),
(440,825,o),
(440,879,cs),
(440,934,o),
(395,979,o),
(341,979,cs),
(286,979,o),
(242,934,o),
(242,879,cs)
);
},
{
closed = 1;
nodes = (
(175,226,l),
(296,558,l),
(427,226,l)
);
},
{
closed = 1;
nodes = (
(673,13,l),
(645,15,o),
(624,14,o),
(591,94,c),
(591,94,o),
(467,410,o),
(345,704,c),
(334,704,l),
(167,249,ls),
(80,18,o),
(55,14,o),
(17,13,c),
(17,0,l),
(240,0,l),
(240,13,l),
(101,9,o),
(145,133,o),
(172,213,c),
(431,213,l),
(466,126,ls),
(489,70,o),
(499,13,o),
(445,13,c),
(445,0,l),
(673,0,l)
);
}
);
width = 693;
}
);
note = Aring;
unicode = 197;
},
{
glyphname = AE;
kernLeft = A;
layers = (
{
hints = (
{
horizontal = 1;
place = (0, 249);
place = (0, 249);
type = Stem;
},
{
horizontal = 1;
place = (348, -20);
target = down;
type = TopGhost;
},
{
horizontal = 1;
place = (462, -20);
target = down;
type = TopGhost;
},
{
horizontal = 1;
place = (704, -20);
target = down;
type = TopGhost;
},
{
place = (450, 104);
place = (450, 104);
type = Stem;
},
{
horizontal = 1;
place = (207, -20);
target = down;
type = TopGhost;
},
{
horizontal = 1;
place = (248, -20);
target = down;
type = TopGhost;
},
{
horizontal = 1;
place = (361, -20);
target = down;
type = TopGhost;
},
{
horizontal = 1;
place = (236, -20);
target = down;
type = TopGhost;
}
);
layerId = m01;
shapes = (
{
closed = 1;
nodes = (
(231,249,l),
(448,638,l),
(450,631,o),
(450,608,o),
(450,598,cs),
(450,249,l)
);
},
{
closed = 1;
nodes = (
(867,207,l),
(847,9,o),
(679,13,o),
(590,13,cs),
(554,13,l),
(554,348,l),
(609,348,ls),
(634,348,o),
(732,352,o),
(737,248,c),
(750,248,l),
(750,462,l),
(737,462,l),
(732,358,o),
(636,361,o),
(609,361,cs),
(554,361,l),
(554,691,l),
(598,691,ls),
(679,691,o),
(842,690,o),
(853,524,c),
(866,524,l),
(866,704,l),
(380,704,l),
(380,691,l),
(409,691,o),
(432,689,o),
(443,659,c),
(222,263,ls),
(93,34,o),
(47,14,o),
(9,13,c),
(9,0,l),
(238,0,l),
(238,13,l),
(158,13,o),
(118,40,o),
(225,236,c),
(450,236,l),
(450,117,ls),
(450,31,o),
(430,13,o),
(388,13,c),
(388,0,l),
(880,0,l),
(880,207,l)
);
}
);
width = 939;
}
);
note = AE;
unicode = 198;
},
{
glyphname = Ccedilla;
kernLeft = C;
kernRight = C;
layers = (
{
hints = (
{
horizontal = 1;
place = (-9, 21);
target = up;
type = BottomGhost;
},
{
horizontal = 1;
place = (207, -20);
target = down;
type = TopGhost;
},
{
horizontal = 1;
place = (713, -20);
target = down;
type = TopGhost;
},
{
place = (40, 128);
place = (40, 128);
type = Stem;
}
);
layerId = m01;
shapes = (
{
closed = 1;
nodes = (
(603,207,l),
(590,55,o),
(468,4,o),
(387,4,cs),
(286,4,o),
(168,45,o),
(168,352,cs),
(168,654,o),
(283,700,o),
(387,700,cs),
(468,700,o),
(575,662,o),
(603,497,c),
(616,497,l),
(628,652,l),
(565,703,o),
(490,713,o),
(387,713,cs),
(180,713,o),
(40,577,o),
(40,352,cs),
(40,139,o),
(167,4,o),
(358,-8,c),
(331,-87,l),
(415,-69,o),
(436,-130,o),
(436,-156,cs),
(437,-194,o),
(411,-216,o),
(377,-216,cs),
(348,-215,o),
(340,-207,o),
(342,-206,cs),
(346,-204,o),
(350,-201,o),
(352,-195,cs),
(357,-182,o),
(350,-169,o),
(337,-165,cs),
(325,-160,o),
(311,-165,o),
(306,-178,cs),
(303,-187,o),
(306,-197,o),
(311,-203,cs),
(317,-209,o),
(337,-225,o),
(377,-225,cs),
(410,-225,o),
(471,-214,o),
(479,-145,cs),
(486,-94,o),
(445,-42,o),
(352,-63,c),
(371,-9,l),
(376,-9,o),
(381,-9,o),
(387,-9,cs),
(494,-9,o),
(554,4,o),
(628,53,c),
(616,207,l)
);
}
);
width = 671;
}
);
note = Ccedilla;
unicode = 199;
},
{
glyphname = Egrave;
layers = (
{
hints = (
{
horizontal = 1;
place = (0, 21);
target = up;
type = BottomGhost;
},
{
horizontal = 1;
place = (218, -20);
target = down;
type = TopGhost;
},
{
horizontal = 1;
place = (243, -20);
target = down;
type = TopGhost;
},
{
horizontal = 1;
place = (350, -20);
target = down;
type = TopGhost;
},
{
horizontal = 1;
place = (704, -20);
target = down;
type = TopGhost;
},
{
horizontal = 1;
place = (955, -20);
target = down;
type = TopGhost;
},
{
place = (80, 145);
place = (80, 145);
type = Stem;
},
{
horizontal = 1;
place = (208, -20);
target = down;
type = TopGhost;
},
{
horizontal = 1;
place = (248, -20);
target = down;
type = TopGhost;
},
{
horizontal = 1;
place = (349, -20);
target = down;
type = TopGhost;
},
{
horizontal = 1;
place = (463, -20);
target = down;
type = TopGhost;
},
{
place = (85, 103);
place = (85, 103);
type = Stem;
},
{
horizontal = 1;
place = (362, -20);
target = down;
type = TopGhost;
}
);
layerId = m01;
shapes = (
{
closed = 1;
nodes = (
(534,208,l),
(534,0,l),
(31,0,l),
(31,13,l),
(73,13,o),
(85,49,o),
(85,117,cs),
(85,597,ls),
(85,659,o),
(75,691,o),
(31,691,c),
(31,704,l),
(521,704,l),
(521,524,l),
(508,524,l),
(496,689,o),
(323,691,o),
(242,691,cs),
(188,691,l),
(188,362,l),
(253,362,ls),
(280,362,o),
(386,362,o),
(391,463,c),
(404,463,l),
(404,248,l),
(391,248,l),
(386,348,o),
(278,349,o),
(253,349,cs),
(188,349,l),
(188,13,l),
(234,13,ls),
(323,13,o),
(500,8,o),
(521,208,c)
);
},
{
closed = 1;
nodes = (
(239,897,l),
(158,872,l),
(393,734,l),
(416,734,l)
);
}
);
width = 596;
}
);
note = Egrave;
unicode = 200;
},
{
glyphname = Eacute;
layers = (
{
hints = (
{
horizontal = 1;
place = (0, 21);
target = up;
type = BottomGhost;
},
{
horizontal = 1;
place = (218, -20);
target = down;
type = TopGhost;
},
{
horizontal = 1;
place = (243, -20);
target = down;
type = TopGhost;
},
{
horizontal = 1;
place = (350, -20);
target = down;
type = TopGhost;
},
{
horizontal = 1;
place = (704, -20);
target = down;
type = TopGhost;
},
{
horizontal = 1;
place = (956, -20);
target = down;
type = TopGhost;
},
{
place = (80, 145);
place = (80, 145);
type = Stem;
},
{
horizontal = 1;
place = (208, -20);
target = down;
type = TopGhost;
},
{
horizontal = 1;
place = (248, -20);
target = down;
type = TopGhost;
},
{
horizontal = 1;
place = (349, -20);
target = down;
type = TopGhost;
},
{
horizontal = 1;
place = (463, -20);
target = down;
type = TopGhost;
},
{
place = (85, 103);
place = (85, 103);
type = Stem;
},
{
horizontal = 1;
place = (362, -20);
target = down;
type = TopGhost;
},
{
horizontal = 1;
place = (734, 21);
target = up;
type = BottomGhost;
},
{
horizontal = 1;
place = (897, -20);
target = down;
type = TopGhost;
}
);
layerId = m01;
shapes = (
{
closed = 1;
nodes = (
(521,208,l),
(500,8,o),
(323,13,o),
(234,13,cs),
(188,13,l),
(188,349,l),
(253,349,ls),
(278,349,o),
(386,348,o),
(391,248,c),
(404,248,l),
(404,463,l),
(391,463,l),
(386,362,o),
(280,362,o),
(253,362,cs),
(188,362,l),
(188,691,l),
(242,691,ls),
(323,691,o),
(496,689,o),
(508,524,c),
(521,524,l),
(521,704,l),
(31,704,l),
(31,691,l),
(75,691,o),
(85,659,o),
(85,597,cs),
(85,117,ls),
(85,49,o),
(73,13,o),
(31,13,c),
(31,0,l),
(534,0,l),
(534,208,l)
);
},
{
closed = 1;
nodes = (
(153,734,l),
(176,734,l),
(411,872,l),
(330,897,l)
);
}
);
width = 596;
}
);
note = Eacute;
unicode = 201;
},
{
glyphname = Ecircumflex;
layers = (
{
hints = (
{
horizontal = 1;
place = (0, 21);
target = up;
type = BottomGhost;
},
{
horizontal = 1;
place = (218, -20);
target = down;
type = TopGhost;
},
{
horizontal = 1;
place = (243, -20);
target = down;
type = TopGhost;
},
{
horizontal = 1;
place = (350, -20);
target = down;
type = TopGhost;
},
{
horizontal = 1;
place = (704, 83);
place = (704, 83);
type = Stem;
},
{
horizontal = 1;
place = (975, -20);
target = down;
type = TopGhost;
},
{
place = (80, 145);
place = (80, 145);
type = Stem;
},
{
horizontal = 1;
place = (208, -20);
target = down;
type = TopGhost;
},
{
horizontal = 1;
place = (248, -20);
target = down;
type = TopGhost;
},
{
horizontal = 1;
place = (349, -20);
target = down;
type = TopGhost;
},
{
horizontal = 1;
place = (463, -20);
target = down;
type = TopGhost;
},
{
horizontal = 1;
place = (704, -20);
target = down;
type = TopGhost;
},
{
place = (85, 103);
place = (85, 103);
type = Stem;
},
{
horizontal = 1;
place = (362, -20);
target = down;
type = TopGhost;
}
);
layerId = m01;
shapes = (
{
closed = 1;
nodes = (
(534,208,l),
(534,0,l),
(31,0,l),
(31,13,l),
(73,13,o),
(85,49,o),
(85,117,cs),
(85,597,ls),
(85,659,o),
(75,691,o),
(31,691,c),
(31,704,l),
(521,704,l),
(521,524,l),
(508,524,l),
(496,689,o),
(323,691,o),
(242,691,cs),
(188,691,l),
(188,362,l),
(253,362,ls),
(280,362,o),
(386,362,o),
(391,463,c),
(404,463,l),
(404,248,l),
(391,248,l),
(386,348,o),
(278,349,o),
(253,349,cs),
(188,349,l),
(188,13,l),
(234,13,ls),
(323,13,o),
(500,8,o),
(521,208,c)
);
},
{
closed = 1;
nodes = (
(403,735,l),
(427,735,l),
(284,923,l),
(142,735,l),
(165,735,l),
(284,837,l)
);
}
);
width = 596;
}
);
note = Ecircumflex;
unicode = 202;
},
{
glyphname = Edieresis;
layers = (
{
hints = (
{
horizontal = 1;
place = (781, 93);
place = (781, 93);
type = Stem;
},
{
place = (158, 92);
place = (158, 92);
type = Stem;
},
{
place = (317, 93);
place = (317, 93);
type = Stem;
},
{
horizontal = 1;
place = (0, 21);
target = up;
type = BottomGhost;
},
{
horizontal = 1;
place = (208, -20);
target = down;
type = TopGhost;
},
{
horizontal = 1;
place = (248, -20);
target = down;
type = TopGhost;
},
{
horizontal = 1;
place = (349, -20);
target = down;
type = TopGhost;
},
{
horizontal = 1;
place = (463, -20);
target = down;
type = TopGhost;
},
{
horizontal = 1;
place = (704, -20);
target = down;
type = TopGhost;
},
{
place = (85, 103);
place = (85, 103);
type = Stem;
},
{
horizontal = 1;
place = (362, -20);
target = down;
type = TopGhost;
}
);
layerId = m01;
shapes = (
{
closed = 1;
nodes = (
(317,802,o),
(338,781,o),
(363,781,cs),
(389,781,o),
(410,802,o),
(410,827,cs),
(410,853,o),
(389,874,o),
(363,874,cs),
(338,874,o),
(317,853,o),
(317,827,cs)
);
},
{
closed = 1;
nodes = (
(158,802,o),
(178,781,o),
(204,781,cs),
(229,781,o),
(250,802,o),
(250,827,cs),
(250,853,o),
(229,874,o),
(204,874,cs),
(178,874,o),
(158,853,o),
(158,827,cs)
);
},
{
closed = 1;
nodes = (
(521,208,l),
(500,8,o),
(323,13,o),
(234,13,cs),
(188,13,l),
(188,349,l),
(253,349,ls),
(278,349,o),
(386,348,o),
(391,248,c),
(404,248,l),
(404,463,l),
(391,463,l),
(386,362,o),
(280,362,o),
(253,362,cs),
(188,362,l),
(188,691,l),
(242,691,ls),
(323,691,o),
(496,689,o),
(508,524,c),
(521,524,l),
(521,704,l),
(31,704,l),
(31,691,l),
(75,691,o),
(85,659,o),
(85,597,cs),
(85,117,ls),
(85,49,o),
(73,13,o),
(31,13,c),
(31,0,l),
(534,0,l),
(534,208,l)
);
}
);
width = 596;
}
);
note = Edieresis;
unicode = 203;
},
{
glyphname = Igrave;
layers = (
{
hints = (
{
horizontal = 1;
place = (0, 21);
target = up;
type = BottomGhost;
},
{
horizontal = 1;
place = (704, -20);
target = down;
type = TopGhost;
},
{
place = (122, 103);
place = (122, 103);
type = Stem;
},
{
horizontal = 1;
place = (734, 21);
target = up;
type = BottomGhost;
},
{
horizontal = 1;
place = (897, -20);
target = down;
type = TopGhost;
}
);
layerId = m01;
shapes = (
{
closed = 1;
nodes = (
(295,704,l),
(295,691,l),
(252,691,o),
(225,674,o),
(225,612,cs),
(225,107,ls),
(225,39,o),
(253,13,o),
(295,13,c),
(295,0,l),
(52,0,l),
(52,13,l),
(95,13,o),
(122,39,o),
(122,107,cs),
(122,612,ls),
(122,674,o),
(96,691,o),
(52,691,c),
(52,704,l)
);
},
{
closed = 1;
nodes = (
(119,897,l),
(38,872,l),
(273,734,l),
(296,734,l)
);
}
);
width = 344;
}
);
note = Igrave;
unicode = 204;
},
{
glyphname = Iacute;
layers = (
{
hints = (
{
horizontal = 1;
place = (0, 21);
target = up;
type = BottomGhost;
},
{
horizontal = 1;
place = (704, -20);
target = down;
type = TopGhost;
},
{
place = (122, 103);
place = (122, 103);
type = Stem;
},
{
horizontal = 1;
place = (734, 21);
target = up;
type = BottomGhost;
},
{
horizontal = 1;
place = (897, -20);
target = down;
type = TopGhost;
}
);
layerId = m01;
shapes = (
{
closed = 1;
nodes = (
(52,704,l),
(52,691,l),
(96,691,o),
(122,674,o),
(122,612,cs),
(122,107,ls),
(122,39,o),
(95,13,o),
(52,13,c),
(52,0,l),
(295,0,l),
(295,13,l),
(253,13,o),
(225,39,o),
(225,107,cs),
(225,612,ls),
(225,674,o),
(252,691,o),
(295,691,c),
(295,704,l)
);
},
{
closed = 1;
nodes = (
(42,734,l),
(65,734,l),
(300,872,l),
(219,897,l)
);
}
);
width = 344;
}
);
note = Iacute;
unicode = 205;
},
{
glyphname = Icircumflex;
layers = (
{
hints = (
{
horizontal = 1;
place = (0, 21);
target = up;
type = BottomGhost;
},
{
horizontal = 1;
place = (704, -20);
target = down;
type = TopGhost;
},
{
place = (122, 103);
place = (122, 103);
type = Stem;
},
{
horizontal = 1;
place = (735, 20);
place = (735, 20);
type = Stem;
},
{
horizontal = 1;
place = (902, 21);
place = (902, 21);
type = Stem;
}
);
layerId = m01;
shapes = (
{
closed = 1;
nodes = (
(295,704,l),
(295,691,l),
(252,691,o),
(225,674,o),
(225,612,cs),
(225,107,ls),
(225,39,o),
(253,13,o),
(295,13,c),
(295,0,l),
(52,0,l),
(52,13,l),
(95,13,o),
(122,39,o),
(122,107,cs),
(122,612,ls),
(122,674,o),
(96,691,o),
(52,691,c),
(52,704,l)
);
},
{
closed = 1;
nodes = (
(293,735,l),
(317,735,l),
(174,923,l),
(32,735,l),
(55,735,l),
(174,837,l)
);
}
);
width = 344;
}
);
note = Icircumflex;
unicode = 206;
},
{
glyphname = Idieresis;
layers = (
{
hints = (
{
horizontal = 1;
place = (0, 21);
target = up;
type = BottomGhost;
},
{
horizontal = 1;
place = (704, -20);
target = down;
type = TopGhost;
},
{
horizontal = 1;
place = (781, 93);
place = (781, 93);
type = Stem;
},
{
place = (48, 93);
place = (48, 93);
type = Stem;
},
{
place = (208, 93);
place = (208, 93);
type = Stem;
},
{
horizontal = 1;
place = (691, 183);
place = (691, 183);
type = Stem;
},
{
place = (123, 102);
place = (123, 102);
type = Stem;
}
);
layerId = m01;
shapes = (
{
closed = 1;
nodes = (
(279,781,o),
(301,802,o),
(301,827,cs),
(301,853,o),
(279,874,o),
(254,874,cs),
(228,874,o),
(208,853,o),
(208,827,cs),
(208,802,o),
(228,781,o),
(254,781,cs)
);
},
{
closed = 1;
nodes = (
(141,853,o),
(120,874,o),
(94,874,cs),
(69,874,o),
(48,853,o),
(48,827,cs),
(48,802,o),
(69,781,o),
(94,781,cs),
(120,781,o),
(141,802,o),
(141,827,cs)
);
},
{
closed = 1;
nodes = (
(53,691,l),
(97,691,o),
(123,674,o),
(123,612,cs),
(123,107,ls),
(123,39,o),
(95,13,o),
(53,13,c),
(53,0,l),
(295,0,l),
(295,13,l),
(253,13,o),
(225,39,o),
(225,107,cs),
(225,612,ls),
(225,674,o),
(252,691,o),
(295,691,c),
(295,704,l),
(53,704,l)
);
}
);
width = 344;
}
);
note = Idieresis;
unicode = 207;
},
{
glyphname = Eth;
kernRight = D;
layers = (
{
hints = (
{
horizontal = 1;
place = (0, 21);
target = up;
type = BottomGhost;
},
{
horizontal = 1;
place = (361, -20);
target = down;
type = TopGhost;
},
{
horizontal = 1;
place = (704, -20);
target = down;
type = TopGhost;
},
{
place = (112, 103);
place = (112, 103);
type = Stem;
},
{
place = (536, 120);
place = (536, 120);
type = Stem;
},
{
horizontal = 1;
place = (342, -20);
target = down;
type = TopGhost;
}
);
layerId = m01;
shapes = (
{
closed = 1;
nodes = (
(536,18,o),
(367,13,o),
(259,13,cs),
(215,13,l),
(215,342,l),
(358,342,l),
(358,361,l),
(215,361,l),
(215,691,l),
(259,691,ls),
(369,691,o),
(536,673,o),
(536,350,cs)
);
},
{
closed = 1;
nodes = (
(656,643,o),
(458,704,o),
(259,704,cs),
(44,704,l),
(44,691,l),
(88,691,o),
(112,648,o),
(112,586,cs),
(112,361,l),
(20,361,l),
(20,342,l),
(112,342,l),
(112,119,ls),
(112,51,o),
(87,13,o),
(44,13,c),
(44,0,l),
(259,0,ls),
(458,0,o),
(656,48,o),
(656,350,cs)
);
}
);
width = 711;
}
);
note = Eth;
unicode = 208;
},
{
glyphname = Ntilde;
kernRight = N;
layers = (
{
hints = (
{
horizontal = 1;
place = (0, 21);
target = up;
type = BottomGhost;
},
{
horizontal = 1;
place = (704, -20);
target = down;
type = TopGhost;
}
);
layerId = m01;
shapes = (
{
closed = 1;
nodes = (
(443,767,l),
(443,767,o),
(566,723,o),
(627,877,c),
(617,881,l),
(593,827,o),
(501,822,o),
(468,834,cs),
(354,878,l),
(354,878,o),
(230,920,o),
(170,768,c),
(179,764,l),
(206,823,o),
(295,822,o),
(328,810,cs)
);
},
{
closed = 1;
nodes = (
(496,704,l),
(496,692,l),
(628,692,o),
(627,548,o),
(627,455,cs),
(627,146,l),
(195,704,l),
(10,704,l),
(10,692,l),
(36,690,o),
(65,696,o),
(129,616,cs),
(170,563,l),
(170,250,ls),
(170,160,o),
(170,13,o),
(25,13,c),
(25,0,l),
(314,0,l),
(314,13,l),
(183,13,o),
(183,162,o),
(183,250,cs),
(183,548,l),
(608,0,l),
(640,0,l),
(640,455,ls),
(640,548,o),
(637,692,o),
(782,692,c),
(782,704,l)
);
}
);
width = 807;
}
);
note = Ntilde;
unicode = 209;
},
{
glyphname = Ograve;
kernLeft = O;
kernRight = O;
layers = (
{
hints = (
{
horizontal = 1;
place = (-8, 21);
target = up;
type = BottomGhost;
},
{
horizontal = 1;
place = (713, -20);
target = down;
type = TopGhost;
},
{
horizontal = 1;
place = (959, -20);
target = down;
type = TopGhost;
},
{
place = (42, 171);
place = (42, 171);
type = Stem;
},
{
place = (559, 173);
place = (559, 173);
type = Stem;
},
{
horizontal = 1;
place = (-9, 21);
target = up;
type = BottomGhost;
},
{
place = (41, 115);
place = (41, 115);
type = Stem;
},
{
place = (575, 116);
place = (575, 116);
type = Stem;
}
);
layerId = m01;
shapes = (
{
closed = 1;
nodes = (
(575,621,o),
(484,700,o),
(366,700,cs),
(247,700,o),
(156,621,o),
(156,347,cs),
(156,72,o),
(247,4,o),
(366,4,cs),
(484,4,o),
(575,72,o),
(575,347,cs)
);
},
{
closed = 1;
nodes = (
(691,148,o),
(586,-9,o),
(366,-9,cs),
(146,-9,o),
(41,148,o),
(41,347,cs),
(41,545,o),
(146,713,o),
(366,713,cs),
(586,713,o),
(691,545,o),
(691,347,cs)
);
},
{
closed = 1;
nodes = (
(325,897,l),
(244,872,l),
(479,734,l),
(502,734,l)
);
}
);
width = 738;
}
);
note = Ograve;
unicode = 210;
},
{
glyphname = Oacute;
kernLeft = O;
kernRight = O;
layers = (
{
hints = (
{
horizontal = 1;
place = (-9, 21);
target = up;
type = BottomGhost;
},
{
horizontal = 1;
place = (713, -20);
target = down;
type = TopGhost;
},
{
place = (41, 115);
place = (41, 115);
type = Stem;
},
{
place = (575, 116);
place = (575, 116);
type = Stem;
},
{
horizontal = 1;
place = (734, 21);
target = up;
type = BottomGhost;
},
{
horizontal = 1;
place = (897, -20);
target = down;
type = TopGhost;
}
);
layerId = m01;
shapes = (
{
closed = 1;
nodes = (
(575,72,o),
(484,4,o),
(366,4,cs),
(247,4,o),
(156,72,o),
(156,347,cs),
(156,621,o),
(247,700,o),
(366,700,cs),
(484,700,o),
(575,621,o),
(575,347,cs)
);
},
{
closed = 1;
nodes = (
(691,545,o),
(586,713,o),
(366,713,cs),
(146,713,o),
(41,545,o),
(41,347,cs),
(41,148,o),
(146,-9,o),
(366,-9,cs),
(586,-9,o),
(691,148,o),
(691,347,cs)
);
},
{
closed = 1;
nodes = (
(246,734,l),
(269,734,l),
(504,872,l),
(423,897,l)
);
}
);
width = 738;
}
);
note = Oacute;
unicode = 211;
},
{
glyphname = Ocircumflex;
kernLeft = O;
kernRight = O;
layers = (
{
hints = (
{
horizontal = 1;
place = (-8, 21);
target = up;
type = BottomGhost;
},
{
horizontal = 1;
place = (704, -20);
target = down;
type = TopGhost;
},
{
horizontal = 1;
place = (713, 78);
place = (713, 78);
type = Stem;
},
{
horizontal = 1;
place = (979, -20);
target = down;
type = TopGhost;
},
{
place = (42, 171);
place = (42, 171);
type = Stem;
},
{
place = (559, 173);
place = (559, 173);
type = Stem;
},
{
horizontal = 1;
place = (-9, 21);
target = up;
type = BottomGhost;
},
{
horizontal = 1;
place = (713, -20);
target = down;
type = TopGhost;
},
{
place = (41, 115);
place = (41, 115);
type = Stem;
},
{
place = (575, 116);
place = (575, 116);
type = Stem;
}
);
layerId = m01;
shapes = (
{
closed = 1;
nodes = (
(575,621,o),
(484,700,o),
(366,700,cs),
(247,700,o),
(156,621,o),
(156,347,cs),
(156,72,o),
(247,4,o),
(366,4,cs),
(484,4,o),
(575,72,o),
(575,347,cs)
);
},
{
closed = 1;
nodes = (
(691,148,o),
(586,-9,o),
(366,-9,cs),
(146,-9,o),
(41,148,o),
(41,347,cs),
(41,545,o),
(146,713,o),
(366,713,cs),
(586,713,o),
(691,545,o),
(691,347,cs)
);
},
{
closed = 1;
nodes = (
(488,735,l),
(512,735,l),
(369,923,l),
(227,735,l),
(250,735,l),
(369,837,l)
);
}
);
width = 738;
}
);
note = Ocircumflex;
unicode = 212;
},
{
glyphname = Otilde;
kernLeft = O;
kernRight = O;
layers = (
{
hints = (
{
horizontal = 1;
place = (-9, 21);
target = up;
type = BottomGhost;
},
{
horizontal = 1;
place = (713, -20);
target = down;
type = TopGhost;
},
{
place = (41, 115);
place = (41, 115);
type = Stem;
},
{
place = (575, 116);
place = (575, 116);
type = Stem;
}
);
layerId = m01;
shapes = (
{
closed = 1;
nodes = (
(415,767,l),
(415,767,o),
(538,723,o),
(599,877,c),
(589,881,l),
(565,827,o),
(473,822,o),
(440,834,cs),
(326,878,l),
(326,878,o),
(202,920,o),
(142,768,c),
(151,764,l),
(178,822,o),
(267,822,o),
(300,810,cs)
);
},
{
closed = 1;
nodes = (
(575,621,o),
(484,700,o),
(366,700,cs),
(247,700,o),
(156,621,o),
(156,347,cs),
(156,72,o),
(247,4,o),
(366,4,cs),
(484,4,o),
(575,72,o),
(575,347,cs)
);
},
{
closed = 1;
nodes = (
(691,148,o),
(586,-9,o),
(366,-9,cs),
(146,-9,o),
(41,148,o),
(41,347,cs),
(41,545,o),
(146,713,o),
(366,713,cs),
(586,713,o),
(691,545,o),
(691,347,cs)
);
}
);
width = 738;
}
);
note = Otilde;
unicode = 213;
},
{
glyphname = Odieresis;
kernLeft = O;
kernRight = O;
layers = (
{
hints = (
{
horizontal = 1;
place = (781, 93);
place = (781, 93);
type = Stem;
},
{
place = (241, 93);
place = (241, 93);
type = Stem;
},
{
place = (401, 93);
place = (401, 93);
type = Stem;
},
{
horizontal = 1;
place = (-9, 21);
target = up;
type = BottomGhost;
},
{
horizontal = 1;
place = (713, -20);
target = down;
type = TopGhost;
},
{
place = (41, 115);
place = (41, 115);
type = Stem;
},
{
place = (575, 116);
place = (575, 116);
type = Stem;
}
);
layerId = m01;
shapes = (
{
closed = 1;
nodes = (
(401,801,o),
(421,781,o),
(447,781,cs),
(472,781,o),
(494,801,o),
(494,827,cs),
(494,853,o),
(472,874,o),
(447,874,cs),
(421,874,o),
(401,853,o),
(401,827,cs)
);
},
{
closed = 1;
nodes = (
(241,801,o),
(262,781,o),
(287,781,cs),
(313,781,o),
(334,801,o),
(334,827,cs),
(334,853,o),
(313,874,o),
(287,874,cs),
(262,874,o),
(241,853,o),
(241,827,cs)
);
},
{
closed = 1;
nodes = (
(575,72,o),
(484,4,o),
(366,4,cs),
(247,4,o),
(156,72,o),
(156,347,cs),
(156,621,o),
(247,700,o),
(366,700,cs),
(484,700,o),
(575,621,o),
(575,347,cs)
);
},
{
closed = 1;
nodes = (
(691,545,o),
(586,713,o),
(366,713,cs),
(146,713,o),
(41,545,o),
(41,347,cs),
(41,148,o),
(146,-9,o),
(366,-9,cs),
(586,-9,o),
(691,148,o),
(691,347,cs)
);
}
);
width = 738;
}
);
note = Odieresis;
unicode = 214;
},
{
glyphname = multiply;
layers = (
{
hints = (
{
horizontal = 1;
place = (13, 21);
target = up;
type = BottomGhost;
},
{
horizontal = 1;
place = (495, -20);
target = down;
type = TopGhost;
}
);
layerId = m01;
shapes = (
{
closed = 1;
nodes = (
(349,255,l),
(540,445,l),
(491,495,l),
(300,305,l),
(110,495,l),
(60,444,l),
(251,255,l),
(59,63,l),
(109,13,l),
(300,205,l),
(492,13,l),
(541,63,l)
);
}
);
width = 600;
}
);
note = multiply;
unicode = 215;
},
{
glyphname = Oslash;
kernLeft = O;
kernRight = O;
layers = (
{
hints = (
{
horizontal = 1;
place = (-35, 21);
target = up;
type = BottomGhost;
},
{
horizontal = 1;
place = (-9, 21);
target = up;
type = BottomGhost;
},
{
horizontal = 1;
place = (713, -20);
target = down;
type = TopGhost;
},
{
horizontal = 1;
place = (745, -20);
target = down;
type = TopGhost;
},
{
place = (42, 115);
place = (42, 115);
type = Stem;
},
{
place = (576, 116);
place = (576, 116);
type = Stem;
}
);
layerId = m01;
shapes = (
{
closed = 1;
nodes = (
(307,4,o),
(256,22,o),
(220,77,c),
(530,597,l),
(558,543,o),
(576,463,o),
(576,348,cs),
(576,72,o),
(485,4,o),
(367,4,cs)
);
},
{
closed = 1;
nodes = (
(157,622,o),
(248,700,o),
(367,700,cs),
(430,700,o),
(484,679,o),
(521,617,c),
(209,94,l),
(178,146,o),
(157,227,o),
(157,348,cs)
);
},
{
closed = 1;
nodes = (
(619,745,l),
(598,745,l),
(549,664,l),
(501,696,o),
(441,713,o),
(367,713,cs),
(147,713,o),
(42,546,o),
(42,348,cs),
(42,218,o),
(87,106,o),
(179,44,c),
(132,-35,l),
(153,-35,l),
(194,34,l),
(241,7,o),
(298,-9,o),
(367,-9,cs),
(587,-9,o),
(692,148,o),
(692,348,cs),
(692,473,o),
(650,586,o),
(564,653,c)
);
}
);
width = 739;
}
);
note = Oslash;
unicode = 216;
},
{
glyphname = Ugrave;
kernLeft = U;
kernRight = U;
layers = (
{
hints = (
{
horizontal = 1;
place = (-9, 60);
place = (-9, 60);
type = Stem;
},
{
horizontal = 1;
place = (704, -20);
target = down;
type = TopGhost;
},
{
place = (92, 145);
place = (92, 145);
type = Stem;
},
{
horizontal = 1;
place = (734, 21);
target = up;
type = BottomGhost;
},
{
horizontal = 1;
place = (897, -20);
target = down;
type = TopGhost;
}
);
layerId = m01;
shapes = (
{
closed = 1;
nodes = (
(308,897,l),
(227,872,l),
(462,734,l),
(485,734,l)
);
},
{
closed = 1;
nodes = (
(192,-9,o),
(90,77,o),
(90,240,cs),
(90,604,ls),
(90,672,o),
(63,691,o),
(19,691,c),
(19,704,l),
(268,704,l),
(268,691,l),
(225,691,o),
(189,682,o),
(189,603,cs),
(189,231,ls),
(189,107,o),
(263,36,o),
(371,36,cs),
(473,36,o),
(552,107,o),
(552,236,cs),
(552,508,ls),
(552,602,o),
(550,691,o),
(433,691,c),
(433,704,l),
(693,704,l),
(693,691,l),
(562,691,o),
(565,602,o),
(565,508,cs),
(565,236,ls),
(565,57,o),
(445,-9,o),
(322,-9,cs)
);
}
);
width = 716;
}
);
note = Ugrave;
unicode = 217;
},
{
glyphname = Uacute;
kernLeft = U;
kernRight = U;
layers = (
{
hints = (
{
horizontal = 1;
place = (-9, 60);
place = (-9, 60);
type = Stem;
},
{
horizontal = 1;
place = (704, -20);
target = down;
type = TopGhost;
},
{
horizontal = 1;
place = (959, -20);
target = down;
type = TopGhost;
},
{
place = (92, 145);
place = (92, 145);
type = Stem;
},
{
horizontal = 1;
place = (-9, 45);
place = (-9, 45);
type = Stem;
},
{
place = (90, 99);
place = (90, 99);
type = Stem;
},
{
horizontal = 1;
place = (734, 21);
target = up;
type = BottomGhost;
},
{
horizontal = 1;
place = (897, -20);
target = down;
type = TopGhost;
}
);
layerId = m01;
shapes = (
{
closed = 1;
nodes = (
(445,-9,o),
(565,57,o),
(565,236,cs),
(565,508,ls),
(565,602,o),
(562,691,o),
(693,691,c),
(693,704,l),
(433,704,l),
(433,691,l),
(550,691,o),
(552,602,o),
(552,508,cs),
(552,236,ls),
(552,107,o),
(473,36,o),
(371,36,cs),
(263,36,o),
(189,107,o),
(189,231,cs),
(189,603,ls),
(189,682,o),
(225,691,o),
(268,691,c),
(268,704,l),
(19,704,l),
(19,691,l),
(63,691,o),
(90,672,o),
(90,604,cs),
(90,240,ls),
(90,77,o),
(192,-9,o),
(322,-9,cs)
);
},
{
closed = 1;
nodes = (
(233,734,l),
(256,734,l),
(491,872,l),
(410,897,l)
);
}
);
width = 716;
}
);
note = Uacute;
unicode = 218;
},
{
glyphname = Ucircumflex;
kernLeft = U;
kernRight = U;
layers = (
{
hints = (
{
horizontal = 1;
place = (-9, 60);
place = (-9, 60);
type = Stem;
},
{
horizontal = 1;
place = (704, -20);
target = down;
type = TopGhost;
},
{
place = (92, 145);
place = (92, 145);
type = Stem;
},
{
horizontal = 1;
place = (735, 20);
place = (735, 20);
type = Stem;
},
{
horizontal = 1;
place = (902, 21);
place = (902, 21);
type = Stem;
}
);
layerId = m01;
shapes = (
{
closed = 1;
nodes = (
(472,735,l),
(496,735,l),
(353,923,l),
(211,735,l),
(234,735,l),
(353,837,l)
);
},
{
closed = 1;
nodes = (
(192,-9,o),
(90,77,o),
(90,240,cs),
(90,604,ls),
(90,672,o),
(63,691,o),
(19,691,c),
(19,704,l),
(268,704,l),
(268,691,l),
(225,691,o),
(189,682,o),
(189,603,cs),
(189,231,ls),
(189,107,o),
(263,36,o),
(371,36,cs),
(473,36,o),
(552,107,o),
(552,236,cs),
(552,508,ls),
(552,602,o),
(550,691,o),
(433,691,c),
(433,704,l),
(693,704,l),
(693,691,l),
(562,691,o),
(565,602,o),
(565,508,cs),
(565,236,ls),
(565,57,o),
(445,-9,o),
(322,-9,cs)
);
}
);
width = 716;
}
);
note = Ucircumflex;
unicode = 219;
},
{
glyphname = Udieresis;
kernLeft = U;
kernRight = U;
layers = (
{
hints = (
{
horizontal = 1;
place = (781, 93);
place = (781, 93);
type = Stem;
},
{
place = (229, 93);
place = (229, 93);
type = Stem;
},
{
place = (389, 93);
place = (389, 93);
type = Stem;
},
{
horizontal = 1;
place = (-9, 45);
place = (-9, 45);
type = Stem;
},
{
horizontal = 1;
place = (704, -20);
target = down;
type = TopGhost;
},
{
place = (90, 99);
place = (90, 99);
type = Stem;
}
);
layerId = m01;
shapes = (
{
closed = 1;
nodes = (
(389,801,o),
(409,781,o),
(435,781,cs),
(460,781,o),
(482,801,o),
(482,827,cs),
(482,853,o),
(460,874,o),
(435,874,cs),
(409,874,o),
(389,853,o),
(389,827,cs)
);
},
{
closed = 1;
nodes = (
(229,801,o),
(250,781,o),
(275,781,cs),
(301,781,o),
(322,801,o),
(322,827,cs),
(322,853,o),
(301,874,o),
(275,874,cs),
(250,874,o),
(229,853,o),
(229,827,cs)
);
},
{
closed = 1;
nodes = (
(445,-9,o),
(565,57,o),
(565,236,cs),
(565,508,ls),
(565,602,o),
(562,691,o),
(693,691,c),
(693,704,l),
(433,704,l),
(433,691,l),
(550,691,o),
(552,602,o),
(552,508,cs),
(552,236,ls),
(552,107,o),
(473,36,o),
(371,36,cs),
(263,36,o),
(189,107,o),
(189,231,cs),
(189,603,ls),
(189,682,o),
(225,691,o),
(268,691,c),
(268,704,l),
(19,704,l),
(19,691,l),
(63,691,o),
(90,672,o),
(90,604,cs),
(90,240,ls),
(90,77,o),
(192,-9,o),
(322,-9,cs)
);
}
);
width = 716;
}
);
note = Udieresis;
unicode = 220;
},
{
glyphname = Yacute;
kernLeft = Y;
kernRight = Y;
layers = (
{
hints = (
{
horizontal = 1;
place = (0, 21);
target = up;
type = BottomGhost;
},
{
horizontal = 1;
place = (704, -20);
target = down;
type = TopGhost;
},
{
place = (302, 94);
place = (302, 94);
type = Stem;
},
{
horizontal = 1;
place = (734, 21);
target = up;
type = BottomGhost;
},
{
horizontal = 1;
place = (897, -20);
target = down;
type = TopGhost;
}
);
layerId = m01;
shapes = (
{
closed = 1;
nodes = (
(421,704,l),
(421,692,l),
(556,692,o),
(497,557,o),
(464,487,cs),
(389,332,l),
(243,579,ls),
(175,694,o),
(238,693,o),
(266,693,c),
(266,704,l),
(9,704,l),
(9,693,l),
(42,691,o),
(69,690,o),
(114,614,c),
(114,614,o),
(155,548,o),
(302,288,c),
(302,112,ls),
(302,31,o),
(269,13,o),
(227,13,c),
(227,0,l),
(471,0,l),
(471,13,l),
(429,13,o),
(396,31,o),
(396,112,cs),
(396,314,l),
(473,470,ls),
(585,690,o),
(635,692,o),
(678,692,c),
(678,704,l)
);
},
{
closed = 1;
nodes = (
(236,734,l),
(259,734,l),
(494,872,l),
(413,897,l)
);
}
);
width = 692;
}
);
note = Yacute;
unicode = 221;
},
{
glyphname = Thorn;
layers = (
{
hints = (
{
horizontal = 1;
place = (177, -20);
target = down;
type = TopGhost;
},
{
horizontal = 1;
place = (565, 139);
place = (565, 139);
type = Stem;
},
{
place = (112, 97);
place = (112, 97);
type = Stem;
},
{
place = (450, 109);
place = (450, 109);
type = Stem;
},
{
horizontal = 1;
place = (0, 190);
place = (0, 190);
type = Stem;
}
);
layerId = m01;
shapes = (
{
closed = 1;
nodes = (
(209,565,l),
(227,565,ls),
(344,565,o),
(450,566,o),
(450,376,cs),
(450,191,o),
(350,190,o),
(227,190,cs),
(209,190,l)
);
},
{
closed = 1;
nodes = (
(227,177,ls),
(426,177,o),
(559,199,o),
(559,376,cs),
(559,554,o),
(426,578,o),
(227,578,cs),
(209,578,l),
(209,602,ls),
(209,664,o),
(234,691,o),
(277,691,c),
(277,704,l),
(45,704,l),
(45,691,l),
(89,691,o),
(112,664,o),
(112,602,cs),
(112,117,ls),
(112,49,o),
(87,13,o),
(45,13,c),
(45,0,l),
(277,0,l),
(277,13,l),
(235,13,o),
(209,49,o),
(209,117,cs),
(209,177,l)
);
}
);
width = 580;
}
);
note = Thorn;
unicode = 222;
},
{
glyphname = germandbls;
kernRight = s;
layers = (
{
hints = (
{
horizontal = 1;
place = (0, 21);
target = up;
type = BottomGhost;
},
{
horizontal = 1;
place = (410, -20);
target = down;
type = TopGhost;
},
{
horizontal = 1;
place = (747, -20);
target = down;
type = TopGhost;
},
{
place = (68, 90);
place = (68, 90);
type = Stem;
},
{
place = (452, 108);
place = (452, 108);
type = Stem;
},
{
horizontal = 1;
place = (-9, 21);
target = up;
type = BottomGhost;
},
{
place = (381, 88);
place = (381, 88);
type = Stem;
}
);
layerId = m01;
shapes = (
{
closed = 1;
nodes = (
(560,373,o),
(401,419,o),
(330,419,cs),
(350,419,o),
(469,450,o),
(469,574,cs),
(469,715,o),
(364,747,o),
(256,747,cs),
(126,747,o),
(68,656,o),
(68,503,cs),
(68,117,ls),
(68,66,o),
(66,24,o),
(28,12,c),
(28,0,l),
(158,0,l),
(158,546,l),
(158,546,o),
(156,734,o),
(256,734,cs),
(273,734,o),
(381,741,o),
(381,578,cs),
(381,441,o),
(313,422,o),
(260,422,c),
(260,410,l),
(333,410,o),
(450,368,o),
(452,209,cs),
(454,88,o),
(423,4,o),
(336,4,cs),
(296,4,o),
(281,21,o),
(291,24,cs),
(300,26,o),
(311,33,o),
(317,44,cs),
(327,64,o),
(321,94,o),
(300,105,cs),
(279,116,o),
(251,109,o),
(239,88,cs),
(231,73,o),
(233,52,o),
(240,38,cs),
(249,19,o),
(280,-9,o),
(336,-9,cs),
(497,-9,o),
(560,82,o),
(560,202,cs)
);
}
);
width = 584;
}
);
note = germandbls;
unicode = 223;
},
{
glyphname = agrave;
kernLeft = a;
kernRight = a;
layers = (
{
hints = (
{
horizontal = 1;
place = (-8, 60);
place = (-8, 60);
type = Stem;
},
{
horizontal = 1;
place = (697, -20);
target = down;
type = TopGhost;
},
{
place = (41, 128);
place = (41, 128);
type = Stem;
},
{
place = (300, 126);
place = (300, 126);
type = Stem;
},
{
horizontal = 1;
place = (-9, 45);
place = (-9, 45);
type = Stem;
},
{
horizontal = 1;
place = (471, -20);
target = down;
type = TopGhost;
},
{
place = (41, 89);
place = (41, 89);
type = Stem;
},
{
place = (297, 90);
place = (297, 90);
type = Stem;
}
);
layerId = m01;
shapes = (
{
closed = 1;
nodes = (
(297,247,o),
(297,99,o),
(297,98,c),
(287,74,o),
(262,36,o),
(209,36,cs),
(148,36,o),
(130,86,o),
(130,115,cs),
(130,175,o),
(181,219,o),
(297,247,c)
);
},
{
closed = 1;
nodes = (
(386,38,o),
(387,101,o),
(387,101,c),
(387,271,ls),
(387,390,o),
(357,471,o),
(248,471,c),
(248,471,o),
(199,474,o),
(156,452,cs),
(102,423,o),
(85,393,o),
(78,378,cs),
(70,364,o),
(72,344,o),
(83,329,cs),
(98,308,o),
(127,304,o),
(147,320,cs),
(168,335,o),
(172,365,o),
(157,385,cs),
(149,396,o),
(138,401,o),
(126,403,cs),
(120,404,o),
(126,423,o),
(165,442,cs),
(245,479,o),
(297,421,o),
(297,318,cs),
(297,260,l),
(126,216,o),
(41,194,o),
(41,94,cs),
(41,-9,o),
(155,-9,o),
(155,-9,c),
(225,-9,o),
(283,27,o),
(297,75,c),
(303,-11,o),
(382,-9,o),
(382,-9,c),
(434,-9,o),
(468,29,o),
(474,59,c),
(462,64,l),
(455,38,o),
(432,38,o),
(432,38,c)
);
},
{
closed = 1;
nodes = (
(192,703,l),
(111,678,l),
(346,540,l),
(369,540,l)
);
}
);
width = 485;
}
);
note = agrave;
unicode = 224;
},
{
glyphname = aacute;
kernLeft = a;
kernRight = a;
layers = (
{
hints = (
{
horizontal = 1;
place = (-9, 45);
place = (-9, 45);
type = Stem;
},
{
horizontal = 1;
place = (471, -20);
target = down;
type = TopGhost;
},
{
place = (41, 89);
place = (41, 89);
type = Stem;
},
{
place = (297, 90);
place = (297, 90);
type = Stem;
},
{
horizontal = 1;
place = (540, 21);
target = up;
type = BottomGhost;
},
{
horizontal = 1;
place = (703, -20);
target = down;
type = TopGhost;
}
);
layerId = m01;
shapes = (
{
closed = 1;
nodes = (
(297,247,o),
(297,99,o),
(297,98,c),
(287,74,o),
(262,36,o),
(209,36,cs),
(148,36,o),
(130,86,o),
(130,115,cs),
(130,175,o),
(181,219,o),
(297,247,c)
);
},
{
closed = 1;
nodes = (
(386,38,o),
(387,101,o),
(387,101,c),
(387,271,ls),
(387,390,o),
(357,471,o),
(248,471,c),
(248,471,o),
(199,474,o),
(156,452,cs),
(102,423,o),
(85,393,o),
(78,378,cs),
(70,364,o),
(72,344,o),
(83,329,cs),
(98,308,o),
(127,304,o),
(147,320,cs),
(168,335,o),
(172,365,o),
(157,385,cs),
(149,396,o),
(138,401,o),
(126,403,cs),
(120,404,o),
(126,423,o),
(165,442,cs),
(245,479,o),
(297,421,o),
(297,318,cs),
(297,260,l),
(126,216,o),
(41,194,o),
(41,94,cs),
(41,-9,o),
(155,-9,o),
(155,-9,c),
(225,-9,o),
(283,27,o),
(297,75,c),
(303,-11,o),
(382,-9,o),
(382,-9,c),
(434,-9,o),
(468,29,o),
(474,59,c),
(462,64,l),
(455,38,o),
(432,38,o),
(432,38,c)
);
},
{
closed = 1;
nodes = (
(123,540,l),
(146,540,l),
(381,678,l),
(300,703,l)
);
}
);
width = 485;
}
);
note = aacute;
unicode = 225;
},
{
glyphname = acircumflex;
kernLeft = a;
kernRight = a;
layers = (
{
hints = (
{
horizontal = 1;
place = (-8, 60);
place = (-8, 60);
type = Stem;
},
{
horizontal = 1;
place = (467, 66);
place = (467, 66);
type = Stem;
},
{
horizontal = 1;
place = (721, -20);
target = down;
type = TopGhost;
},
{
place = (41, 128);
place = (41, 128);
type = Stem;
},
{
place = (300, 126);
place = (300, 126);
type = Stem;
},
{
horizontal = 1;
place = (-9, 45);
place = (-9, 45);
type = Stem;
},
{
horizontal = 1;
place = (471, -20);
target = down;
type = TopGhost;
},
{
place = (41, 89);
place = (41, 89);
type = Stem;
},
{
place = (297, 90);
place = (297, 90);
type = Stem;
}
);
layerId = m01;
shapes = (
{
closed = 1;
nodes = (
(297,247,o),
(297,99,o),
(297,98,c),
(287,74,o),
(262,36,o),
(209,36,cs),
(148,36,o),
(130,86,o),
(130,115,cs),
(130,175,o),
(181,219,o),
(297,247,c)
);
},
{
closed = 1;
nodes = (
(386,38,o),
(387,101,o),
(387,101,c),
(387,271,ls),
(387,390,o),
(357,471,o),
(248,471,c),
(248,471,o),
(199,474,o),
(156,452,cs),
(102,423,o),
(85,393,o),
(78,378,cs),
(70,364,o),
(72,344,o),
(83,329,cs),
(98,308,o),
(127,304,o),
(147,320,cs),
(168,335,o),
(172,365,o),
(157,385,cs),
(149,396,o),
(138,401,o),
(126,403,cs),
(120,404,o),
(126,423,o),
(165,442,cs),
(245,479,o),
(297,421,o),
(297,318,cs),
(297,260,l),
(126,216,o),
(41,194,o),
(41,94,cs),
(41,-9,o),
(155,-9,o),
(155,-9,c),
(225,-9,o),
(283,27,o),
(297,75,c),
(303,-11,o),
(382,-9,o),
(382,-9,c),
(434,-9,o),
(468,29,o),
(474,59,c),
(462,64,l),
(455,38,o),
(432,38,o),
(432,38,c)
);
},
{
closed = 1;
nodes = (
(369,517,l),
(393,517,l),
(250,705,l),
(108,517,l),
(131,517,l),
(250,619,l)
);
}
);
width = 485;
}
);
note = acircumflex;
unicode = 226;
},
{
glyphname = atilde;
kernLeft = a;
kernRight = a;
layers = (
{
hints = (
{
horizontal = 1;
place = (-9, 45);
place = (-9, 45);
type = Stem;
},
{
horizontal = 1;
place = (471, -20);
target = down;
type = TopGhost;
},
{
place = (41, 89);
place = (41, 89);
type = Stem;
},
{
place = (297, 90);
place = (297, 90);
type = Stem;
}
);
layerId = m01;
shapes = (
{
closed = 1;
nodes = (
(300,562,l),
(300,562,o),
(423,518,o),
(484,671,c),
(474,676,l),
(450,621,o),
(358,616,o),
(325,629,cs),
(211,672,l),
(211,672,o),
(87,715,o),
(27,563,c),
(36,559,l),
(63,617,o),
(152,617,o),
(185,605,cs)
);
},
{
closed = 1;
nodes = (
(297,247,o),
(297,99,o),
(297,98,c),
(287,74,o),
(262,36,o),
(209,36,cs),
(148,36,o),
(130,86,o),
(130,115,cs),
(130,175,o),
(181,219,o),
(297,247,c)
);
},
{
closed = 1;
nodes = (
(386,38,o),
(387,101,o),
(387,101,c),
(387,271,ls),
(387,390,o),
(357,471,o),
(248,471,c),
(248,471,o),
(199,474,o),
(156,452,cs),
(102,423,o),
(85,393,o),
(78,378,cs),
(70,364,o),
(72,344,o),
(83,329,cs),
(98,308,o),
(127,304,o),
(147,320,cs),
(168,335,o),
(172,365,o),
(157,385,cs),
(149,396,o),
(138,401,o),
(126,403,cs),
(120,404,o),
(126,423,o),
(165,442,cs),
(245,479,o),
(297,421,o),
(297,318,cs),
(297,260,l),
(126,216,o),
(41,194,o),
(41,94,cs),
(41,-9,o),
(155,-9,o),
(155,-9,c),
(225,-9,o),
(283,27,o),
(297,75,c),
(303,-11,o),
(382,-9,o),
(382,-9,c),
(434,-9,o),
(468,29,o),
(474,59,c),
(462,64,l),
(455,38,o),
(432,38,o),
(432,38,c)
);
}
);
width = 485;
}
);
note = atilde;
unicode = 227;
},
{
glyphname = adieresis;
kernLeft = a;
kernRight = a;
layers = (
{
hints = (
{
horizontal = 1;
place = (569, 94);
place = (569, 94);
type = Stem;
},
{
place = (118, 92);
place = (118, 92);
type = Stem;
},
{
place = (277, 93);
place = (277, 93);
type = Stem;
},
{
horizontal = 1;
place = (-9, 45);
place = (-9, 45);
type = Stem;
},
{
horizontal = 1;
place = (471, -20);
target = down;
type = TopGhost;
},
{
place = (41, 89);
place = (41, 89);
type = Stem;
},
{
place = (297, 90);
place = (297, 90);
type = Stem;
}
);
layerId = m01;
shapes = (
{
closed = 1;
nodes = (
(349,569,o),
(370,590,o),
(370,616,cs),
(370,642,o),
(349,663,o),
(323,663,cs),
(297,663,o),
(277,642,o),
(277,616,cs),
(277,590,o),
(297,569,o),
(323,569,cs)
);
},
{
closed = 1;
nodes = (
(118,590,o),
(138,569,o),
(164,569,cs),
(189,569,o),
(210,590,o),
(210,616,cs),
(210,642,o),
(189,663,o),
(164,663,cs),
(138,663,o),
(118,642,o),
(118,616,cs)
);
},
{
closed = 1;
nodes = (
(297,247,o),
(297,99,o),
(297,98,c),
(287,74,o),
(262,36,o),
(209,36,cs),
(148,36,o),
(130,86,o),
(130,115,cs),
(130,175,o),
(181,219,o),
(297,247,c)
);
},
{
closed = 1;
nodes = (
(386,38,o),
(387,101,o),
(387,101,c),
(387,271,ls),
(387,390,o),
(357,471,o),
(248,471,c),
(248,471,o),
(199,474,o),
(156,452,cs),
(102,423,o),
(85,393,o),
(78,378,cs),
(70,364,o),
(72,344,o),
(83,329,cs),
(98,308,o),
(127,304,o),
(147,320,cs),
(168,335,o),
(172,365,o),
(157,385,cs),
(149,396,o),
(138,401,o),
(126,403,cs),
(120,404,o),
(126,423,o),
(165,442,cs),
(245,479,o),
(297,421,o),
(297,318,cs),
(297,260,l),
(126,216,o),
(41,194,o),
(41,94,cs),
(41,-9,o),
(155,-9,o),
(155,-9,c),
(225,-9,o),
(283,27,o),
(297,75,c),
(303,-11,o),
(382,-9,o),
(382,-9,c),
(434,-9,o),
(468,29,o),
(474,59,c),
(462,64,l),
(455,38,o),
(432,38,o),
(432,38,c)
);
}
);
width = 485;
}
);
note = adieresis;
unicode = 228;
},
{
glyphname = aring;
kernLeft = a;
kernRight = a;
layers = (
{
hints = (
{
horizontal = 1;
place = (539, 34);
place = (539, 34);
type = Stem;
},
{
horizontal = 1;
place = (703, 34);
place = (703, 34);
type = Stem;
},
{
place = (143, 34);
place = (143, 34);
type = Stem;
},
{
place = (306, 34);
place = (306, 34);
type = Stem;
},
{
horizontal = 1;
place = (-9, 45);
place = (-9, 45);
type = Stem;
},
{
horizontal = 1;
place = (471, -20);
target = down;
type = TopGhost;
},
{
place = (41, 89);
place = (41, 89);
type = Stem;
},
{
place = (297, 90);
place = (297, 90);
type = Stem;
}
);
layerId = m01;
shapes = (
{
closed = 1;
nodes = (
(277,703,o),
(306,674,o),
(306,638,cs),
(306,602,o),
(277,573,o),
(241,573,cs),
(205,573,o),
(177,602,o),
(177,638,cs),
(177,674,o),
(205,703,o),
(241,703,cs)
);
},
{
closed = 1;
nodes = (
(296,539,o),
(340,584,o),
(340,638,cs),
(340,692,o),
(296,737,o),
(241,737,cs),
(187,737,o),
(143,692,o),
(143,638,cs),
(143,584,o),
(187,539,o),
(241,539,cs)
);
},
{
closed = 1;
nodes = (
(297,247,o),
(297,99,o),
(297,98,c),
(287,74,o),
(262,36,o),
(209,36,cs),
(148,36,o),
(130,86,o),
(130,115,cs),
(130,175,o),
(181,219,o),
(297,247,c)
);
},
{
closed = 1;
nodes = (
(386,38,o),
(387,101,o),
(387,101,c),
(387,271,ls),
(387,390,o),
(357,471,o),
(248,471,c),
(248,471,o),
(199,474,o),
(156,452,cs),
(102,423,o),
(85,393,o),
(78,378,cs),
(70,364,o),
(72,344,o),
(83,329,cs),
(98,308,o),
(127,304,o),
(147,320,cs),
(168,335,o),
(172,365,o),
(157,385,cs),
(149,396,o),
(138,401,o),
(126,403,cs),
(120,404,o),
(126,423,o),
(165,442,cs),
(245,479,o),
(297,421,o),
(297,318,cs),
(297,260,l),
(126,216,o),
(41,194,o),
(41,94,cs),
(41,-9,o),
(155,-9,o),
(155,-9,c),
(225,-9,o),
(283,27,o),
(297,75,c),
(303,-11,o),
(382,-9,o),
(382,-9,c),
(434,-9,o),
(468,29,o),
(474,59,c),
(462,64,l),
(455,38,o),
(432,38,o),
(432,38,c)
);
}
);
width = 485;
}
);
note = aring;
unicode = 229;
},
{
glyphname = ae;
kernLeft = a;
kernRight = a;
layers = (
{
hints = (
{
horizontal = 1;
place = (-9, 45);
place = (-9, 45);
type = Stem;
},
{
horizontal = 1;
place = (251, -20);
target = down;
type = TopGhost;
},
{
place = (41, 89);
place = (41, 89);
type = Stem;
},
{
place = (284, 90);
place = (284, 90);
type = Stem;
},
{
place = (583, 82);
place = (583, 82);
type = Stem;
},
{
horizontal = 1;
place = (238, 233);
place = (238, 233);
type = Stem;
}
);
layerId = m01;
shapes = (
{
closed = 1;
nodes = (
(533,458,o),
(583,403,o),
(583,251,c),
(374,251,l),
(374,383,o),
(423,458,o),
(483,458,cs)
);
},
{
closed = 1;
nodes = (
(146,36,o),
(130,85,o),
(130,115,cs),
(130,201,o),
(255,235,o),
(284,244,c),
(284,244,o),
(284,222,o),
(285,209,cs),
(286,182,o),
(291,136,o),
(301,109,c),
(290,78,o),
(260,36,o),
(207,36,cs)
);
},
{
closed = 1;
nodes = (
(416,52,o),
(377,111,o),
(374,238,c),
(665,238,l),
(665,402,o),
(602,471,o),
(483,471,cs),
(422,471,o),
(382,444,o),
(343,398,c),
(324,441,o),
(289,471,o),
(235,471,c),
(235,471,o),
(194,472,o),
(151,450,cs),
(97,421,o),
(82,392,o),
(74,378,cs),
(67,363,o),
(68,344,o),
(79,329,cs),
(94,308,o),
(123,304,o),
(144,319,cs),
(164,335,o),
(169,364,o),
(153,385,cs),
(145,395,o),
(135,402,o),
(124,403,cs),
(118,404,o),
(122,422,o),
(161,441,cs),
(241,478,o),
(284,421,o),
(284,318,cs),
(284,257,l),
(120,212,o),
(41,187,o),
(41,94,cs),
(41,-9,o),
(155,-9,o),
(155,-9,c),
(235,-9,o),
(295,33,o),
(309,95,c),
(335,35,o),
(396,-9,o),
(477,-9,cs),
(596,-9,o),
(635,73,o),
(647,118,c),
(635,124,l),
(617,83,o),
(563,38,o),
(501,44,cs)
);
}
);
width = 706;
}
);
note = ae;
unicode = 230;
},
{
glyphname = ccedilla;
kernLeft = c;
kernRight = c;
layers = (
{
hints = (
{
horizontal = 1;
place = (-9, 21);
target = up;
type = BottomGhost;
},
{
horizontal = 1;
place = (471, -20);
target = down;
type = TopGhost;
},
{
place = (45, 93);
place = (45, 93);
type = Stem;
}
);
layerId = m01;
shapes = (
{
closed = 1;
nodes = (
(437,128,l),
(419,87,o),
(357,40,o),
(284,46,cs),
(213,53,o),
(138,108,o),
(138,241,cs),
(138,428,o),
(248,458,o),
(288,458,cs),
(355,458,o),
(382,430,o),
(373,428,cs),
(363,427,o),
(352,419,o),
(345,407,cs),
(332,386,o),
(339,357,o),
(362,344,cs),
(383,331,o),
(413,340,o),
(426,361,cs),
(435,377,o),
(433,396,o),
(425,410,cs),
(416,426,o),
(386,471,o),
(288,471,cs),
(135,471,o),
(45,353,o),
(45,230,cs),
(45,92,o),
(139,2,o),
(243,-8,c),
(216,-87,l),
(300,-69,o),
(321,-130,o),
(321,-156,cs),
(322,-194,o),
(296,-216,o),
(262,-216,cs),
(233,-215,o),
(225,-207,o),
(227,-206,cs),
(231,-204,o),
(235,-201,o),
(237,-195,cs),
(242,-182,o),
(235,-169,o),
(222,-165,cs),
(210,-160,o),
(196,-165,o),
(191,-178,cs),
(188,-187,o),
(191,-197,o),
(196,-203,cs),
(202,-209,o),
(222,-225,o),
(262,-225,cs),
(295,-225,o),
(356,-214,o),
(364,-145,cs),
(371,-94,o),
(330,-42,o),
(237,-63,c),
(256,-9,l),
(263,-9,ls),
(386,-9,o),
(437,73,o),
(448,123,c)
);
}
);
width = 481;
}
);
note = ccedilla;
unicode = 231;
},
{
glyphname = egrave;
kernLeft = e;
kernRight = e;
layers = (
{
hints = (
{
horizontal = 1;
place = (-9, 21);
target = up;
type = BottomGhost;
},
{
horizontal = 1;
place = (240, 231);
place = (240, 231);
type = Stem;
},
{
place = (36, 94);
place = (36, 94);
type = Stem;
},
{
place = (364, 86);
place = (364, 86);
type = Stem;
},
{
horizontal = 1;
place = (253, -20);
target = down;
type = TopGhost;
},
{
horizontal = 1;
place = (540, 21);
target = up;
type = BottomGhost;
},
{
horizontal = 1;
place = (703, -20);
target = down;
type = TopGhost;
}
);
layerId = m01;
shapes = (
{
closed = 1;
nodes = (
(364,253,l),
(364,399,o),
(299,458,o),
(251,458,cs),
(194,458,o),
(130,379,o),
(130,253,c)
);
},
{
closed = 1;
nodes = (
(434,118,l),
(423,71,o),
(368,-9,o),
(250,-9,cs),
(125,-9,o),
(36,95,o),
(36,227,cs),
(36,375,o),
(130,471,o),
(254,471,cs),
(370,471,o),
(450,397,o),
(450,240,c),
(130,240,l),
(134,105,o),
(194,51,o),
(273,43,cs),
(333,37,o),
(404,74,o),
(422,123,c)
);
},
{
closed = 1;
nodes = (
(208,703,l),
(127,678,l),
(362,540,l),
(385,540,l)
);
}
);
width = 491;
}
);
note = egrave;
unicode = 232;
},
{
glyphname = eacute;
kernLeft = e;
kernRight = e;
layers = (
{
hints = (
{
horizontal = 1;
place = (-9, 21);
target = up;
type = BottomGhost;
},
{
horizontal = 1;
place = (240, 231);
place = (240, 231);
type = Stem;
},
{
place = (36, 94);
place = (36, 94);
type = Stem;
},
{
place = (364, 86);
place = (364, 86);
type = Stem;
},
{
horizontal = 1;
place = (253, -20);
target = down;
type = TopGhost;
},
{
horizontal = 1;
place = (540, 21);
target = up;
type = BottomGhost;
},
{
horizontal = 1;
place = (703, -20);
target = down;
type = TopGhost;
}
);
layerId = m01;
shapes = (
{
closed = 1;
nodes = (
(130,253,l),
(130,379,o),
(194,458,o),
(251,458,cs),
(299,458,o),
(364,399,o),
(364,253,c)
);
},
{
closed = 1;
nodes = (
(422,123,l),
(404,74,o),
(333,37,o),
(273,43,cs),
(194,51,o),
(134,105,o),
(130,240,c),
(450,240,l),
(450,397,o),
(370,471,o),
(254,471,cs),
(130,471,o),
(36,375,o),
(36,227,cs),
(36,95,o),
(125,-9,o),
(250,-9,cs),
(368,-9,o),
(423,71,o),
(434,118,c)
);
},
{
closed = 1;
nodes = (
(110,540,l),
(133,540,l),
(368,678,l),
(287,703,l)
);
}
);
width = 491;
}
);
note = eacute;
unicode = 233;
},
{
glyphname = ecircumflex;
kernLeft = e;
kernRight = e;
layers = (
{
hints = (
{
horizontal = 1;
place = (-9, 21);
target = up;
type = BottomGhost;
},
{
horizontal = 1;
place = (240, 231);
place = (240, 231);
type = Stem;
},
{
place = (36, 94);
place = (36, 94);
type = Stem;
},
{
place = (364, 86);
place = (364, 86);
type = Stem;
},
{
horizontal = 1;
place = (253, -20);
target = down;
type = TopGhost;
},
{
horizontal = 1;
place = (517, 20);
place = (517, 20);
type = Stem;
},
{
horizontal = 1;
place = (684, 21);
place = (684, 21);
type = Stem;
}
);
layerId = m01;
shapes = (
{
closed = 1;
nodes = (
(364,253,l),
(364,399,o),
(299,458,o),
(251,458,cs),
(194,458,o),
(130,379,o),
(130,253,c)
);
},
{
closed = 1;
nodes = (
(434,118,l),
(423,71,o),
(368,-9,o),
(250,-9,cs),
(125,-9,o),
(36,95,o),
(36,227,cs),
(36,375,o),
(130,471,o),
(254,471,cs),
(370,471,o),
(450,397,o),
(450,240,c),
(130,240,l),
(134,105,o),
(194,51,o),
(273,43,cs),
(333,37,o),
(404,74,o),
(422,123,c)
);
},
{
closed = 1;
nodes = (
(363,517,l),
(387,517,l),
(244,705,l),
(102,517,l),
(125,517,l),
(244,619,l)
);
}
);
width = 491;
}
);
note = ecircumflex;
unicode = 234;
},
{
glyphname = edieresis;
kernLeft = e;
kernRight = e;
layers = (
{
hints = (
{
horizontal = 1;
place = (-9, 21);
target = up;
type = BottomGhost;
},
{
horizontal = 1;
place = (240, 231);
place = (240, 231);
type = Stem;
},
{
horizontal = 1;
place = (569, 94);
place = (569, 94);
type = Stem;
},
{
place = (36, 94);
place = (36, 94);
type = Stem;
},
{
place = (287, 92);
place = (287, 92);
type = Stem;
},
{
horizontal = 1;
place = (253, -20);
target = down;
type = TopGhost;
},
{
horizontal = 1;
place = (458, 205);
place = (458, 205);
type = Stem;
},
{
place = (364, 86);
place = (364, 86);
type = Stem;
},
{
place = (127, 93);
place = (127, 93);
type = Stem;
}
);
layerId = m01;
shapes = (
{
closed = 1;
nodes = (
(358,569,o),
(379,590,o),
(379,616,cs),
(379,642,o),
(358,663,o),
(333,663,cs),
(307,663,o),
(287,642,o),
(287,616,cs),
(287,590,o),
(307,569,o),
(333,569,cs)
);
},
{
closed = 1;
nodes = (
(299,458,o),
(364,399,o),
(364,253,c),
(130,253,l),
(130,379,o),
(194,458,o),
(251,458,cs)
);
},
{
closed = 1;
nodes = (
(194,51,o),
(134,105,o),
(130,240,c),
(450,240,l),
(450,397,o),
(370,471,o),
(254,471,cs),
(130,471,o),
(36,375,o),
(36,227,cs),
(36,95,o),
(125,-9,o),
(250,-9,cs),
(368,-9,o),
(423,71,o),
(434,118,c),
(422,123,l),
(404,74,o),
(333,37,o),
(273,43,cs)
);
},
{
closed = 1;
nodes = (
(199,569,o),
(220,590,o),
(220,616,cs),
(220,642,o),
(199,663,o),
(173,663,cs),
(147,663,o),
(127,642,o),
(127,616,cs),
(127,590,o),
(147,569,o),
(173,569,cs)
);
}
);
width = 491;
}
);
note = edieresis;
unicode = 235;
},
{
glyphname = igrave;
kernLeft = i;
kernRight = i;
layers = (
{
hints = (
{
horizontal = 1;
place = (0, 21);
target = up;
type = BottomGhost;
},
{
horizontal = 1;
place = (471, -20);
target = down;
type = TopGhost;
},
{
place = (79, 87);
place = (79, 87);
type = Stem;
},
{
horizontal = 1;
place = (540, 21);
target = up;
type = BottomGhost;
},
{
horizontal = 1;
place = (703, -20);
target = down;
type = TopGhost;
}
);
layerId = m01;
shapes = (
{
closed = 1;
nodes = (
(207,0,l),
(39,0,l),
(39,13,l),
(77,24,o),
(79,42,o),
(79,93,cs),
(79,370,ls),
(79,405,o),
(70,419,o),
(28,430,c),
(28,442,l),
(166,471,l),
(166,93,ls),
(166,37,o),
(171,22,o),
(207,13,c)
);
},
{
closed = 1;
nodes = (
(72,703,l),
(-9,678,l),
(226,540,l),
(249,540,l)
);
}
);
width = 245;
}
);
note = igrave;
unicode = 236;
},
{
glyphname = iacute;
kernLeft = i;
kernRight = i;
layers = (
{
hints = (
{
horizontal = 1;
place = (0, 21);
target = up;
type = BottomGhost;
},
{
horizontal = 1;
place = (471, -20);
target = down;
type = TopGhost;
},
{
place = (79, 87);
place = (79, 87);
type = Stem;
},
{
horizontal = 1;
place = (540, 21);
target = up;
type = BottomGhost;
},
{
horizontal = 1;
place = (703, -20);
target = down;
type = TopGhost;
}
);
layerId = m01;
shapes = (
{
closed = 1;
nodes = (
(207,13,l),
(171,22,o),
(166,37,o),
(166,93,cs),
(166,471,l),
(28,442,l),
(28,430,l),
(70,419,o),
(79,405,o),
(79,370,cs),
(79,93,ls),
(79,42,o),
(77,24,o),
(39,13,c),
(39,0,l),
(207,0,l)
);
},
{
closed = 1;
nodes = (
(2,540,l),
(25,540,l),
(260,678,l),
(179,703,l)
);
}
);
width = 245;
}
);
note = iacute;
unicode = 237;
},
{
glyphname = icircumflex;
kernLeft = i;
kernRight = i;
layers = (
{
hints = (
{
horizontal = 1;
place = (0, 21);
target = up;
type = BottomGhost;
},
{
horizontal = 1;
place = (471, -20);
target = down;
type = TopGhost;
},
{
place = (79, 87);
place = (79, 87);
type = Stem;
},
{
horizontal = 1;
place = (517, 20);
place = (517, 20);
type = Stem;
},
{
horizontal = 1;
place = (684, 21);
place = (684, 21);
type = Stem;
}
);
layerId = m01;
shapes = (
{
closed = 1;
nodes = (
(207,0,l),
(39,0,l),
(39,13,l),
(77,24,o),
(79,42,o),
(79,93,cs),
(79,370,ls),
(79,405,o),
(70,419,o),
(28,430,c),
(28,442,l),
(166,471,l),
(166,93,ls),
(166,37,o),
(171,22,o),
(207,13,c)
);
},
{
closed = 1;
nodes = (
(242,517,l),
(266,517,l),
(123,705,l),
(-19,517,l),
(4,517,l),
(123,619,l)
);
}
);
width = 245;
}
);
note = icircumflex;
unicode = 238;
},
{
glyphname = idieresis;
kernLeft = i;
kernRight = i;
layers = (
{
hints = (
{
horizontal = 1;
place = (0, 21);
target = up;
type = BottomGhost;
},
{
horizontal = 1;
place = (569, 94);
place = (569, 94);
type = Stem;
},
{
place = (79, 87);
place = (79, 87);
type = Stem;
},
{
place = (-9, 93);
place = (-9, 93);
type = Stem;
},
{
place = (151, 92);
place = (151, 92);
type = Stem;
}
);
layerId = m01;
shapes = (
{
closed = 1;
nodes = (
(222,569,o),
(243,590,o),
(243,616,cs),
(243,642,o),
(222,663,o),
(197,663,cs),
(171,663,o),
(151,642,o),
(151,616,cs),
(151,590,o),
(171,569,o),
(197,569,cs)
);
},
{
closed = 1;
nodes = (
(63,569,o),
(84,590,o),
(84,616,cs),
(84,642,o),
(63,663,o),
(37,663,cs),
(11,663,o),
(-9,642,o),
(-9,616,cs),
(-9,590,o),
(11,569,o),
(37,569,cs)
);
},
{
closed = 1;
nodes = (
(207,13,l),
(171,22,o),
(166,37,o),
(166,93,cs),
(166,471,l),
(28,442,l),
(28,430,l),
(70,419,o),
(79,405,o),
(79,370,cs),
(79,93,ls),
(79,42,o),
(77,24,o),
(39,13,c),
(39,0,l),
(207,0,l)
);
}
);
width = 245;
}
);
note = idieresis;
unicode = 239;
},
{
glyphname = eth;
layers = (
{
hints = (
{
horizontal = 1;
place = (-9, 21);
target = up;
type = BottomGhost;
},
{
horizontal = 1;
place = (411, 26);
place = (411, 26);
type = Stem;
},
{
horizontal = 1;
place = (713, -20);
target = down;
type = TopGhost;
},
{
place = (38, 106);
place = (38, 106);
type = Stem;
},
{
place = (391, 106);
place = (391, 106);
type = Stem;
}
);
layerId = m01;
shapes = (
{
closed = 1;
nodes = (
(391,331,ls),
(391,98,o),
(352,4,o),
(251,4,cs),
(187,4,o),
(139,48,o),
(144,203,cs),
(147,333,o),
(193,411,o),
(270,411,cs),
(307,411,o),
(359,390,o),
(391,333,c)
);
},
{
closed = 1;
nodes = (
(480,690,l),
(465,702,l),
(364,648,l),
(310,689,o),
(247,713,o),
(168,713,c),
(168,700,l),
(229,700,o),
(282,676,o),
(320,626,c),
(156,541,l),
(170,530,l),
(328,611,l),
(364,553,o),
(390,453,o),
(391,357,c),
(357,421,o),
(289,437,o),
(240,437,cs),
(104,437,o),
(42,329,o),
(38,214,cs),
(32,60,o),
(141,-9,o),
(251,-9,cs),
(421,-9,o),
(497,129,o),
(497,328,cs),
(497,462,o),
(441,573,o),
(378,636,c)
);
}
);
width = 542;
}
);
note = eth;
unicode = 240;
},
{
glyphname = ntilde;
kernRight = n;
layers = (
{
hints = (
{
horizontal = 1;
place = (0, 21);
target = up;
type = BottomGhost;
},
{
horizontal = 1;
place = (421, 50);
place = (421, 50);
type = Stem;
},
{
place = (60, 88);
place = (60, 88);
type = Stem;
},
{
place = (352, 87);
place = (352, 87);
type = Stem;
}
);
layerId = m01;
shapes = (
{
closed = 1;
nodes = (
(302,562,l),
(302,562,o),
(425,518,o),
(486,671,c),
(476,676,l),
(452,621,o),
(360,616,o),
(327,629,cs),
(213,672,l),
(213,672,o),
(89,715,o),
(29,563,c),
(38,559,l),
(65,617,o),
(154,617,o),
(187,605,cs)
);
},
{
closed = 1;
nodes = (
(480,12,l),
(445,21,o),
(439,38,o),
(439,93,cs),
(439,311,ls),
(439,432,o),
(382,471,o),
(301,471,cs),
(238,471,o),
(169,424,o),
(148,366,c),
(148,471,l),
(10,442,l),
(10,430,l),
(52,419,o),
(60,406,o),
(60,371,cs),
(60,92,ls),
(60,41,o),
(59,24,o),
(21,13,c),
(21,0,l),
(189,0,l),
(189,13,l),
(153,22,o),
(148,37,o),
(148,92,cs),
(148,335,l),
(156,371,o),
(198,421,o),
(250,421,cs),
(316,421,o),
(352,376,o),
(352,308,cs),
(352,93,ls),
(352,42,o),
(350,23,o),
(312,12,c),
(312,0,l),
(480,0,l)
);
}
);
width = 506;
}
);
note = ntilde;
unicode = 241;
},
{
glyphname = ograve;
kernLeft = o;
kernRight = o;
layers = (
{
hints = (
{
horizontal = 1;
place = (-8, 21);
target = up;
type = BottomGhost;
},
{
horizontal = 1;
place = (698, -20);
target = down;
type = TopGhost;
},
{
place = (40, 147);
place = (40, 147);
type = Stem;
},
{
place = (368, 148);
place = (368, 148);
type = Stem;
},
{
horizontal = 1;
place = (-9, 21);
target = up;
type = BottomGhost;
},
{
horizontal = 1;
place = (471, -20);
target = down;
type = TopGhost;
},
{
place = (40, 102);
place = (40, 102);
type = Stem;
},
{
place = (398, 103);
place = (398, 103);
type = Stem;
}
);
layerId = m01;
shapes = (
{
closed = 1;
nodes = (
(398,412,o),
(347,458,o),
(271,458,cs),
(194,458,o),
(142,412,o),
(142,231,cs),
(142,50,o),
(194,4,o),
(271,4,cs),
(347,4,o),
(398,50,o),
(398,231,cs)
);
},
{
closed = 1;
nodes = (
(501,100,o),
(424,-9,o),
(271,-9,cs),
(119,-9,o),
(40,100,o),
(40,231,cs),
(40,363,o),
(119,471,o),
(271,471,cs),
(424,471,o),
(501,363,o),
(501,231,cs)
);
},
{
closed = 1;
nodes = (
(222,703,l),
(141,678,l),
(376,540,l),
(399,540,l)
);
}
);
width = 552;
}
);
note = ograve;
unicode = 242;
},
{
glyphname = oacute;
kernLeft = o;
kernRight = o;
layers = (
{
hints = (
{
horizontal = 1;
place = (-8, 21);
target = up;
type = BottomGhost;
},
{
horizontal = 1;
place = (698, -20);
target = down;
type = TopGhost;
},
{
place = (40, 147);
place = (40, 147);
type = Stem;
},
{
place = (368, 148);
place = (368, 148);
type = Stem;
},
{
horizontal = 1;
place = (-9, 21);
target = up;
type = BottomGhost;
},
{
horizontal = 1;
place = (471, -20);
target = down;
type = TopGhost;
},
{
place = (40, 102);
place = (40, 102);
type = Stem;
},
{
place = (398, 103);
place = (398, 103);
type = Stem;
},
{
horizontal = 1;
place = (540, 21);
target = up;
type = BottomGhost;
},
{
horizontal = 1;
place = (703, -20);
target = down;
type = TopGhost;
}
);
layerId = m01;
shapes = (
{
closed = 1;
nodes = (
(398,50,o),
(347,4,o),
(271,4,cs),
(194,4,o),
(142,50,o),
(142,231,cs),
(142,412,o),
(194,458,o),
(271,458,cs),
(347,458,o),
(398,412,o),
(398,231,cs)
);
},
{
closed = 1;
nodes = (
(501,363,o),
(424,471,o),
(271,471,cs),
(119,471,o),
(40,363,o),
(40,231,cs),
(40,100,o),
(119,-9,o),
(271,-9,cs),
(424,-9,o),
(501,100,o),
(501,231,cs)
);
},
{
closed = 1;
nodes = (
(139,540,l),
(162,540,l),
(397,678,l),
(316,703,l)
);
}
);
width = 542;
}
);
note = oacute;
unicode = 243;
},
{
glyphname = ocircumflex;
kernLeft = o;
kernRight = o;
layers = (
{
hints = (
{
horizontal = 1;
place = (-8, 21);
target = up;
type = BottomGhost;
},
{
horizontal = 1;
place = (467, 66);
place = (467, 66);
type = Stem;
},
{
horizontal = 1;
place = (721, -20);
target = down;
type = TopGhost;
},
{
place = (40, 147);
place = (40, 147);
type = Stem;
},
{
place = (368, 148);
place = (368, 148);
type = Stem;
},
{
horizontal = 1;
place = (-9, 21);
target = up;
type = BottomGhost;
},
{
horizontal = 1;
place = (471, -20);
target = down;
type = TopGhost;
},
{
place = (40, 102);
place = (40, 102);
type = Stem;
},
{
place = (398, 103);
place = (398, 103);
type = Stem;
}
);
layerId = m01;
shapes = (
{
closed = 1;
nodes = (
(398,412,o),
(347,458,o),
(271,458,cs),
(194,458,o),
(142,412,o),
(142,231,cs),
(142,50,o),
(194,4,o),
(271,4,cs),
(347,4,o),
(398,50,o),
(398,231,cs)
);
},
{
closed = 1;
nodes = (
(501,100,o),
(424,-9,o),
(271,-9,cs),
(119,-9,o),
(40,100,o),
(40,231,cs),
(40,363,o),
(119,471,o),
(271,471,cs),
(424,471,o),
(501,363,o),
(501,231,cs)
);
},
{
closed = 1;
nodes = (
(390,517,l),
(414,517,l),
(271,705,l),
(129,517,l),
(152,517,l),
(271,619,l)
);
}
);
width = 542;
}
);
note = ocircumflex;
unicode = 244;
},
{
glyphname = otilde;
kernLeft = o;
kernRight = o;
layers = (
{
hints = (
{
horizontal = 1;
place = (-9, 21);
target = up;
type = BottomGhost;
},
{
horizontal = 1;
place = (471, -20);
target = down;
type = TopGhost;
},
{
place = (40, 102);
place = (40, 102);
type = Stem;
},
{
place = (398, 103);
place = (398, 103);
type = Stem;
}
);
layerId = m01;
shapes = (
{
closed = 1;
nodes = (
(321,562,l),
(321,562,o),
(444,518,o),
(505,671,c),
(495,676,l),
(471,621,o),
(379,616,o),
(346,629,cs),
(232,672,l),
(232,672,o),
(108,715,o),
(48,563,c),
(57,559,l),
(84,617,o),
(173,617,o),
(206,605,cs)
);
},
{
closed = 1;
nodes = (
(398,412,o),
(347,458,o),
(271,458,cs),
(194,458,o),
(142,412,o),
(142,231,cs),
(142,50,o),
(194,4,o),
(271,4,cs),
(347,4,o),
(398,50,o),
(398,231,cs)
);
},
{
closed = 1;
nodes = (
(501,100,o),
(424,-9,o),
(271,-9,cs),
(119,-9,o),
(40,100,o),
(40,231,cs),
(40,363,o),
(119,471,o),
(271,471,cs),
(424,471,o),
(501,363,o),
(501,231,cs)
);
}
);
width = 542;
}
);
note = otilde;
unicode = 245;
},
{
glyphname = odieresis;
kernLeft = o;
kernRight = o;
layers = (
{
hints = (
{
horizontal = 1;
place = (569, 94);
place = (569, 94);
type = Stem;
},
{
place = (146, 93);
place = (146, 93);
type = Stem;
},
{
place = (306, 92);
place = (306, 92);
type = Stem;
},
{
horizontal = 1;
place = (-9, 21);
target = up;
type = BottomGhost;
},
{
horizontal = 1;
place = (471, -20);
target = down;
type = TopGhost;
},
{
place = (40, 102);
place = (40, 102);
type = Stem;
},
{
place = (398, 103);
place = (398, 103);
type = Stem;
}
);
layerId = m01;
shapes = (
{
closed = 1;
nodes = (
(377,569,o),
(398,590,o),
(398,616,cs),
(398,642,o),
(377,663,o),
(352,663,cs),
(326,663,o),
(306,642,o),
(306,616,cs),
(306,590,o),
(326,569,o),
(352,569,cs)
);
},
{
closed = 1;
nodes = (
(218,569,o),
(239,590,o),
(239,616,cs),
(239,642,o),
(218,663,o),
(192,663,cs),
(166,663,o),
(146,642,o),
(146,616,cs),
(146,590,o),
(166,569,o),
(192,569,cs)
);
},
{
closed = 1;
nodes = (
(398,412,o),
(347,458,o),
(271,458,cs),
(194,458,o),
(142,412,o),
(142,231,cs),
(142,50,o),
(194,4,o),
(271,4,cs),
(347,4,o),
(398,50,o),
(398,231,cs)
);
},
{
closed = 1;
nodes = (
(501,100,o),
(424,-9,o),
(271,-9,cs),
(119,-9,o),
(40,100,o),
(40,231,cs),
(40,363,o),
(119,471,o),
(271,471,cs),
(424,471,o),
(501,363,o),
(501,231,cs)
);
}
);
width = 542;
}
);
note = odieresis;
unicode = 246;
},
{
glyphname = divide;
layers = (
{
hints = (
{
place = (5, 110);
place = (5, 110);
type = Stem;
},
{
place = (244, 66);
place = (244, 66);
type = Stem;
},
{
place = (439, 110);
place = (439, 110);
type = Stem;
},
{
place = (257, 110);
place = (257, 110);
type = Stem;
}
);
layerId = m01;
shapes = (
{
closed = 1;
nodes = (
(343,439,o),
(367,464,o),
(367,494,cs),
(367,524,o),
(343,549,o),
(312,549,cs),
(282,549,o),
(257,524,o),
(257,494,cs),
(257,464,o),
(282,439,o),
(312,439,cs)
);
},
{
closed = 1;
nodes = (
(581,244,l),
(581,310,l),
(45,310,l),
(45,244,l)
);
},
{
closed = 1;
nodes = (
(343,5,o),
(367,30,o),
(367,60,cs),
(367,91,o),
(343,115,o),
(312,115,cs),
(282,115,o),
(257,91,o),
(257,60,cs),
(257,30,o),
(282,5,o),
(312,5,cs)
);
}
);
width = 625;
}
);
note = divide;
unicode = 247;
},
{
glyphname = oslash;
kernLeft = o;
kernRight = o;
layers = (
{
hints = (
{
horizontal = 1;
place = (-67, 21);
target = up;
type = BottomGhost;
},
{
horizontal = 1;
place = (-9, 21);
target = up;
type = BottomGhost;
},
{
horizontal = 1;
place = (471, -20);
target = down;
type = TopGhost;
},
{
horizontal = 1;
place = (525, -20);
target = down;
type = TopGhost;
},
{
place = (41, 102);
place = (41, 102);
type = Stem;
},
{
place = (399, 103);
place = (399, 103);
type = Stem;
}
);
layerId = m01;
shapes = (
{
closed = 1;
nodes = (
(399,49,o),
(348,4,o),
(272,4,cs),
(231,4,o),
(201,17,o),
(180,59,c),
(369,385,l),
(387,353,o),
(399,302,o),
(399,230,cs)
);
},
{
closed = 1;
nodes = (
(89,-67,l),
(106,-67,l),
(155,17,l),
(187,1,o),
(226,-9,o),
(272,-9,cs),
(425,-9,o),
(502,99,o),
(502,230,cs),
(502,318,o),
(469,396,o),
(400,437,c),
(452,525,l),
(436,525,l),
(388,444,l),
(356,461,o),
(317,471,o),
(272,471,cs),
(120,471,o),
(41,362,o),
(41,230,cs),
(41,143,o),
(75,66,o),
(143,25,c)
);
},
{
closed = 1;
nodes = (
(173,75,l),
(155,108,o),
(143,157,o),
(143,230,cs),
(143,411,o),
(195,458,o),
(272,458,cs),
(312,458,o),
(342,444,o),
(362,401,c)
);
}
);
width = 543;
}
);
note = oslash;
unicode = 248;
},
{
glyphname = ugrave;
kernLeft = u;
layers = (
{
hints = (
{
horizontal = 1;
place = (-8, 72);
place = (-8, 72);
type = Stem;
},
{
horizontal = 1;
place = (698, -20);
target = down;
type = TopGhost;
},
{
place = (71, 124);
place = (71, 124);
type = Stem;
},
{
place = (366, 125);
place = (366, 125);
type = Stem;
},
{
horizontal = 1;
place = (-9, 49);
place = (-9, 49);
type = Stem;
},
{
horizontal = 1;
place = (471, -20);
target = down;
type = TopGhost;
},
{
place = (73, 86);
place = (73, 86);
type = Stem;
},
{
place = (366, 87);
place = (366, 87);
type = Stem;
}
);
layerId = m01;
shapes = (
{
closed = 1;
nodes = (
(504,11,l),
(390,-8,ls),
(366,-13,o),
(366,7,o),
(366,7,c),
(366,92,l),
(348,39,o),
(283,-9,o),
(216,-9,cs),
(144,-9,o),
(73,17,o),
(73,142,cs),
(73,367,ls),
(73,431,o),
(74,436,o),
(17,440,c),
(17,452,l),
(159,471,l),
(159,145,ls),
(159,69,o),
(204,40,o),
(262,40,cs),
(312,40,o),
(348,75,o),
(366,117,c),
(366,369,ls),
(366,430,o),
(368,437,o),
(319,440,c),
(319,452,l),
(453,471,l),
(453,83,ls),
(453,35,o),
(462,29,o),
(504,24,c)
);
},
{
closed = 1;
nodes = (
(204,703,l),
(123,678,l),
(358,540,l),
(381,540,l)
);
}
);
width = 522;
}
);
note = ugrave;
unicode = 249;
},
{
glyphname = uacute;
kernLeft = u;
layers = (
{
hints = (
{
horizontal = 1;
place = (-9, 49);
place = (-9, 49);
type = Stem;
},
{
horizontal = 1;
place = (471, -20);
target = down;
type = TopGhost;
},
{
place = (73, 86);
place = (73, 86);
type = Stem;
},
{
place = (366, 87);
place = (366, 87);
type = Stem;
},
{
horizontal = 1;
place = (540, 21);
target = up;
type = BottomGhost;
},
{
horizontal = 1;
place = (703, -20);
target = down;
type = TopGhost;
}
);
layerId = m01;
shapes = (
{
closed = 1;
nodes = (
(462,29,o),
(453,35,o),
(453,83,cs),
(453,471,l),
(319,452,l),
(319,440,l),
(368,437,o),
(366,430,o),
(366,369,cs),
(366,117,l),
(348,75,o),
(312,40,o),
(262,40,cs),
(204,40,o),
(159,69,o),
(159,145,cs),
(159,471,l),
(17,452,l),
(17,440,l),
(74,436,o),
(73,431,o),
(73,367,cs),
(73,142,ls),
(73,17,o),
(144,-9,o),
(216,-9,cs),
(283,-9,o),
(348,39,o),
(366,92,c),
(366,7,l),
(366,7,o),
(366,-13,o),
(390,-8,cs),
(504,11,l),
(504,24,l)
);
},
{
closed = 1;
nodes = (
(131,540,l),
(154,540,l),
(389,678,l),
(308,703,l)
);
}
);
width = 522;
}
);
note = uacute;
unicode = 250;
},
{
glyphname = ucircumflex;
kernLeft = u;
layers = (
{
hints = (
{
horizontal = 1;
place = (-8, 72);
place = (-8, 72);
type = Stem;
},
{
horizontal = 1;
place = (719, -20);
target = down;
type = TopGhost;
},
{
place = (71, 124);
place = (71, 124);
type = Stem;
},
{
place = (366, 125);
place = (366, 125);
type = Stem;
},
{
horizontal = 1;
place = (-9, 49);
place = (-9, 49);
type = Stem;
},
{
horizontal = 1;
place = (471, -20);
target = down;
type = TopGhost;
},
{
place = (73, 86);
place = (73, 86);
type = Stem;
},
{
place = (366, 87);
place = (366, 87);
type = Stem;
}
);
layerId = m01;
shapes = (
{
closed = 1;
nodes = (
(504,11,l),
(390,-8,ls),
(366,-13,o),
(366,7,o),
(366,7,c),
(366,92,l),
(348,39,o),
(283,-9,o),
(216,-9,cs),
(144,-9,o),
(73,17,o),
(73,142,cs),
(73,367,ls),
(73,431,o),
(74,436,o),
(17,440,c),
(17,452,l),
(159,471,l),
(159,145,ls),
(159,69,o),
(204,40,o),
(262,40,cs),
(312,40,o),
(348,75,o),
(366,117,c),
(366,369,ls),
(366,430,o),
(368,437,o),
(319,440,c),
(319,452,l),
(453,471,l),
(453,83,ls),
(453,35,o),
(462,29,o),
(504,24,c)
);
},
{
closed = 1;
nodes = (
(370,517,l),
(394,517,l),
(251,705,l),
(109,517,l),
(132,517,l),
(251,619,l)
);
}
);
width = 522;
}
);
note = ucircumflex;
unicode = 251;
},
{
glyphname = udieresis;
kernLeft = u;
layers = (
{
hints = (
{
horizontal = 1;
place = (569, 94);
place = (569, 94);
type = Stem;
},
{
place = (131, 92);
place = (131, 92);
type = Stem;
},
{
place = (290, 93);
place = (290, 93);
type = Stem;
}
);
layerId = m01;
shapes = (
{
closed = 1;
nodes = (
(362,569,o),
(383,590,o),
(383,616,cs),
(383,642,o),
(362,663,o),
(336,663,cs),
(310,663,o),
(290,642,o),
(290,616,cs),
(290,590,o),
(310,569,o),
(336,569,cs)
);
},
{
closed = 1;
nodes = (
(202,569,o),
(223,590,o),
(223,616,cs),
(223,642,o),
(202,663,o),
(177,663,cs),
(151,663,o),
(131,642,o),
(131,616,cs),
(131,590,o),
(151,569,o),
(177,569,cs)
);
},
{
closed = 1;
nodes = (
(504,24,l),
(462,29,o),
(453,35,o),
(453,83,cs),
(453,471,l),
(319,452,l),
(319,440,l),
(368,437,o),
(366,430,o),
(366,369,cs),
(366,117,l),
(348,75,o),
(312,40,o),
(262,40,cs),
(204,40,o),
(159,69,o),
(159,145,cs),
(159,471,l),
(17,452,l),
(17,440,l),
(74,436,o),
(73,431,o),
(73,367,cs),
(73,142,ls),
(73,17,o),
(144,-9,o),
(216,-9,cs),
(283,-9,o),
(348,39,o),
(366,92,c),
(366,7,l),
(366,7,o),
(366,-13,o),
(390,-8,cs),
(504,11,l)
);
}
);
width = 522;
}
);
note = udieresis;
unicode = 252;
},
{
glyphname = yacute;
kernLeft = y;
kernRight = y;
layers = (
{
hints = (
{
horizontal = 1;
place = (462, -20);
target = down;
type = TopGhost;
},
{
horizontal = 1;
place = (540, 21);
target = up;
type = BottomGhost;
},
{
horizontal = 1;
place = (703, -20);
target = down;
type = TopGhost;
}
);
layerId = m01;
shapes = (
{
closed = 1;
nodes = (
(320,462,l),
(320,449,l),
(436,451,o),
(374,293,o),
(374,293,c),
(306,112,l),
(183,377,l),
(183,377,o),
(149,449,o),
(213,449,c),
(213,462,l),
(6,462,l),
(6,449,l),
(22,448,o),
(57,444,o),
(77,399,c),
(77,399,o),
(143,259,o),
(262,-5,c),
(216,-130,ls),
(202,-168,o),
(183,-181,o),
(179,-168,cs),
(176,-156,o),
(167,-143,o),
(153,-137,cs),
(126,-125,o),
(95,-136,o),
(83,-164,cs),
(71,-190,o),
(83,-221,o),
(110,-234,cs),
(128,-242,o),
(155,-238,o),
(169,-226,cs),
(184,-215,o),
(210,-191,o),
(231,-134,cs),
(387,289,ls),
(445,441,o),
(479,449,o),
(514,449,c),
(514,462,l)
);
},
{
closed = 1;
nodes = (
(121,540,l),
(144,540,l),
(379,678,l),
(298,703,l)
);
}
);
width = 532;
}
);
note = yacute;
unicode = 253;
},
{
glyphname = thorn;
kernRight = b;
layers = (
{
hints = (
{
horizontal = 1;
place = (-265, 21);
target = up;
type = BottomGhost;
},
{
horizontal = 1;
place = (-9, 21);
target = up;
type = BottomGhost;
},
{
horizontal = 1;
place = (441, 30);
place = (441, 30);
type = Stem;
},
{
horizontal = 1;
place = (731, -20);
target = down;
type = TopGhost;
},
{
place = (65, 87);
place = (65, 87);
type = Stem;
},
{
place = (406, 105);
place = (406, 105);
type = Stem;
}
);
layerId = m01;
shapes = (
{
closed = 1;
nodes = (
(406,52,o),
(340,4,o),
(274,4,cs),
(211,4,o),
(158,47,o),
(152,136,c),
(152,324,l),
(158,393,o),
(200,441,o),
(267,441,cs),
(353,441,o),
(406,371,o),
(406,213,cs)
);
},
{
closed = 1;
nodes = (
(511,365,o),
(434,471,o),
(301,471,cs),
(250,471,o),
(183,446,o),
(152,393,c),
(152,731,l),
(15,702,l),
(15,690,l),
(56,682,o),
(65,671,o),
(65,637,cs),
(65,-176,ls),
(65,-227,o),
(63,-241,o),
(25,-252,c),
(25,-265,l),
(193,-265,l),
(193,-252,l),
(158,-243,o),
(152,-232,o),
(152,-176,cs),
(152,29,l),
(184,5,o),
(226,-9,o),
(277,-9,cs),
(410,-9,o),
(511,71,o),
(511,227,cs)
);
}
);
width = 552;
}
);
note = thorn;
unicode = 254;
},
{
glyphname = ydieresis;
kernLeft = y;
kernRight = y;
layers = (
{
hints = (
{
horizontal = 1;
place = (462, -20);
target = down;
type = TopGhost;
},
{
horizontal = 1;
place = (569, 94);
place = (569, 94);
type = Stem;
},
{
place = (138, 92);
place = (138, 92);
type = Stem;
},
{
place = (297, 93);
place = (297, 93);
type = Stem;
},
{
horizontal = 1;
place = (449, 214);
place = (449, 214);
type = Stem;
}
);
layerId = m01;
shapes = (
{
closed = 1;
nodes = (
(369,569,o),
(390,590,o),
(390,616,cs),
(390,642,o),
(369,663,o),
(343,663,cs),
(317,663,o),
(297,642,o),
(297,616,cs),
(297,590,o),
(317,569,o),
(343,569,cs)
);
},
{
closed = 1;
nodes = (
(320,462,l),
(320,449,l),
(436,451,o),
(374,293,o),
(374,293,c),
(306,112,l),
(183,377,l),
(183,377,o),
(149,449,o),
(213,449,c),
(213,462,l),
(6,462,l),
(6,449,l),
(22,448,o),
(57,444,o),
(77,399,c),
(77,399,o),
(143,259,o),
(262,-5,c),
(216,-130,ls),
(202,-168,o),
(183,-181,o),
(179,-168,cs),
(176,-156,o),
(167,-143,o),
(153,-137,cs),
(126,-125,o),
(95,-136,o),
(83,-164,cs),
(71,-190,o),
(83,-221,o),
(110,-234,cs),
(128,-242,o),
(155,-238,o),
(169,-226,cs),
(184,-215,o),
(210,-191,o),
(231,-134,cs),
(387,289,ls),
(445,441,o),
(479,449,o),
(514,449,c),
(514,462,l)
);
},
{
closed = 1;
nodes = (
(209,569,o),
(230,590,o),
(230,616,cs),
(230,642,o),
(209,663,o),
(184,663,cs),
(158,663,o),
(138,642,o),
(138,616,cs),
(138,590,o),
(158,569,o),
(184,569,cs)
);
}
);
width = 532;
}
);
note = ydieresis;
unicode = 255;
},
{
glyphname = Abreve;
layers = (
{
hints = (
{
horizontal = 1;
place = (0, 226);
place = (0, 226);
type = Stem;
},
{
horizontal = 1;
place = (704, -20);
target = down;
type = TopGhost;
},
{
horizontal = 1;
place = (213, -20);
target = down;
type = TopGhost;
},
{
horizontal = 1;
place = (766, 57);
place = (766, 57);
type = Stem;
},
{
horizontal = 1;
place = (906, -20);
target = down;
type = TopGhost;
}
);
layerId = m01;
shapes = (
{
closed = 1;
nodes = (
(175,226,l),
(296,558,l),
(427,226,l)
);
},
{
closed = 1;
nodes = (
(673,13,l),
(645,15,o),
(624,14,o),
(591,94,c),
(591,94,o),
(467,410,o),
(345,704,c),
(334,704,l),
(167,249,ls),
(80,18,o),
(55,14,o),
(17,13,c),
(17,0,l),
(240,0,l),
(240,13,l),
(101,9,o),
(145,133,o),
(172,213,c),
(431,213,l),
(466,126,ls),
(489,70,o),
(499,13,o),
(445,13,c),
(445,0,l),
(673,0,l)
);
},
{
closed = 1;
nodes = (
(461,869,o),
(439,823,o),
(342,823,cs),
(243,823,o),
(221,869,o),
(221,906,c),
(211,906,l),
(211,830,o),
(245,766,o),
(342,766,cs),
(437,766,o),
(470,830,o),
(470,906,c),
(461,906,l)
);
}
);
width = 693;
}
);
note = Abreve;
unicode = 258;
},
{
glyphname = abreve;
layers = (
{
hints = (
{
horizontal = 1;
place = (-9, 45);
place = (-9, 45);
type = Stem;
},
{
horizontal = 1;
place = (471, -20);
target = down;
type = TopGhost;
},
{
place = (41, 89);
place = (41, 89);
type = Stem;
},
{
place = (297, 90);
place = (297, 90);
type = Stem;
}
);
layerId = m01;
shapes = (
{
closed = 1;
nodes = (
(297,247,o),
(297,99,o),
(297,98,c),
(287,74,o),
(262,36,o),
(209,36,cs),
(148,36,o),
(130,86,o),
(130,115,cs),
(130,175,o),
(181,219,o),
(297,247,c)
);
},
{
closed = 1;
nodes = (
(386,38,o),
(387,101,o),
(387,101,c),
(387,271,ls),
(387,390,o),
(357,471,o),
(248,471,c),
(248,471,o),
(199,474,o),
(156,452,cs),
(102,423,o),
(85,393,o),
(78,378,cs),
(70,364,o),
(72,344,o),
(83,329,cs),
(98,308,o),
(127,304,o),
(147,320,cs),
(168,335,o),
(172,365,o),
(157,385,cs),
(149,396,o),
(138,401,o),
(126,403,cs),
(120,404,o),
(126,423,o),
(165,442,cs),
(245,479,o),
(297,421,o),
(297,318,cs),
(297,260,l),
(126,216,o),
(41,194,o),
(41,94,cs),
(41,-9,o),
(155,-9,o),
(155,-9,c),
(225,-9,o),
(283,27,o),
(297,75,c),
(303,-11,o),
(382,-9,o),
(382,-9,c),
(434,-9,o),
(468,29,o),
(474,59,c),
(462,64,l),
(455,38,o),
(432,38,o),
(432,38,c)
);
},
{
closed = 1;
nodes = (
(379,703,l),
(379,666,o),
(357,620,o),
(260,620,cs),
(161,620,o),
(139,666,o),
(139,703,c),
(129,703,l),
(129,627,o),
(163,563,o),
(260,563,cs),
(355,563,o),
(388,627,o),
(388,703,c)
);
}
);
width = 485;
}
);
note = abreve;
unicode = 259;
},
{
glyphname = Aogonek;
layers = (
{
hints = (
{
horizontal = 1;
place = (-192, 31);
place = (-192, 31);
type = Stem;
},
{
horizontal = 1;
place = (0, 13);
place = (0, 13);
type = Stem;
},
{
horizontal = 1;
place = (213, 13);
place = (213, 13);
type = Stem;
},
{
horizontal = 1;
place = (704, -20);
target = down;
type = TopGhost;
},
{
place = (635, 13);
place = (635, 13);
type = Stem;
},
{
place = (17, 127);
place = (17, 127);
type = Stem;
},
{
place = (484, 189);
place = (484, 189);
type = Stem;
}
);
layerId = m01;
shapes = (
{
closed = 1;
nodes = (
(673,13,l),
(645,15,o),
(624,14,o),
(591,94,c),
(591,94,o),
(467,410,o),
(345,704,c),
(334,704,l),
(167,249,ls),
(80,18,o),
(55,14,o),
(17,13,c),
(17,0,l),
(240,0,l),
(240,13,l),
(101,9,o),
(145,133,o),
(172,213,c),
(431,213,l),
(466,126,ls),
(489,70,o),
(499,13,o),
(445,13,c),
(445,0,l),
(588,0,l),
(512,-31,o),
(463,-79,o),
(486,-149,c),
(486,-149,o),
(503,-200,o),
(582,-192,cs),
(633,-187,o),
(648,-154,o),
(648,-113,c),
(635,-113,l),
(635,-134,o),
(621,-160,o),
(594,-161,c),
(594,-161,o),
(544,-169,o),
(532,-121,cs),
(522,-83,o),
(558,-28,o),
(617,0,c),
(673,0,l)
);
},
{
closed = 1;
nodes = (
(175,226,l),
(296,558,l),
(427,226,l)
);
}
);
width = 693;
}
);
note = Aogonek;
unicode = 260;
},
{
glyphname = aogonek;
layers = (
{
hints = (
{
horizontal = 1;
place = (-192, 31);
place = (-192, 31);
type = Stem;
},
{
horizontal = 1;
place = (-9, 45);
place = (-9, 45);
type = Stem;
},
{
horizontal = 1;
place = (310, 93);
place = (310, 93);
type = Stem;
},
{
horizontal = 1;
place = (453, 18);
place = (453, 18);
type = Stem;
},
{
place = (73, 93);
place = (73, 93);
type = Stem;
},
{
place = (297, 90);
place = (297, 90);
type = Stem;
},
{
place = (440, 13);
place = (440, 13);
type = Stem;
},
{
place = (41, 89);
place = (41, 89);
type = Stem;
}
);
layerId = m01;
shapes = (
{
closed = 1;
nodes = (
(399,-161,o),
(349,-169,o),
(337,-121,cs),
(327,-85,o),
(360,-32,o),
(415,-3,c),
(448,8,o),
(469,36,o),
(474,59,c),
(462,64,l),
(455,38,o),
(432,38,o),
(432,38,c),
(386,38,o),
(387,101,o),
(387,101,c),
(387,271,ls),
(387,390,o),
(357,471,o),
(248,471,c),
(248,471,o),
(199,474,o),
(156,452,cs),
(102,423,o),
(85,393,o),
(78,378,cs),
(70,364,o),
(72,344,o),
(83,329,cs),
(98,308,o),
(127,304,o),
(147,320,cs),
(168,335,o),
(172,365,o),
(157,385,cs),
(149,396,o),
(138,401,o),
(126,403,cs),
(120,404,o),
(126,423,o),
(165,442,cs),
(245,479,o),
(297,421,o),
(297,318,cs),
(297,260,l),
(126,216,o),
(41,194,o),
(41,94,cs),
(41,-9,o),
(155,-9,o),
(155,-9,c),
(225,-9,o),
(283,27,o),
(297,75,c),
(302,6,o),
(353,-6,o),
(374,-9,c),
(309,-40,o),
(270,-86,o),
(291,-149,c),
(291,-149,o),
(308,-200,o),
(387,-192,cs),
(438,-187,o),
(453,-154,o),
(453,-113,c),
(440,-113,l),
(440,-134,o),
(426,-160,o),
(399,-161,c)
);
},
{
closed = 1;
nodes = (
(287,74,o),
(262,36,o),
(209,36,cs),
(148,36,o),
(130,86,o),
(130,115,cs),
(130,175,o),
(181,219,o),
(297,247,c),
(297,247,o),
(297,99,o),
(297,98,c)
);
}
);
width = 485;
}
);
note = aogonek;
unicode = 261;
},
{
glyphname = Cacute;
layers = (
{
hints = (
{
horizontal = 1;
place = (-9, 21);
target = up;
type = BottomGhost;
},
{
horizontal = 1;
place = (207, -20);
target = down;
type = TopGhost;
},
{
horizontal = 1;
place = (713, -20);
target = down;
type = TopGhost;
},
{
place = (40, 128);
place = (40, 128);
type = Stem;
},
{
horizontal = 1;
place = (734, 21);
target = up;
type = BottomGhost;
},
{
horizontal = 1;
place = (897, -20);
target = down;
type = TopGhost;
}
);
layerId = m01;
shapes = (
{
closed = 1;
nodes = (
(603,207,l),
(590,55,o),
(468,4,o),
(387,4,cs),
(286,4,o),
(168,45,o),
(168,352,cs),
(168,654,o),
(283,700,o),
(387,700,cs),
(468,700,o),
(575,662,o),
(603,497,c),
(616,497,l),
(628,652,l),
(565,703,o),
(490,713,o),
(387,713,cs),
(180,713,o),
(40,577,o),
(40,352,cs),
(40,129,o),
(180,-9,o),
(387,-9,cs),
(494,-9,o),
(554,4,o),
(628,53,c),
(616,207,l)
);
},
{
closed = 1;
nodes = (
(214,734,l),
(237,734,l),
(472,872,l),
(391,897,l)
);
}
);
width = 671;
}
);
note = Cacute;
unicode = 262;
},
{
glyphname = cacute;
layers = (
{
hints = (
{
horizontal = 1;
place = (-9, 21);
target = up;
type = BottomGhost;
},
{
horizontal = 1;
place = (471, -20);
target = down;
type = TopGhost;
},
{
place = (45, 93);
place = (45, 93);
type = Stem;
},
{
horizontal = 1;
place = (540, 21);
target = up;
type = BottomGhost;
},
{
horizontal = 1;
place = (703, -20);
target = down;
type = TopGhost;
}
);
layerId = m01;
shapes = (
{
closed = 1;
nodes = (
(437,128,l),
(419,87,o),
(357,40,o),
(284,46,cs),
(213,53,o),
(138,108,o),
(138,241,cs),
(138,428,o),
(248,458,o),
(288,458,cs),
(355,458,o),
(382,430,o),
(373,428,cs),
(363,427,o),
(352,419,o),
(345,407,cs),
(332,386,o),
(339,357,o),
(362,344,cs),
(383,331,o),
(413,340,o),
(426,361,cs),
(435,377,o),
(433,396,o),
(425,410,cs),
(416,426,o),
(386,471,o),
(288,471,cs),
(135,471,o),
(45,353,o),
(45,230,cs),
(45,83,o),
(151,-9,o),
(263,-9,cs),
(386,-9,o),
(437,73,o),
(448,123,c)
);
},
{
closed = 1;
nodes = (
(131,540,l),
(154,540,l),
(389,678,l),
(308,703,l)
);
}
);
width = 481;
}
);
note = cacute;
unicode = 263;
},
{
glyphname = Ccaron;
layers = (
{
hints = (
{
horizontal = 1;
place = (-9, 21);
target = up;
type = BottomGhost;
},
{
horizontal = 1;
place = (207, -20);
target = down;
type = TopGhost;
},
{
horizontal = 1;
place = (713, -20);
target = down;
type = TopGhost;
},
{
place = (40, 128);
place = (40, 128);
type = Stem;
},
{
horizontal = 1;
place = (734, 21);
target = up;
type = BottomGhost;
},
{
horizontal = 1;
place = (922, -20);
target = down;
type = TopGhost;
}
);
layerId = m01;
shapes = (
{
closed = 1;
nodes = (
(603,207,l),
(590,55,o),
(468,4,o),
(387,4,cs),
(286,4,o),
(168,45,o),
(168,352,cs),
(168,654,o),
(283,700,o),
(387,700,cs),
(468,700,o),
(575,662,o),
(603,497,c),
(616,497,l),
(628,652,l),
(565,703,o),
(490,713,o),
(387,713,cs),
(180,713,o),
(40,577,o),
(40,352,cs),
(40,129,o),
(180,-9,o),
(387,-9,cs),
(494,-9,o),
(554,4,o),
(628,53,c),
(616,207,l)
);
},
{
closed = 1;
nodes = (
(368,820,l),
(249,922,l),
(226,922,l),
(368,734,l),
(511,922,l),
(487,922,l)
);
}
);
width = 671;
}
);
note = Ccaron;
unicode = 268;
},
{
glyphname = ccaron;
layers = (
{
hints = (
{
horizontal = 1;
place = (-9, 21);
target = up;
type = BottomGhost;
},
{
horizontal = 1;
place = (471, -20);
target = down;
type = TopGhost;
},
{
place = (45, 93);
place = (45, 93);
type = Stem;
},
{
horizontal = 1;
place = (516, 21);
target = up;
type = BottomGhost;
},
{
horizontal = 1;
place = (704, -20);
target = down;
type = TopGhost;
}
);
layerId = m01;
shapes = (
{
closed = 1;
nodes = (
(437,128,l),
(419,87,o),
(357,40,o),
(284,46,cs),
(213,53,o),
(138,108,o),
(138,241,cs),
(138,428,o),
(248,458,o),
(288,458,cs),
(355,458,o),
(382,430,o),
(373,428,cs),
(363,427,o),
(352,419,o),
(345,407,cs),
(332,386,o),
(339,357,o),
(362,344,cs),
(383,331,o),
(413,340,o),
(426,361,cs),
(435,377,o),
(433,396,o),
(425,410,cs),
(416,426,o),
(386,471,o),
(288,471,cs),
(135,471,o),
(45,353,o),
(45,230,cs),
(45,83,o),
(151,-9,o),
(263,-9,cs),
(386,-9,o),
(437,73,o),
(448,123,c)
);
},
{
closed = 1;
nodes = (
(257,602,l),
(138,704,l),
(115,704,l),
(257,516,l),
(400,704,l),
(376,704,l)
);
}
);
width = 481;
}
);
note = ccaron;
unicode = 269;
},
